<svg width="196" height="108" viewBox="0 0 196 108" fill="none" xmlns="http://www.w3.org/2000/svg">
<rect x="15.6529" width="185" height="64" rx="8" transform="rotate(14.1568 15.6529 0)" fill="#B8FADB"/>
<path d="M39.0945 23.5443C39.0253 23.8184 38.8955 24.0606 38.7049 24.2711C38.5143 24.4815 38.2572 24.6284 37.9336 24.7118C37.6114 24.7901 37.2279 24.7731 36.7832 24.6609L35.8058 24.4144L35.254 26.6019L34.3697 26.3788L35.7296 20.9877L37.5912 21.4573C38.005 21.5616 38.3358 21.7221 38.5837 21.9386C38.838 22.1513 39.0044 22.3967 39.0827 22.675C39.1662 22.9546 39.1701 23.2444 39.0945 23.5443ZM36.9651 23.9395C37.3013 24.0243 37.571 24.0126 37.7743 23.9043C37.9789 23.791 38.1164 23.5946 38.1869 23.3154C38.3356 22.7258 38.0764 22.3469 37.4093 22.1787L36.4319 21.9321L35.9877 23.693L36.9651 23.9395ZM39.2322 25.3117C39.3405 24.8824 39.5242 24.5245 39.7836 24.2379C40.048 23.9526 40.3557 23.7579 40.7064 23.6539C41.0637 23.546 41.4285 23.539 41.8008 23.6329C42.1369 23.7177 42.4122 23.8586 42.6265 24.0557C42.8472 24.2489 43.0078 24.4626 43.1082 24.697L43.2648 24.0764L44.1568 24.3014L43.0787 28.5756L42.1867 28.3505L42.3471 27.7145C42.1463 27.8783 41.8996 27.9949 41.6071 28.0641C41.3147 28.1333 41.0029 28.1262 40.672 28.0427C40.3048 27.9501 39.9921 27.7722 39.734 27.5091C39.4771 27.2408 39.3006 26.9158 39.2044 26.534C39.1147 26.1483 39.1239 25.7409 39.2322 25.3117ZM42.7267 26.2096C42.8011 25.9148 42.8036 25.6432 42.7342 25.3947C42.6701 25.1475 42.5541 24.9422 42.3863 24.7789C42.2185 24.6156 42.0208 24.5052 41.7933 24.4478C41.5657 24.3904 41.3393 24.3938 41.1141 24.458C40.8902 24.517 40.6888 24.6395 40.5099 24.8254C40.3375 25.0074 40.2141 25.2458 40.1398 25.5406C40.0654 25.8353 40.0597 26.1089 40.1225 26.3613C40.1905 26.615 40.3078 26.8261 40.4743 26.9946C40.6473 27.1592 40.845 27.2696 41.0673 27.3257C41.2949 27.3831 41.5213 27.3796 41.7465 27.3154C41.9717 27.2512 42.1711 27.1255 42.3449 26.9383C42.5251 26.7473 42.6524 26.5044 42.7267 26.2096ZM49.1658 25.5649L44.9591 31.1867L44.0438 30.9559L45.4369 29.0961L44.8141 24.4672L45.7993 24.7157L46.1798 28.2769L48.2505 25.334L49.1658 25.5649ZM55.0247 26.9685C55.3609 27.0532 55.6432 27.1987 55.8717 27.4049C56.1054 27.6123 56.2627 27.872 56.3435 28.1839C56.4295 28.4971 56.4236 28.8477 56.3258 29.2355L55.6899 31.7566L54.8133 31.5355L55.416 29.1463C55.5125 28.7636 55.4905 28.4473 55.35 28.1973C55.2109 27.9422 54.9758 27.7729 54.6449 27.6894C54.3139 27.606 54.0241 27.6429 53.7754 27.8002C53.5332 27.9536 53.3638 28.2216 53.2673 28.6043L52.6646 30.9935L51.7881 30.7724L52.3907 28.3832C52.4872 28.0005 52.4653 27.6842 52.3248 27.4343C52.1856 27.1792 51.9506 27.0099 51.6196 26.9264C51.2886 26.8429 50.9988 26.8798 50.7501 27.0371C50.5079 27.1905 50.3385 27.4585 50.242 27.8412L49.6394 30.2304L48.7551 30.0073L49.8332 25.7332L50.7175 25.9563L50.5942 26.445C50.7834 26.3057 51.0015 26.2149 51.2487 26.1728C51.4958 26.1306 51.7461 26.1415 51.9995 26.2054C52.3408 26.2915 52.6276 26.4408 52.86 26.6535C53.0924 26.8661 53.2464 27.1277 53.3221 27.4383C53.5166 27.2123 53.7698 27.059 54.0817 26.9781C54.3949 26.8921 54.7093 26.8889 55.0247 26.9685ZM61.2979 30.7867C61.2575 30.947 61.2106 31.0892 61.1573 31.2133L57.8916 30.3895C57.8313 30.7374 57.8889 31.0434 58.0643 31.3076C58.2396 31.5719 58.4928 31.7458 58.8238 31.8292C59.2995 31.9492 59.6859 31.8349 59.9828 31.4863L60.937 31.727C60.7085 32.0874 60.3917 32.3512 59.9865 32.5186C59.5877 32.682 59.1376 32.7004 58.6359 32.5739C58.2274 32.4709 57.8831 32.2878 57.6029 32.0246C57.3292 31.7575 57.1411 31.4351 57.0384 31.0571C56.9422 30.6753 56.9495 30.2647 57.0604 29.8251C57.1713 29.3855 57.3563 29.0224 57.6157 28.7358C57.8814 28.4453 58.1975 28.25 58.5638 28.1499C58.9352 28.0511 59.3304 28.0545 59.7492 28.1602C60.1526 28.2619 60.4898 28.4405 60.7609 28.6959C61.0321 28.9513 61.2151 29.2614 61.31 29.6264C61.4063 29.9862 61.4022 30.373 61.2979 30.7867ZM60.4452 30.2746C60.5222 29.9475 60.4718 29.657 60.2938 29.4031C60.1158 29.1492 59.8588 28.9798 59.5226 28.8951C59.2175 28.8181 58.9316 28.8505 58.6648 28.9922C58.3994 29.1288 58.2042 29.3573 58.0793 29.6778L60.4452 30.2746ZM64.8548 29.448C65.191 29.5328 65.4733 29.6782 65.7018 29.8844C65.9355 30.0918 66.0928 30.3515 66.1736 30.6634C66.2544 30.9753 66.2459 31.3252 66.1481 31.7131L65.5122 34.2341L64.6357 34.013L65.2383 31.6239C65.3348 31.2412 65.3129 30.9249 65.1724 30.6749C65.0332 30.4198 64.7982 30.2505 64.4672 30.167C64.1362 30.0835 63.8464 30.1204 63.5977 30.2777C63.3555 30.4311 63.1861 30.6992 63.0896 31.0819L62.487 33.471L61.6027 33.248L62.6808 28.9739L63.5651 29.1969L63.4418 29.6856C63.6309 29.5463 63.8491 29.4556 64.0963 29.4134C64.3486 29.3725 64.6014 29.3841 64.8548 29.448ZM68.568 31.2261L67.9712 33.592C67.9308 33.7524 67.9377 33.8778 67.9918 33.9685C68.0524 34.0553 68.1732 34.1215 68.3542 34.1672L68.8972 34.3041L68.7113 35.0411L68.0132 34.865C67.615 34.7645 67.3334 34.5945 67.1683 34.3548C67.0032 34.1152 66.9735 33.7859 67.0792 33.367L67.676 31.0011L67.1717 30.874L67.3537 30.1525L67.8579 30.2797L68.126 29.217L69.018 29.442L68.75 30.5047L69.7894 30.7669L69.6075 31.4883L68.568 31.2261ZM71.7866 33.5396C71.8975 33.1 72.0826 32.7369 72.3419 32.4503C72.6077 32.1598 72.9211 31.9639 73.2822 31.8625C73.6434 31.761 74.0282 31.7618 74.4367 31.8649C74.9539 31.9953 75.3492 32.2271 75.6227 32.5601C75.9027 32.8892 76.0448 33.2963 76.0489 33.7814L75.0948 33.5407C75.0707 33.3092 74.9884 33.1124 74.8477 32.9504C74.7071 32.7884 74.5074 32.6748 74.2489 32.6096C73.8869 32.5183 73.5647 32.5745 73.2823 32.7783C73.0063 32.9782 72.8103 33.3083 72.6942 33.7685C72.5781 34.2288 72.5935 34.6149 72.7403 34.927C72.8923 35.2403 73.1492 35.4427 73.5112 35.534C74.0232 35.6631 74.4187 35.5236 74.6976 35.1154L75.6518 35.3561C75.4181 35.7592 75.098 36.047 74.6914 36.2194C74.2862 36.3867 73.8302 36.4065 73.3234 36.2786C72.9149 36.1756 72.5757 35.9938 72.3059 35.7332C72.0374 35.4675 71.8544 35.1463 71.7569 34.7697C71.6658 34.3892 71.6758 33.9792 71.7866 33.5396ZM78.0289 37.4655C77.6255 37.3638 77.2838 37.1813 77.0036 36.9182C76.7248 36.6498 76.534 36.3267 76.4313 35.9488C76.33 35.5657 76.3347 35.1543 76.4456 34.7148C76.5552 34.2804 76.748 33.9192 77.0241 33.6314C77.3003 33.3435 77.6266 33.1508 78.0033 33.0533C78.3799 32.9558 78.7725 32.9585 79.181 33.0616C79.5895 33.1646 79.9365 33.3484 80.2218 33.6129C80.5071 33.8773 80.703 34.2018 80.8096 34.5862C80.9161 34.9706 80.9146 35.38 80.805 35.8144C80.6955 36.2488 80.5 36.6093 80.2187 36.8958C79.9374 37.1824 79.6027 37.3757 79.2144 37.4758C78.8326 37.572 78.4374 37.5686 78.0289 37.4655ZM78.2226 36.6976C78.4501 36.755 78.6759 36.7542 78.8998 36.6951C79.1288 36.6374 79.3328 36.5156 79.5117 36.3297C79.6906 36.1438 79.8192 35.8957 79.8975 35.5855C79.9757 35.2752 79.9821 34.999 79.9167 34.757C79.8525 34.5098 79.7359 34.3071 79.5668 34.1489C79.3976 33.9908 79.1993 33.883 78.9718 33.8256C78.7442 33.7682 78.5185 33.769 78.2946 33.8281C78.0759 33.8884 77.8822 34.0128 77.7137 34.2013C77.5464 34.3846 77.4237 34.6314 77.3454 34.9417C77.2293 35.402 77.2557 35.7882 77.4245 36.1002C77.5997 36.4085 77.8658 36.6076 78.2226 36.6976ZM84.3914 34.3758C84.7275 34.4606 85.0098 34.6061 85.2383 34.8122C85.472 35.0197 85.6293 35.2794 85.7101 35.5913C85.791 35.9032 85.7825 36.2531 85.6846 36.6409L85.0487 39.162L84.1722 38.9409L84.7748 36.5517C84.8714 36.169 84.8494 35.8527 84.7089 35.6028C84.5698 35.3476 84.3347 35.1783 84.0037 35.0949C83.6728 35.0114 83.3829 35.0483 83.1342 35.2056C82.892 35.359 82.7227 35.627 82.6261 36.0097L82.0235 38.3989L81.1392 38.1758L82.2173 33.9017L83.1016 34.1247L82.9783 34.6134C83.1675 34.4741 83.3856 34.3834 83.6328 34.3412C83.8851 34.3004 84.138 34.3119 84.3914 34.3758ZM88.8647 36.3457L88.0735 36.1462L87.1774 39.6989L86.2853 39.4739L87.1815 35.9211L86.6772 35.794L86.8592 35.0726L87.3634 35.1997L87.4397 34.8972C87.5636 34.4059 87.7829 34.0817 88.0976 33.9246C88.4187 33.7636 88.8585 33.7535 89.4171 33.8944L89.2312 34.6313C88.9623 34.5635 88.7605 34.5676 88.6258 34.6436C88.4924 34.7145 88.3944 34.874 88.3318 35.1222L88.2555 35.4248L89.0467 35.6243L88.8647 36.3457ZM90.4231 35.3692C90.2628 35.3288 90.1421 35.2406 90.0609 35.1046C89.9797 34.9686 89.9593 34.8204 89.9997 34.6601C90.0402 34.4998 90.1284 34.3791 90.2644 34.2979C90.4003 34.2166 90.5485 34.1963 90.7088 34.2367C90.864 34.2758 90.9821 34.3634 91.0633 34.4994C91.1445 34.6354 91.1649 34.7835 91.1245 34.9438C91.084 35.1041 90.9958 35.2249 90.8598 35.3061C90.7239 35.3873 90.5783 35.4084 90.4231 35.3692ZM90.7147 36.0451L89.6366 40.3192L88.7523 40.0961L89.8304 35.822L90.7147 36.0451ZM92.6035 37.1815C92.7876 36.9969 93.0006 36.8719 93.2426 36.8065C93.4911 36.7371 93.7628 36.7396 94.0575 36.814L93.8267 37.7293L93.6017 37.6726C93.2552 37.5852 92.9693 37.6066 92.744 37.7367C92.5238 37.8682 92.3589 38.1512 92.2493 38.5856L91.6819 40.8351L90.7976 40.612L91.8757 36.3379L92.76 36.561L92.6035 37.1815ZM100.044 38.3241C100.38 38.4089 100.663 38.5543 100.891 38.7605C101.125 38.9679 101.282 39.2276 101.363 39.5395C101.449 39.8528 101.443 40.2033 101.345 40.5911L100.709 43.1122L99.8329 42.8911L100.436 40.5019C100.532 40.1192 100.51 39.8029 100.37 39.553C100.23 39.2979 99.9954 39.1286 99.6645 39.0451C99.3335 38.9616 99.0437 38.9985 98.795 39.1558C98.5528 39.3092 98.3834 39.5772 98.2869 39.9599L97.6842 42.3491L96.8077 42.128L97.4103 39.7388C97.5069 39.3562 97.4849 39.0398 97.3444 38.7899C97.2053 38.5348 96.9702 38.3655 96.6392 38.282C96.3083 38.1985 96.0184 38.2354 95.7697 38.3927C95.5275 38.5461 95.3582 38.8142 95.2616 39.1969L94.659 41.586L93.7747 41.363L94.8528 37.0888L95.7371 37.3119L95.6138 37.8006C95.803 37.6613 96.0211 37.5705 96.2683 37.5284C96.5154 37.4862 96.7657 37.4971 97.0191 37.561C97.3604 37.6471 97.6473 37.7965 97.8796 38.0091C98.112 38.2217 98.2661 38.4833 98.3417 38.7939C98.5362 38.568 98.7894 38.4146 99.1013 38.3337C99.4146 38.2477 99.7289 38.2445 100.044 38.3241ZM106.318 42.1423C106.277 42.3026 106.23 42.4448 106.177 42.5689L102.911 41.7451C102.851 42.093 102.909 42.399 103.084 42.6633C103.259 42.9275 103.512 43.1014 103.843 43.1849C104.319 43.3049 104.706 43.1906 105.002 42.8419L105.957 43.0826C105.728 43.443 105.411 43.7069 105.006 43.8742C104.607 44.0376 104.157 44.0561 103.656 43.9295C103.247 43.8265 102.903 43.6434 102.623 43.3802C102.349 43.1132 102.161 42.7907 102.058 42.4128C101.962 42.031 101.969 41.6203 102.08 41.1807C102.191 40.7411 102.376 40.3781 102.635 40.0914C102.901 39.801 103.217 39.6057 103.583 39.5055C103.955 39.4067 104.35 39.4101 104.769 39.5158C105.172 39.6175 105.509 39.7961 105.781 40.0515C106.052 40.3069 106.235 40.6171 106.33 40.982C106.426 41.3419 106.422 41.7286 106.318 42.1423ZM105.465 41.6302C105.542 41.3031 105.491 41.0126 105.313 40.7587C105.135 40.5048 104.878 40.3355 104.542 40.2507C104.237 40.1737 103.951 40.2061 103.684 40.3478C103.419 40.4844 103.224 40.7129 103.099 41.0335L105.465 41.6302ZM106.871 42.3728C106.98 41.9436 107.164 41.5857 107.423 41.299C107.687 41.0137 107.995 40.8191 108.346 40.715C108.703 40.6071 109.07 40.6008 109.448 40.696C109.727 40.7664 109.985 40.8976 110.223 41.0896C110.467 41.2776 110.644 41.4927 110.753 41.7349L111.274 39.6715L112.166 39.8965L110.718 45.6367L109.826 45.4117L109.988 44.7679C109.791 44.9382 109.547 45.058 109.254 45.1272C108.967 45.1977 108.658 45.1913 108.327 45.1078C107.954 45.0139 107.637 44.8347 107.373 44.5703C107.116 44.302 106.94 43.9769 106.844 43.5951C106.754 43.2095 106.763 42.802 106.871 42.3728ZM110.366 43.2707C110.44 42.976 110.443 42.7043 110.374 42.4558C110.309 42.2086 110.193 42.0034 110.026 41.84C109.858 41.6767 109.66 41.5663 109.433 41.5089C109.205 41.4515 108.979 41.4549 108.753 41.5192C108.529 41.5782 108.328 41.7006 108.149 41.8865C107.977 42.0686 107.853 42.307 107.779 42.6017C107.705 42.8965 107.699 43.1701 107.762 43.4224C107.83 43.6761 107.947 43.8872 108.114 44.0557C108.287 44.2203 108.484 44.3307 108.707 44.3868C108.934 44.4442 109.161 44.4408 109.386 44.3766C109.611 44.3124 109.81 44.1867 109.984 43.9995C110.164 43.8084 110.292 43.5655 110.366 43.2707ZM114.349 40.8183L113.299 44.5551L112.562 44.3692L113.41 40.5816L114.349 40.8183ZM112.533 46.1522C112.373 46.1118 112.252 46.0236 112.171 45.8876C112.089 45.7516 112.069 45.6035 112.109 45.4431C112.15 45.2828 112.238 45.1621 112.374 45.0809C112.51 44.9997 112.658 44.9793 112.819 45.0197C112.974 45.0588 113.092 45.1464 113.173 45.2824C113.254 45.4184 113.275 45.5665 113.234 45.7269C113.194 45.8872 113.106 46.0079 112.97 46.0891C112.834 46.1703 112.688 46.1914 112.533 46.1522Z" fill="#19CE7C"/>
<path d="M42.2175 56.204L39.5645 55.5348L34.629 41.4438L31.5826 53.5215L28.9296 52.8523L33.0151 36.6556L35.668 37.3248L40.6094 51.3926L43.65 39.3381L46.3029 40.0073L42.2175 56.204ZM60.3122 48.5161C60.0968 47.6037 59.6676 46.8519 59.0247 46.2607C58.3857 45.654 57.5775 45.2273 56.6001 44.9808C55.5296 44.7108 54.5148 44.7106 53.5558 44.9802C52.5967 45.2498 51.7652 45.7661 51.0612 46.5291C50.3727 47.296 49.8817 48.2613 49.5882 49.4248C49.2947 50.5884 49.2672 51.6788 49.5057 52.696C49.7635 53.7016 50.2507 54.5505 50.9672 55.2428C51.6836 55.935 52.5771 56.4162 53.6475 56.6862C55.0903 57.0501 56.3634 56.9422 57.4667 56.3624C58.57 55.7827 59.3966 54.8278 59.9466 53.498L53.8728 51.9659L54.407 49.8483L63.3198 52.0964L62.7974 54.1675C62.3098 55.3811 61.5683 56.4234 60.5731 57.2945C59.5933 58.1694 58.4415 58.7782 57.1175 59.1208C55.8129 59.4518 54.4547 59.4392 53.0429 59.0831C51.5226 58.6996 50.2221 58.0003 49.1416 56.9852C48.0649 55.9546 47.3128 54.717 46.885 53.2726C46.4729 51.832 46.4663 50.3205 46.8655 48.7381C47.2646 47.1556 47.9873 45.828 49.0334 44.7553C50.0951 43.6865 51.3423 42.9615 52.775 42.5804C54.2271 42.1876 55.7057 42.181 57.2105 42.5606C58.9326 42.995 60.3531 43.8071 61.4721 44.9969C62.6105 46.1751 63.2866 47.6162 63.5003 49.3202L60.3122 48.5161ZM76.9878 64.9744L74.3349 64.3052L69.3993 50.2141L66.3529 62.2919L63.7 61.6227L67.7854 45.426L70.4383 46.0952L75.3797 60.163L78.4203 48.1085L81.0732 48.7777L76.9878 64.9744ZM81.6358 57.5084C82.035 55.926 82.7576 54.5984 83.8037 53.5257C84.8654 52.4569 86.1126 51.7319 87.5453 51.3507C88.9975 50.958 90.476 50.9514 91.9809 51.331C93.7029 51.7653 95.1234 52.5774 96.2424 53.7672C97.3808 54.9455 98.0569 56.3866 98.2706 58.0906L95.0825 57.2864C94.8788 56.3275 94.4575 55.5447 93.8185 54.938C93.1795 54.3312 92.3713 53.9046 91.3939 53.6581C90.3234 53.3881 89.3086 53.3879 88.3496 53.6575C87.3905 53.9271 86.557 54.4512 85.8491 55.2297C85.1567 56.0121 84.6599 57.0006 84.3585 58.1952C84.0572 59.3898 84.0258 60.4957 84.2642 61.5129C84.5182 62.534 85.0015 63.3985 85.714 64.1062C86.4304 64.7985 87.3239 65.2796 88.3944 65.5496C89.3718 65.7962 90.2856 65.8039 91.136 65.5729C91.9863 65.3418 92.7285 64.8525 93.3626 64.1049L96.5508 64.909C95.5544 66.3078 94.2757 67.2559 92.7146 67.7532C91.1691 68.2544 89.5353 68.2878 87.8133 67.8535C86.2929 67.47 84.9924 66.7707 83.9119 65.7556C82.8352 64.725 82.0831 63.4874 81.6554 62.0429C81.2432 60.6024 81.2367 59.0909 81.6358 57.5084ZM98.6876 66.6856L99.1925 64.6843L109.841 55.4399L113.052 56.2499L110.299 67.1641L112.463 67.71L111.882 70.0138L109.718 69.4679L108.826 73.0051L106.22 72.3477L107.112 68.8105L98.6876 66.6856ZM109.881 58.3213L102.317 65.1507L107.809 66.536L109.881 58.3213ZM117.25 71.7391L112.815 77.4517L111.093 77.0174L114.365 71.0113L117.25 71.7391ZM121.591 62.6363C122.048 61.217 122.883 60.2312 124.095 59.6788C125.322 59.1303 126.727 59.0557 128.309 59.4548C129.395 59.7288 130.285 60.1594 130.978 60.7469C131.672 61.3343 132.136 62.0124 132.371 62.7813C132.606 63.5501 132.618 64.3534 132.407 65.1912C132.164 66.1531 131.701 66.9107 131.017 67.4642C130.333 68.0177 129.604 68.3208 128.832 68.3735L128.809 68.4666C129.653 68.9767 130.238 69.6687 130.562 70.5425C130.89 71.4008 130.909 72.404 130.62 73.552C130.389 74.4673 129.974 75.229 129.375 75.837C128.776 76.445 128.013 76.8547 127.085 77.0662C126.161 77.2622 125.125 77.2154 123.977 76.9258C122.301 76.5031 121.028 75.7282 120.157 74.601C119.306 73.4622 119.045 72.0763 119.375 70.4433L121.934 71.089C121.789 71.9269 121.937 72.682 122.378 73.3542C122.823 74.011 123.534 74.4626 124.511 74.7092C125.458 74.9479 126.251 74.8758 126.892 74.493C127.537 74.0946 127.964 73.4843 128.171 72.6621C128.445 71.5761 128.29 70.7201 127.705 70.0941C127.14 69.4565 126.143 68.9577 124.716 68.5977L124.111 68.4451L124.663 66.2576L125.291 66.4161C126.552 66.7175 127.559 66.7487 128.312 66.5097C129.081 66.2746 129.575 65.7227 129.794 64.8539C129.982 64.1092 129.89 63.459 129.519 62.9033C129.151 62.3321 128.525 61.935 127.641 61.7119C126.772 61.4928 126.041 61.5475 125.446 61.8761C124.856 62.1892 124.432 62.6598 124.174 63.2879L121.591 62.6363ZM134.608 75.6719C136.423 74.7599 137.86 74.0004 138.921 73.3934C140.001 72.7748 140.941 72.088 141.742 71.3329C142.543 70.5779 143.057 69.7505 143.284 68.8507C143.519 67.9198 143.478 67.1339 143.161 66.493C142.86 65.8559 142.236 65.418 141.29 65.1793C140.374 64.9484 139.586 65.0632 138.926 65.5236C138.284 65.9724 137.825 66.6816 137.547 67.6511L134.988 67.0055C135.48 65.2486 136.348 64.0319 137.591 63.3554C138.854 62.6673 140.269 62.5209 141.836 62.9162C143.527 63.3427 144.728 64.1407 145.44 65.3103C146.167 66.4838 146.335 67.8462 145.943 69.3976C145.661 70.5146 145.102 71.5204 144.266 72.4151C143.449 73.2982 142.542 74.051 141.543 74.6737C140.564 75.2848 139.334 75.9729 137.854 76.7382L136.572 77.4049L143.949 79.2656L143.392 81.4764L132.082 78.6236L132.569 76.6921L134.608 75.6719ZM147.859 73.5935C148.536 70.9096 149.514 68.9287 150.793 67.6508C152.092 66.3613 153.851 65.9963 156.069 66.5559C158.288 67.1155 159.655 68.269 160.172 70.0163C160.707 71.7521 160.637 73.9619 159.96 76.6458C159.275 79.3608 158.281 81.3708 156.978 82.6758C155.695 83.9692 153.944 84.3361 151.726 83.7765C149.507 83.2169 148.132 82.0615 147.6 80.3103C147.088 78.5474 147.174 76.3085 147.859 73.5935ZM157.353 75.9884C157.67 74.7318 157.853 73.6475 157.902 72.7357C157.966 71.8278 157.818 71.0397 157.458 70.3715C157.103 69.6878 156.436 69.2226 155.459 68.9761C154.481 68.7296 153.674 68.8229 153.037 69.2562C152.403 69.674 151.892 70.2958 151.502 71.1215C151.128 71.9512 150.782 72.9943 150.465 74.2509C150.136 75.5541 149.938 76.6674 149.87 77.5909C149.802 78.5143 149.948 79.3101 150.308 79.9783C150.683 80.6505 151.359 81.1098 152.336 81.3563C153.313 81.6029 154.119 81.5173 154.752 81.0995C155.401 80.6856 155.915 80.0561 156.293 79.2109C156.671 78.3658 157.025 77.2916 157.353 75.9884Z" fill="#111111"/>
<circle cx="104.134" cy="21.2869" r="5" transform="rotate(14.1568 104.134 21.2869)" fill="#F6FFFB"/>
<circle cx="87.9917" cy="85.2824" r="5" transform="rotate(14.1568 87.9917 85.2824)" fill="#F6FFFB"/>
</svg>
