<svg width="326" height="102" viewBox="0 0 326 102" fill="none" xmlns="http://www.w3.org/2000/svg">
<rect x="0.47876" y="25.8833" width="320" height="76" rx="8" transform="rotate(-4.57499 0.47876 25.8833)" fill="#FFF2C5"/>
<path d="M29.8125 39.0254L29.8719 39.767L28.3966 39.8851L28.7807 44.6857L27.8716 44.7585L27.4875 39.9578L26.0042 40.0765L25.9449 39.3349L29.8125 39.0254ZM34.0555 44.2637L32.6022 42.1488L31.9084 42.2044L32.0858 44.4213L31.1767 44.494L30.7332 38.9517L32.6471 38.7986C33.0724 38.7645 33.4372 38.8103 33.7415 38.9357C34.0511 39.0608 34.2877 39.2425 34.4512 39.4808C34.6201 39.7188 34.7169 39.992 34.7415 40.3003C34.7705 40.6618 34.6905 40.9999 34.5017 41.3147C34.3177 41.6237 34.0121 41.8488 33.5846 41.99L35.14 44.1769L34.0555 44.2637ZM31.8503 41.4787L32.8551 41.3983C33.1953 41.371 33.4437 41.2656 33.6002 41.0818C33.7621 40.8977 33.8315 40.662 33.8085 40.375C33.7855 40.0879 33.6826 39.8714 33.4997 39.7255C33.3164 39.5743 33.052 39.5126 32.7064 39.5402L31.7016 39.6206L31.8503 41.4787ZM39.466 42.6911L37.1454 42.8768L36.8373 44.0411L35.8883 44.117L37.4298 38.4078L38.4825 38.3236L40.9122 43.715L39.9553 43.7916L39.466 42.6911ZM39.1514 41.9699L38.0442 39.4662L37.3412 42.1147L39.1514 41.9699ZM41.2499 40.887C41.2065 40.3448 41.2925 39.8483 41.5079 39.3977C41.7286 38.9467 42.0447 38.5843 42.4562 38.3106C42.8726 38.0312 43.3386 37.8708 43.8543 37.8296C44.4444 37.7823 44.9798 37.8866 45.4604 38.1425C45.9459 38.3925 46.3136 38.7751 46.5634 39.2901L45.4709 39.3775C45.304 39.0966 45.0872 38.8946 44.8205 38.7715C44.5538 38.6484 44.253 38.6002 43.9181 38.627C43.5513 38.6564 43.2309 38.7649 42.957 38.9527C42.6831 39.1405 42.4761 39.3951 42.336 39.7167C42.2012 40.0378 42.1501 40.403 42.1829 40.8124C42.2157 41.2217 42.3241 41.5742 42.5083 41.8698C42.6978 42.165 42.9428 42.3861 43.2435 42.5333C43.5438 42.6751 43.8774 42.7313 44.2442 42.702C44.5791 42.6752 44.8684 42.5798 45.1121 42.4158C45.3558 42.2519 45.5377 42.018 45.6579 41.7141L46.7504 41.6267C46.5856 42.1749 46.2834 42.611 45.8439 42.9351C45.4096 43.2588 44.8975 43.4442 44.3074 43.4915C43.7864 43.5332 43.301 43.4516 42.8512 43.2468C42.401 43.0367 42.0311 42.7266 41.7415 42.3164C41.4571 41.9058 41.2933 41.4293 41.2499 40.887ZM50.9976 42.908L48.654 40.5995L48.8525 43.0796L47.9434 43.1524L47.4999 37.6101L48.409 37.5373L48.6113 40.0653L50.5621 37.365L51.7025 37.2738L49.5162 40.2416L52.1858 42.8129L50.9976 42.908ZM57.5937 42.4363C57.078 42.4776 56.5926 42.3961 56.1375 42.1917C55.6873 41.9816 55.3174 41.6715 55.0278 41.2613C54.743 40.8453 54.5789 40.3662 54.5355 39.8239C54.4921 39.2817 54.5782 38.7852 54.7936 38.3346C55.0143 37.8836 55.3304 37.5212 55.7419 37.2475C56.1582 36.9681 56.6243 36.8077 57.14 36.7665C57.661 36.7248 58.1466 36.809 58.5968 37.0191C59.0518 37.2234 59.4215 37.5309 59.7059 37.9415C59.9902 38.3522 60.1541 38.8286 60.1974 39.3709C60.2408 39.9131 60.155 40.4123 59.9401 40.8682C59.7246 41.3188 59.4088 41.6838 58.9924 41.9633C58.5809 42.237 58.1147 42.3946 57.5937 42.4363ZM57.5305 41.6469C57.8973 41.6175 58.2177 41.5089 58.4916 41.3212C58.765 41.1281 58.9692 40.871 59.104 40.5499C59.2437 40.223 59.2972 39.8549 59.2644 39.4455C59.2317 39.0362 59.1205 38.6839 58.9311 38.3888C58.7469 38.0932 58.5047 37.8745 58.2044 37.7326C57.9041 37.5908 57.5706 37.5346 57.2038 37.5639C56.8369 37.5933 56.5166 37.7018 56.2427 37.8896C55.9688 38.0774 55.7618 38.332 55.6216 38.6536C55.4868 38.9747 55.4358 39.3399 55.4686 39.7493C55.5013 40.1586 55.61 40.5138 55.7946 40.8147C55.9841 41.1098 56.2291 41.331 56.5298 41.4781C56.8301 41.62 57.1637 41.6762 57.5305 41.6469ZM64.1935 41.852L62.7402 39.7372L62.0464 39.7927L62.2238 42.0097L61.3147 42.0824L60.8712 36.5401L62.7851 36.387C63.2104 36.3529 63.5752 36.3987 63.8795 36.5241C64.1892 36.6491 64.4257 36.8309 64.5893 37.0692C64.7581 37.3072 64.8549 37.5803 64.8796 37.8887C64.9085 38.2502 64.8285 38.5883 64.6397 38.9031C64.4558 39.212 64.1501 39.4371 63.7227 39.5784L65.2781 41.7653L64.1935 41.852ZM61.9884 39.0671L62.9931 38.9867C63.3334 38.9594 63.5818 38.854 63.7383 38.6702C63.9001 38.4861 63.9695 38.2504 63.9466 37.9634C63.9236 37.6763 63.8207 37.4598 63.6378 37.3139C63.4545 37.1627 63.19 37.101 62.8445 37.1286L61.8397 37.209L61.9884 39.0671ZM67.72 35.9921C68.3101 35.9449 68.835 36.0179 69.2945 36.2112C69.759 36.3987 70.1278 36.6956 70.4011 37.1018C70.6792 37.5022 70.8409 37.9842 70.886 38.5477C70.9311 39.1112 70.8479 39.6101 70.6365 40.0444C70.4305 40.4782 70.1131 40.8246 69.6844 41.0836C69.2606 41.3369 68.7536 41.4872 68.1635 41.5344L66.3533 41.6792L65.9098 36.1369L67.72 35.9921ZM68.1042 40.7927C68.7528 40.7408 69.2358 40.5256 69.5533 40.1471C69.8708 39.7686 70.004 39.2603 69.9529 38.6224C69.9015 37.9791 69.6885 37.4905 69.314 37.1567C68.9395 36.8228 68.428 36.6818 67.7794 36.7337L66.8783 36.8058L67.2031 40.8648L68.1042 40.7927ZM72.5314 36.3454L72.6616 37.9722L74.5755 37.8191L74.6348 38.5607L72.7209 38.7139L72.8569 40.4124L75.01 40.2401L75.0693 40.9818L72.0071 41.2268L71.563 35.6766L74.6252 35.4315L74.6845 36.1731L72.5314 36.3454ZM79.0678 40.6618L77.6145 38.547L76.9208 38.6025L77.0981 40.8194L76.1891 40.8922L75.7456 35.3499L77.6594 35.1967C78.0848 35.1627 78.4496 35.2084 78.7539 35.3339C79.0635 35.4589 79.3001 35.6406 79.4636 35.879C79.6325 36.117 79.7292 36.3901 79.7539 36.6985C79.7828 37.06 79.7029 37.3981 79.514 37.7128C79.3301 38.0218 79.0244 38.2469 78.597 38.3881L80.1524 40.575L79.0678 40.6618ZM76.8627 37.8768L77.8675 37.7964C78.2077 37.7692 78.4561 37.6637 78.6126 37.48C78.7744 37.2958 78.8439 37.0602 78.8209 36.7731C78.7979 36.486 78.695 36.2696 78.5121 36.1237C78.3288 35.9725 78.0644 35.9107 77.7188 35.9384L76.714 36.0188L76.8627 37.8768ZM87.656 36.2989L87.4714 37.7021L88.524 37.6179L88.5878 38.4153L87.3677 38.5129L87.1668 40.0138L86.2976 40.0833L86.4985 38.5825L84.9355 38.7076L84.7345 40.2084L83.8653 40.2779L84.0663 38.7771L82.8302 38.876L82.7664 38.0786L84.1699 37.9663L84.3546 36.5631L83.1265 36.6613L83.0627 35.8639L84.4582 35.7522L84.6531 34.276L85.5223 34.2064L85.3274 35.6827L86.8905 35.5576L87.0853 34.0813L87.9545 34.0118L87.7597 35.488L88.8203 35.4032L88.8841 36.2006L87.656 36.2989ZM86.7868 36.3684L85.2238 36.4935L85.0391 37.8967L86.6021 37.7716L86.7868 36.3684ZM93.0716 33.9635L93.1309 34.7051L90.7784 34.8934L90.9092 36.5281L92.7434 36.3814L92.8027 37.123L90.9686 37.2698L91.1626 39.694L90.2535 39.7668L89.81 34.2245L93.0716 33.9635ZM97.0963 36.3541C97.3982 36.3834 97.6633 36.52 97.8915 36.764C98.1197 37.0079 98.2469 37.2946 98.2733 37.6242C98.2959 37.906 98.2419 38.1671 98.1113 38.4077C97.9856 38.6424 97.7899 38.8373 97.5241 38.9924C97.2578 39.1421 96.9413 39.2316 96.5745 39.261L94.3575 39.4384L93.9141 33.8961L96.0273 33.727C96.4048 33.6968 96.7342 33.7346 97.0155 33.8405C97.2968 33.9464 97.5154 34.1028 97.671 34.3097C97.8263 34.5113 97.9145 34.745 97.9358 35.0108C97.9613 35.3298 97.8975 35.6024 97.7444 35.8287C97.5913 36.055 97.3753 36.2301 97.0963 36.3541ZM95.0095 36.1519L96.1339 36.0619C96.4316 36.0381 96.6575 35.9531 96.8117 35.807C96.9708 35.6552 97.0401 35.4517 97.0197 35.1965C96.9997 34.9466 96.8991 34.7594 96.7179 34.6348C96.5416 34.5044 96.3046 34.4512 96.0069 34.475L94.8825 34.565L95.0095 36.1519ZM96.4354 38.5257C96.7437 38.501 96.9796 38.4073 97.1432 38.2444C97.3067 38.0815 97.3778 37.8671 97.3566 37.6013C97.3349 37.3302 97.2246 37.1223 97.0258 36.9777C96.8269 36.8331 96.5733 36.7731 96.265 36.7978L95.0688 36.8935L95.2073 38.624L96.4354 38.5257ZM102.435 38.792L100.091 36.4836L100.29 38.9637L99.3805 39.0364L98.9371 33.4941L99.8462 33.4214L100.048 35.9493L101.999 33.2491L103.14 33.1579L100.953 36.1257L103.623 38.6969L102.435 38.792ZM107.539 35.0931L107.6 35.8587L104.322 36.121L104.261 35.3554L107.539 35.0931ZM112.247 32.8625L110.439 38.1515L109.522 38.2249L111.362 33.0296L108.411 33.2657L108.349 32.4922L112.193 32.1846L112.247 32.8625ZM114.172 34.7951C113.597 34.5629 113.286 34.1491 113.238 33.5536C113.215 33.2665 113.266 32.9976 113.39 32.7469C113.515 32.4962 113.715 32.2902 113.991 32.129C114.266 31.9625 114.612 31.8627 115.026 31.8295C115.436 31.7967 115.79 31.8406 116.088 31.9612C116.392 32.076 116.625 32.2473 116.787 32.4751C116.95 32.7028 117.043 32.9602 117.066 33.2473C117.09 33.545 117.034 33.8144 116.898 34.0553C116.767 34.2905 116.581 34.4792 116.341 34.6215C116.653 34.7089 116.907 34.8732 117.103 35.1143C117.298 35.3502 117.41 35.6382 117.437 35.9784C117.465 36.324 117.401 36.6367 117.247 36.9166C117.093 37.1964 116.865 37.4207 116.563 37.5893C116.26 37.7579 115.91 37.8582 115.511 37.8901C115.113 37.922 114.751 37.8788 114.425 37.7603C114.106 37.6415 113.847 37.4561 113.651 37.2044C113.454 36.9526 113.342 36.6539 113.314 36.3083C113.286 35.9628 113.35 35.658 113.506 35.3941C113.661 35.1302 113.883 34.9305 114.172 34.7951ZM116.206 33.4285C116.182 33.1308 116.07 32.9097 115.872 32.7651C115.673 32.6205 115.411 32.5611 115.087 32.5871C114.768 32.6126 114.522 32.7126 114.348 32.8869C114.175 33.0613 114.101 33.3 114.125 33.603C114.146 33.8689 114.259 34.0792 114.464 34.234C114.674 34.3831 114.931 34.4455 115.234 34.4212C115.537 34.397 115.78 34.2919 115.963 34.106C116.146 33.9202 116.227 33.6943 116.206 33.4285ZM115.289 35.107C114.938 35.1351 114.658 35.2458 114.448 35.4391C114.244 35.6267 114.155 35.8826 114.181 36.2069C114.205 36.5099 114.331 36.7486 114.559 36.923C114.787 37.092 115.084 37.1619 115.451 37.1325C115.812 37.1036 116.089 36.9852 116.281 36.7772C116.478 36.5688 116.565 36.3157 116.541 36.018C116.516 35.699 116.387 35.4605 116.155 35.3025C115.928 35.1441 115.639 35.0789 115.289 35.107ZM119.526 35.8354C119.6 36.0969 119.731 36.2898 119.917 36.414C120.104 36.5382 120.346 36.5884 120.643 36.5645C121.021 36.5343 121.285 36.3634 121.437 36.0516C121.589 35.7398 121.636 35.2251 121.578 34.5074C121.465 34.6984 121.296 34.8537 121.07 34.9735C120.849 35.0874 120.603 35.1553 120.332 35.177C119.986 35.2046 119.667 35.1606 119.374 35.0449C119.081 34.9239 118.841 34.7318 118.654 34.4686C118.472 34.1995 118.365 33.8657 118.333 33.467C118.286 32.8822 118.419 32.4034 118.732 32.0306C119.049 31.652 119.508 31.4387 120.109 31.3907C120.832 31.3328 121.364 31.5337 121.706 31.9932C122.053 32.447 122.266 33.171 122.345 34.1651C122.4 34.8509 122.387 35.4165 122.305 35.8618C122.228 36.3067 122.058 36.652 121.794 36.8979C121.53 37.1437 121.148 37.2866 120.648 37.3266C120.079 37.3721 119.629 37.2583 119.297 36.9853C118.965 36.7123 118.762 36.3513 118.688 35.9024L119.526 35.8354ZM120.43 34.3987C120.749 34.3731 120.991 34.2548 121.156 34.0436C121.326 33.8267 121.398 33.5535 121.371 33.2238C121.342 32.857 121.221 32.5805 121.008 32.3942C120.8 32.2022 120.529 32.1195 120.194 32.1463C119.859 32.1731 119.601 32.3007 119.422 32.5291C119.247 32.7518 119.173 33.0332 119.2 33.3735C119.226 33.6978 119.341 33.9588 119.544 34.1566C119.752 34.3486 120.047 34.4293 120.43 34.3987ZM123.343 34.1174C123.269 33.1977 123.366 32.4676 123.633 31.9273C123.905 31.3812 124.421 31.0777 125.182 31.0169C125.942 30.9561 126.497 31.1738 126.847 31.6701C127.202 32.1607 127.416 32.8659 127.49 33.7856C127.564 34.716 127.466 35.4568 127.194 36.0083C126.927 36.5539 126.414 36.8572 125.654 36.918C124.893 36.9789 124.336 36.7613 123.98 36.2654C123.63 35.7638 123.417 35.0478 123.343 34.1174ZM126.597 33.8571C126.562 33.4264 126.504 33.0646 126.421 32.7716C126.344 32.4781 126.213 32.2452 126.028 32.0727C125.843 31.8949 125.583 31.8194 125.248 31.8462C124.913 31.873 124.668 31.9889 124.513 32.1939C124.358 32.3936 124.263 32.6447 124.228 32.9471C124.199 33.249 124.202 33.6153 124.236 34.0459C124.272 34.4925 124.328 34.8652 124.406 35.164C124.483 35.4628 124.614 35.6984 124.799 35.8708C124.99 36.0429 125.252 36.1155 125.587 36.0887C125.922 36.0619 126.167 35.9486 126.323 35.7489C126.483 35.5488 126.578 35.2951 126.607 34.9879C126.636 34.6806 126.632 34.3036 126.597 33.8571Z" fill="#19CE7C"/>
<path d="M33.9216 61.3167C34.4787 61.3751 34.9519 61.6134 35.3412 62.0317C35.7304 62.45 35.9481 62.9476 35.9943 63.5244C36.036 64.0454 35.9426 64.5163 35.7141 64.9372C35.4942 65.3481 35.1512 65.6845 34.6853 65.9465C34.2194 66.2085 33.6562 66.3659 32.9956 66.4188L28.795 66.7549L28.0156 57.0141L32.0347 56.6924C32.6953 56.6396 33.2714 56.7012 33.763 56.8772C34.2639 57.0525 34.6506 57.3211 34.923 57.6832C35.2047 58.0446 35.3649 58.4671 35.4036 58.9509C35.449 59.5184 35.3335 60.0052 35.057 60.4112C34.7898 60.8165 34.4113 61.1183 33.9216 61.3167ZM30.291 60.8769L32.0772 60.7339C32.5424 60.6967 32.8924 60.5657 33.1272 60.3409C33.3613 60.1068 33.4627 59.7944 33.4315 59.4037C33.4002 59.0129 33.2504 58.7206 32.9821 58.5267C32.7138 58.3328 32.347 58.2545 31.8818 58.2917L30.0955 58.4347L30.291 60.8769ZM32.5892 64.8502C33.0637 64.8122 33.4222 64.6712 33.6649 64.4271C33.9168 64.1822 34.0264 63.8551 33.9937 63.4457C33.9602 63.0271 33.7945 62.7126 33.4968 62.5023C33.1984 62.2828 32.8119 62.192 32.3374 62.23L30.4116 62.3841L30.6215 65.0077L32.5892 64.8502ZM44.4425 57.722L45.0611 65.4533L43.0934 65.6108L43.0153 64.6339C42.7909 64.9889 42.4818 65.2805 42.0881 65.5086C41.7029 65.7267 41.2731 65.8548 40.7986 65.8927C40.1939 65.9411 39.6489 65.8583 39.1636 65.6443C38.6776 65.4211 38.2799 65.0737 37.9707 64.6022C37.67 64.1206 37.4921 63.5356 37.437 62.8472L37.074 58.3117L39.0278 58.1553L39.3684 62.4117C39.4175 63.0257 39.609 63.4879 39.9428 63.7983C40.2759 64.0994 40.7076 64.2287 41.2379 64.1862C41.7775 64.1431 42.1878 63.9464 42.4688 63.5962C42.749 63.2367 42.8645 62.7499 42.8154 62.1359L42.4748 57.8795L44.4425 57.722ZM51.5662 64.9328L48.6791 61.8493L48.9426 65.1427L46.9888 65.2991L46.1625 54.9721L48.1162 54.8157L48.5864 60.691L50.9197 57.2037L53.4595 57.0005L50.3649 61.1526L54.1061 64.7296L51.5662 64.9328ZM54.3246 60.7936C54.2621 60.0121 54.3601 59.3067 54.6188 58.6774C54.8867 58.0473 55.2728 57.5483 55.777 57.1802C56.2906 56.8114 56.8776 56.6006 57.5382 56.5477C58.115 56.5016 58.6267 56.5777 59.0733 56.776C59.5292 56.9736 59.9015 57.2388 60.1903 57.5715L60.1021 56.469L62.0698 56.3115L62.6884 64.0428L60.7207 64.2003L60.6303 63.0699C60.4081 63.4528 60.0834 63.7831 59.6562 64.0607C59.2376 64.3283 58.7398 64.4852 58.163 64.5313C57.5117 64.5834 56.9029 64.4636 56.3365 64.1719C55.7794 63.8794 55.3185 63.4434 54.9538 62.864C54.5976 62.2745 54.3879 61.5844 54.3246 60.7936ZM60.4114 60.3346C60.3734 59.8601 60.248 59.4629 60.0351 59.1428C59.8215 58.8135 59.5495 58.5731 59.219 58.4216C58.8878 58.2609 58.5408 58.195 58.1779 58.224C57.8151 58.2531 57.4872 58.3683 57.1944 58.5696C56.9015 58.7709 56.6711 59.0515 56.5033 59.4114C56.344 59.7612 56.283 60.1687 56.3202 60.6339C56.3575 61.0991 56.4833 61.501 56.6976 61.8396C56.9205 62.1682 57.193 62.4133 57.5149 62.5748C57.8461 62.7356 58.1884 62.8018 58.542 62.7735C58.9048 62.7445 59.2373 62.6289 59.5395 62.4268C59.8409 62.2155 60.0713 61.9349 60.2306 61.585C60.3891 61.2259 60.4494 60.8091 60.4114 60.3346ZM77.7625 53.0334L78.542 62.7742L76.5882 62.9306L76.0813 56.5948L73.9786 63.1394L72.4993 63.2578L69.3687 57.132L69.8757 63.4677L67.9219 63.624L67.1425 53.8832L69.3614 53.7056L73.039 60.7006L75.5576 53.2098L77.7625 53.0334ZM79.6597 58.7663C79.5971 57.9848 79.6952 57.2794 79.9538 56.6501C80.2217 56.0201 80.6078 55.521 81.1121 55.1529C81.6256 54.7841 82.2127 54.5733 82.8732 54.5205C83.4501 54.4743 83.9618 54.5504 84.4083 54.7487C84.8642 54.9463 85.2365 55.2115 85.5253 55.5442L85.4371 54.4417L87.4048 54.2842L88.0235 62.0155L86.0558 62.173L85.9653 61.0426C85.7431 61.4255 85.4185 61.7558 84.9912 62.0335C84.5726 62.301 84.0748 62.4579 83.498 62.5041C82.8468 62.5562 82.2379 62.4364 81.6715 62.1446C81.1144 61.8521 80.6535 61.4161 80.2888 60.8367C79.9327 60.2473 79.7229 59.5571 79.6597 58.7663ZM85.7464 58.3073C85.7085 57.8329 85.5831 57.4356 85.3702 57.1156C85.1566 56.7862 84.8845 56.5458 84.5541 56.3944C84.2228 56.2336 83.8758 56.1677 83.513 56.1968C83.1501 56.2258 82.8223 56.341 82.5294 56.5423C82.2365 56.7437 82.0062 57.0243 81.8383 57.3841C81.6791 57.7339 81.6181 58.1414 81.6553 58.6066C81.6925 59.0718 81.8183 59.4737 82.0327 59.8124C82.2556 60.141 82.528 60.386 82.8499 60.5475C83.1811 60.7083 83.5235 60.7745 83.877 60.7462C84.2399 60.7172 84.5724 60.6016 84.8745 60.3996C85.176 60.1882 85.4063 59.9076 85.5656 59.5578C85.7241 59.1986 85.7844 58.7818 85.7464 58.3073ZM98.9054 53.2516C99.8544 53.1757 100.641 53.4077 101.264 53.9477C101.897 54.4776 102.255 55.2636 102.338 56.3056L102.701 60.8411L100.747 60.9974L100.405 56.7271C100.357 56.1223 100.167 55.6741 99.8343 55.3823C99.5012 55.0813 99.0695 54.952 98.5392 54.9944C98.0089 55.0368 97.5986 55.2335 97.3084 55.5844C97.0267 55.9253 96.91 56.3981 96.9584 57.0029L97.3001 61.2732L95.3463 61.4296L95.0046 57.1592C94.9563 56.5545 94.7659 56.1062 94.4336 55.8145C94.1005 55.5134 93.6688 55.3841 93.1385 55.4265C92.5989 55.4697 92.1839 55.6668 91.8937 56.0177C91.612 56.3586 91.4953 56.8314 91.5437 57.4362L91.8854 61.7065L89.9317 61.8628L89.313 54.1316L91.2668 53.9752L91.3416 54.9102C91.5667 54.5645 91.8672 54.283 92.2431 54.0656C92.6283 53.8475 93.0581 53.7195 93.5326 53.6816C94.1373 53.6332 94.6873 53.7202 95.1827 53.9428C95.6772 54.156 96.0738 54.4894 96.3722 54.9431C96.5877 54.4764 96.9219 54.0892 97.3748 53.7814C97.837 53.4729 98.3472 53.2963 98.9054 53.2516ZM103.741 56.8394C103.678 56.0579 103.776 55.3525 104.035 54.7232C104.303 54.0931 104.689 53.5941 105.193 53.226C105.707 52.8572 106.294 52.6464 106.954 52.5935C107.531 52.5474 108.043 52.6234 108.49 52.8218C108.945 53.0194 109.318 53.2845 109.607 53.6172L109.518 52.5148L111.486 52.3573L112.105 60.0886L110.137 60.246L110.047 59.1157C109.824 59.4986 109.5 59.8289 109.072 60.1065C108.654 60.3741 108.156 60.531 107.579 60.5771C106.928 60.6292 106.319 60.5094 105.753 60.2177C105.196 59.9252 104.735 59.4892 104.37 58.9098C104.014 58.3203 103.804 57.6302 103.741 56.8394ZM109.828 56.3804C109.79 55.9059 109.664 55.5086 109.451 55.1886C109.238 54.8593 108.966 54.6189 108.635 54.4674C108.304 54.3066 107.957 54.2408 107.594 54.2698C107.231 54.2989 106.904 54.414 106.611 54.6154C106.318 54.8167 106.087 55.0973 105.92 55.4572C105.76 55.807 105.699 56.2145 105.737 56.6797C105.774 57.1449 105.9 57.5468 106.114 57.8854C106.337 58.214 106.609 58.4591 106.931 58.6206C107.262 58.7813 107.605 58.8476 107.958 58.8193C108.321 58.7902 108.654 58.6747 108.956 58.4726C109.257 58.2612 109.488 57.9806 109.647 57.6308C109.805 57.2717 109.866 56.8549 109.828 56.3804ZM118.639 51.3496L118.834 53.7918L122.114 53.5293L122.238 55.0784L118.958 55.3408L119.165 57.9226L122.863 57.6266L122.99 59.2175L117.338 59.6698L116.558 49.915L122.21 49.4627L122.337 51.0536L118.639 51.3496ZM127.82 52.6654L126.466 52.7737L126.957 58.9002L124.975 59.0587L124.485 52.9323L123.606 53.0027L123.477 51.3978L124.356 51.3274L124.325 50.9367C124.249 49.9877 124.463 49.2684 124.967 48.7786C125.471 48.2889 126.268 48.0144 127.359 47.9552L127.491 49.6019C127.015 49.6306 126.691 49.7361 126.519 49.9185C126.346 50.1008 126.277 50.4106 126.312 50.8479L126.338 51.1689L127.692 51.0605L127.82 52.6654ZM133.019 58.5414C132.275 58.601 131.592 58.4918 130.971 58.2138C130.349 57.9265 129.841 57.4943 129.449 56.9171C129.065 56.3391 128.842 55.6548 128.779 54.864C128.715 54.0732 128.832 53.3616 129.128 52.7293C129.433 52.0963 129.875 51.5928 130.453 51.2188C131.031 50.8355 131.692 50.614 132.437 50.5545C133.181 50.4949 133.869 50.6084 134.5 50.8949C135.131 51.1722 135.643 51.5994 136.035 52.1766C136.437 52.753 136.67 53.4366 136.733 54.2274C136.797 55.0183 136.671 55.7305 136.356 56.3643C136.051 56.9973 135.605 57.5059 135.018 57.8899C134.439 58.264 133.773 58.4811 133.019 58.5414ZM132.883 56.8389C133.237 56.8106 133.56 56.7004 133.854 56.5084C134.156 56.3063 134.387 56.0257 134.545 55.6666C134.704 55.3074 134.763 54.8813 134.724 54.3882C134.665 53.6533 134.424 53.106 134.002 52.7465C133.589 52.377 133.103 52.2146 132.545 52.2593C131.987 52.3039 131.533 52.5415 131.183 52.9721C130.843 53.3926 130.702 53.9704 130.76 54.7054C130.819 55.4404 131.046 55.9934 131.441 56.3644C131.844 56.7254 132.325 56.8835 132.883 56.8389ZM147.281 51.4312L147.413 53.0779L141.496 53.5514L141.364 51.9046L147.281 51.4312ZM158.163 46.5998L158.71 53.438C158.786 54.3869 158.571 55.1485 158.064 55.7228C157.557 56.2877 156.843 56.607 155.922 56.6807C154.991 56.7552 154.216 56.5457 153.596 56.0522C152.986 55.558 152.641 54.8271 152.564 53.8595L154.518 53.7032C154.561 54.1211 154.684 54.4389 154.889 54.6566C155.103 54.8736 155.391 54.9676 155.754 54.9385C156.108 54.9102 156.369 54.777 156.537 54.5388C156.705 54.3006 156.774 53.9862 156.742 53.5954L156.195 46.7573L158.163 46.5998ZM164.664 56.0092C163.92 56.0688 163.237 55.9596 162.616 55.6816C161.994 55.3943 161.486 54.9621 161.093 54.3849C160.71 53.8069 160.487 53.1226 160.424 52.3318C160.36 51.541 160.477 50.8294 160.772 50.1971C161.078 49.5641 161.52 49.0606 162.098 48.6866C162.676 48.3033 163.337 48.0818 164.082 48.0223C164.826 47.9627 165.514 48.0762 166.145 48.3627C166.776 48.64 167.288 49.0672 167.68 49.6444C168.082 50.2208 168.315 50.9045 168.378 51.6953C168.441 52.4861 168.316 53.1983 168.001 53.8321C167.696 54.4651 167.25 54.9737 166.663 55.3577C166.084 55.7318 165.418 55.9489 164.664 56.0092ZM164.528 54.3067C164.882 54.2784 165.205 54.1682 165.499 53.9762C165.801 53.7741 166.031 53.4935 166.19 53.1344C166.349 52.7753 166.408 52.3492 166.369 51.8561C166.31 51.1211 166.069 50.5738 165.647 50.2144C165.234 49.8448 164.748 49.6824 164.19 49.7271C163.632 49.7717 163.178 50.0094 162.828 50.4399C162.487 50.8605 162.346 51.4382 162.405 52.1732C162.464 52.9082 162.691 53.4612 163.086 53.8322C163.489 54.1932 163.97 54.3513 164.528 54.3067ZM171.248 44.9629L172.074 55.2899L170.121 55.4462L169.294 45.1192L171.248 44.9629ZM175.132 44.6521L175.958 54.9791L174.005 55.1354L173.178 44.8084L175.132 44.6521ZM181.332 54.6755C180.588 54.7351 179.905 54.6259 179.283 54.3479C178.661 54.0606 178.154 53.6284 177.761 53.0512C177.378 52.4732 177.154 51.7889 177.091 50.9981C177.028 50.2073 177.144 49.4957 177.44 48.8634C177.745 48.2304 178.187 47.7269 178.766 47.3529C179.344 46.9696 180.005 46.7481 180.749 46.6886C181.493 46.629 182.181 46.7425 182.813 47.029C183.443 47.3063 183.955 47.7335 184.348 48.3107C184.75 48.8871 184.982 49.5707 185.046 50.3615C185.109 51.1524 184.983 51.8646 184.669 52.4984C184.364 53.1314 183.918 53.64 183.33 54.024C182.752 54.3981 182.085 54.6152 181.332 54.6755ZM181.196 52.973C181.549 52.9447 181.873 52.8345 182.166 52.6425C182.469 52.4404 182.699 52.1598 182.857 51.8007C183.016 51.4415 183.075 51.0154 183.036 50.5224C182.977 49.7874 182.737 49.2401 182.315 48.8807C181.901 48.5111 181.415 48.3487 180.857 48.3934C180.299 48.438 179.845 48.6756 179.496 49.1062C179.155 49.5268 179.014 50.1045 179.073 50.8395C179.132 51.5745 179.358 52.1275 179.753 52.4985C180.157 52.8595 180.637 53.0176 181.196 52.973ZM189.843 47.7025L188.489 47.8108L188.979 53.9372L186.997 54.0958L186.507 47.9693L185.628 48.0397L185.5 46.4348L186.379 46.3645L186.347 45.9737C186.272 45.0248 186.486 44.3054 186.989 43.8156C187.493 43.3259 188.291 43.0514 189.381 42.9922L189.513 44.639C189.038 44.6676 188.714 44.7731 188.541 44.9555C188.369 45.1379 188.3 45.4477 188.335 45.8849L188.36 46.2059L189.714 46.0976L189.843 47.7025ZM199.948 53.0595L197.495 49.4356L196.574 49.5093L196.878 53.3051L194.924 53.4615L194.145 43.7206L197.801 43.428C198.555 43.3677 199.207 43.4513 199.759 43.6786C200.31 43.8967 200.734 44.2233 201.031 44.6583C201.337 45.0833 201.512 45.5749 201.557 46.1331C201.608 46.775 201.469 47.3714 201.138 47.9222C200.807 48.4636 200.282 48.8615 199.562 49.1157L202.209 52.8786L199.948 53.0595ZM196.457 48.044L198.09 47.9133C198.62 47.8709 199.005 47.7136 199.246 47.4416C199.485 47.1602 199.587 46.7916 199.551 46.3358C199.515 45.8892 199.357 45.5554 199.077 45.3343C198.797 45.104 198.391 45.01 197.861 45.0524L196.228 45.1831L196.457 48.044ZM204.163 44.0145C203.819 44.042 203.522 43.9581 203.272 43.7627C203.031 43.5573 202.897 43.2918 202.871 42.9662C202.845 42.6405 202.935 42.3618 203.141 42.1299C203.356 41.888 203.635 41.7533 203.98 41.7258C204.324 41.6982 204.617 41.7872 204.858 41.9926C205.107 42.188 205.245 42.4485 205.271 42.7741C205.297 43.0997 205.203 43.3835 204.988 43.6254C204.782 43.8572 204.507 43.9869 204.163 44.0145ZM205.199 44.8585L205.818 52.5898L203.864 52.7461L203.246 45.0148L205.199 44.8585ZM206.937 48.6098C206.873 47.8097 206.98 47.0989 207.258 46.4775C207.535 45.8467 207.949 45.3454 208.5 44.9736C209.05 44.5925 209.697 44.3722 210.441 44.3126C211.399 44.236 212.21 44.4146 212.872 44.8485C213.542 45.2723 214.019 45.9083 214.302 46.7564L212.195 46.9251C212.057 46.5991 211.845 46.3538 211.56 46.1893C211.284 46.0148 210.951 45.9432 210.56 45.9744C210.002 46.0191 209.576 46.2592 209.283 46.6946C208.99 47.1207 208.873 47.7059 208.932 48.4502C208.991 49.1851 209.2 49.7443 209.558 50.1276C209.916 50.5016 210.374 50.6663 210.932 50.6216C211.723 50.5583 212.211 50.1635 212.396 49.437L214.503 49.2684C214.356 50.1229 213.986 50.8219 213.393 51.3656C212.8 51.9094 212.029 52.2192 211.08 52.2951C210.336 52.3547 209.662 52.2447 209.059 51.9652C208.455 51.6765 207.967 51.2474 207.594 50.678C207.22 50.0994 207.001 49.41 206.937 48.6098ZM223.008 47.1553C223.03 47.4344 223.032 47.6871 223.012 47.9134L217.36 48.3656C217.451 48.9201 217.682 49.3418 218.051 49.6306C218.421 49.9193 218.857 50.0436 219.359 50.0034C220.085 49.9453 220.576 49.5924 220.834 48.9445L222.941 48.7758C222.777 49.538 222.398 50.1863 221.804 50.7207C221.21 51.2458 220.452 51.5452 219.531 51.6189C218.786 51.6784 218.104 51.5692 217.482 51.2913C216.869 51.0032 216.371 50.5702 215.988 49.9923C215.614 49.4136 215.395 48.7289 215.332 47.9381C215.268 47.138 215.374 46.4225 215.652 45.7917C215.929 45.1609 216.347 44.6593 216.908 44.2868C217.468 43.9142 218.129 43.6975 218.892 43.6364C219.627 43.5776 220.296 43.6833 220.898 43.9534C221.509 44.2229 221.996 44.638 222.36 45.1988C222.731 45.7496 222.947 46.4017 223.008 47.1553ZM220.94 46.759C220.89 46.2574 220.677 45.8718 220.299 45.6024C219.921 45.3237 219.476 45.2048 218.965 45.2457C218.481 45.2845 218.083 45.4661 217.772 45.7906C217.47 46.1051 217.302 46.5258 217.269 47.0527L220.94 46.759ZM235.051 46.1074L232.414 46.3184L232.63 49.0258L230.788 49.1732L230.571 46.4658L227.934 46.6769L227.798 44.9743L230.435 44.7633L230.219 42.0559L232.061 41.9085L232.277 44.6159L234.915 44.4048L235.051 46.1074ZM239.945 44.9433C239.869 43.985 240.014 43.1119 240.382 42.3241C240.758 41.5262 241.302 40.8882 242.012 40.41C242.732 39.9217 243.557 39.6403 244.487 39.5659C245.575 39.4788 246.551 39.6816 247.415 40.1743C248.278 40.667 248.912 41.3934 249.317 42.3535L247.07 42.5333C246.809 42.086 246.465 41.7624 246.037 41.5626C245.618 41.362 245.144 41.2829 244.614 41.3254C244.046 41.3708 243.55 41.5463 243.125 41.8518C242.709 42.1473 242.394 42.547 242.182 43.0509C241.978 43.554 241.903 44.1312 241.955 44.7825C242.006 45.4244 242.173 45.9823 242.454 46.456C242.744 46.9197 243.118 47.2689 243.577 47.5037C244.045 47.7285 244.562 47.8182 245.13 47.7728C245.66 47.7303 246.116 47.5768 246.497 47.3122C246.887 47.0376 247.175 46.6587 247.361 46.1757L249.608 45.9959C249.362 47.0174 248.852 47.8401 248.078 48.4638C247.313 49.0775 246.381 49.4282 245.283 49.5161C244.353 49.5905 243.494 49.4486 242.707 49.0902C241.928 48.7218 241.29 48.1783 240.793 47.4597C240.305 46.7403 240.022 45.9015 239.945 44.9433ZM255.249 40.7412C255.835 40.6943 256.367 40.7829 256.843 41.0069C257.319 41.2216 257.703 41.5701 257.994 42.0524C258.294 42.5246 258.472 43.1097 258.528 43.8074L258.891 48.3429L256.937 48.4993L256.596 44.2289C256.546 43.6149 256.355 43.1573 256.022 42.8563C255.688 42.5459 255.256 42.4119 254.726 42.4544C254.186 42.4976 253.772 42.6993 253.482 43.0595C253.201 43.4097 253.085 43.8918 253.135 44.5059L253.476 48.7762L251.523 48.9325L250.696 38.6055L252.65 38.4492L252.935 42.0078C253.159 41.6528 253.473 41.3655 253.877 41.1459C254.28 40.9171 254.737 40.7821 255.249 40.7412ZM261.047 39.4626C260.703 39.4902 260.406 39.4063 260.156 39.2109C259.915 39.0055 259.782 38.7399 259.756 38.4143C259.73 38.0887 259.82 37.81 260.026 37.5781C260.241 37.3362 260.52 37.2015 260.864 37.1739C261.209 37.1464 261.501 37.2353 261.742 37.4408C261.992 37.6361 262.13 37.8966 262.156 38.2223C262.182 38.5479 262.088 38.8316 261.873 39.0735C261.667 39.3054 261.392 39.4351 261.047 39.4626ZM262.084 40.3066L262.703 48.0379L260.749 48.1943L260.13 40.463L262.084 40.3066ZM263.821 44.058C263.757 43.2579 263.864 42.5471 264.142 41.9256C264.419 41.2948 264.833 40.7935 265.384 40.4218C265.934 40.0407 266.581 39.8204 267.326 39.7608C268.284 39.6841 269.094 39.8627 269.756 40.2966C270.427 40.7205 270.904 41.3565 271.187 42.2046L269.08 42.3732C268.941 42.0472 268.73 41.802 268.445 41.6375C268.169 41.463 267.835 41.3913 267.445 41.4226C266.886 41.4673 266.461 41.7073 266.168 42.1427C265.874 42.5688 265.757 43.154 265.817 43.8983C265.876 44.6333 266.084 45.1925 266.443 45.5758C266.8 45.9498 267.258 46.1144 267.816 46.0698C268.607 46.0065 269.095 45.6116 269.281 44.8852L271.388 44.7166C271.241 45.571 270.871 46.2701 270.278 46.8138C269.684 47.3575 268.913 47.6673 267.964 47.7433C267.22 47.8028 266.547 47.6929 265.944 47.4134C265.34 47.1246 264.852 46.6956 264.478 46.1262C264.104 45.5475 263.885 44.8581 263.821 44.058ZM277.605 46.8454L274.718 43.7619L274.982 47.0554L273.028 47.2117L272.202 36.8847L274.155 36.7284L274.626 42.6036L276.959 39.1164L279.499 38.9131L276.404 43.0652L280.145 46.6422L277.605 46.8454ZM288.042 41.9514C288.064 42.2305 288.066 42.4832 288.047 42.7094L282.395 43.1617C282.486 43.7162 282.716 44.1378 283.086 44.4266C283.455 44.7154 283.891 44.8397 284.394 44.7994C285.119 44.7414 285.611 44.3884 285.868 43.7405L287.975 43.5719C287.811 44.334 287.433 44.9823 286.839 45.5167C286.244 46.0418 285.486 46.3412 284.565 46.4149C283.821 46.4745 283.138 46.3653 282.516 46.0873C281.903 45.7993 281.405 45.3663 281.022 44.7883C280.648 44.2097 280.429 43.5249 280.366 42.7341C280.302 41.934 280.409 41.2186 280.686 40.5878C280.963 39.957 281.382 39.4553 281.942 39.0828C282.502 38.7103 283.163 38.4935 283.926 38.4324C284.661 38.3736 285.33 38.4793 285.932 38.7495C286.543 39.0189 287.031 39.434 287.394 39.9948C287.766 40.5456 287.982 41.1978 288.042 41.9514ZM285.974 41.5551C285.924 41.0534 285.711 40.6679 285.334 40.3985C284.955 40.1197 284.511 40.0008 283.999 40.0418C283.515 40.0805 283.118 40.2621 282.807 40.5866C282.504 40.9011 282.336 41.3218 282.304 41.8488L285.974 41.5551ZM293.448 37.6846C294.369 37.6109 295.136 37.8444 295.751 38.3851C296.364 38.9165 296.713 39.7032 296.796 40.7452L297.159 45.2807L295.206 45.4371L294.864 41.1667C294.815 40.5527 294.624 40.0951 294.291 39.7941C293.957 39.4837 293.525 39.3498 292.994 39.3922C292.455 39.4354 292.04 39.6371 291.751 39.9973C291.47 40.3475 291.354 40.8296 291.403 41.4437L291.745 45.714L289.791 45.8704L289.172 38.1391L291.126 37.9827L291.203 38.9457C291.437 38.5899 291.746 38.303 292.131 38.0849C292.525 37.8567 292.964 37.7233 293.448 37.6846Z" fill="#111111"/>
<path d="M29.9697 84.7185L29.8057 82.669L29.1837 82.7188L29.1428 82.2084L29.7648 82.1586L29.7125 81.5047L29.0905 81.5545L29.0497 81.0441L29.6717 80.9944L29.5141 79.0247L30.3434 78.9583L31.2586 80.8674L32.1996 80.7921L32.042 78.8224L32.672 78.772L32.8296 80.7417L33.4516 80.6919L33.4924 81.2023L32.8704 81.252L32.9227 81.906L33.5447 81.8562L33.5856 82.3665L32.9636 82.4163L33.1276 84.4658L32.2902 84.5328L31.3687 82.5439L30.4277 82.6192L30.5917 84.6687L29.9697 84.7185ZM30.3868 82.1089L31.1364 82.0489L30.8449 81.4141L30.3186 81.4562L30.3868 82.1089ZM32.4076 83.3918L32.4395 83.3892L32.3416 82.4661L32.0066 82.4929L32.4076 83.3918ZM30.2777 80.9459L30.6127 80.9191L30.1986 79.957L30.1667 79.9596L30.2777 80.9459ZM31.7744 81.9978L32.3087 81.9551L32.2404 81.3025L31.4828 81.3631L31.7744 81.9978ZM34.7134 83.0949C35.1885 82.6128 35.5609 82.2192 35.8308 81.914C36.1055 81.6031 36.3289 81.2856 36.5009 80.9615C36.673 80.6374 36.7466 80.3212 36.722 80.0129C36.6964 79.6939 36.5994 79.4502 36.4307 79.2818C36.2674 79.1129 36.0236 79.0415 35.6993 79.0674C35.3856 79.0925 35.1492 79.2131 34.9899 79.4292C34.8355 79.6395 34.7664 79.9125 34.7826 80.2483L33.9054 80.3185C33.8728 79.7112 34.0166 79.2342 34.3366 78.8876C34.6615 78.5352 35.0925 78.3375 35.6294 78.2945C36.2089 78.2482 36.6736 78.3715 37.0234 78.6645C37.3785 78.9571 37.5774 79.3693 37.6199 79.9009C37.6505 80.2837 37.5817 80.661 37.4135 81.033C37.2502 81.3992 37.0443 81.734 36.7957 82.0374C36.552 82.3352 36.2375 82.684 35.8522 83.084L35.5188 83.4317L38.0468 83.2295L38.1074 83.987L34.2318 84.2972L34.1788 83.6353L34.7134 83.0949ZM39.9414 82.821L39.1526 85.0992L38.5625 85.1464L38.9526 82.9002L39.9414 82.821ZM44.0489 78.5277L41.3775 78.7415L41.5044 80.3284C41.6042 80.1706 41.759 80.0325 41.9689 79.914C42.1841 79.7952 42.4166 79.7257 42.6665 79.7057C43.113 79.67 43.4822 79.7368 43.774 79.906C44.0711 80.0749 44.2898 80.3008 44.4301 80.5839C44.5758 80.8665 44.6616 81.1699 44.6876 81.4942C44.719 81.8876 44.67 82.2447 44.5405 82.5654C44.4159 82.8803 44.2091 83.1376 43.9201 83.3373C43.6365 83.5366 43.2766 83.6537 42.8407 83.6885C42.2612 83.7349 41.7846 83.6286 41.4107 83.3696C41.0369 83.1106 40.7964 82.7473 40.6895 82.2796L41.5746 82.2088C41.6531 82.454 41.7993 82.6429 42.0133 82.7756C42.2268 82.903 42.485 82.9546 42.7881 82.9303C43.1655 82.9001 43.4381 82.7633 43.6059 82.5198C43.779 82.2759 43.8505 81.9652 43.8203 81.5877C43.7896 81.2049 43.6705 80.9202 43.463 80.7335C43.255 80.5415 42.9649 80.4603 42.5928 80.4901C42.3323 80.511 42.117 80.5951 41.9469 80.7424C41.7816 80.8841 41.6681 81.0697 41.6062 81.2994L40.745 81.3683L40.4763 78.011L43.9851 77.7303L44.0489 78.5277ZM45.558 80.4695C45.4844 79.5498 45.5811 78.8198 45.8482 78.2794C46.1202 77.7333 46.6363 77.4298 47.3965 77.369C48.1568 77.3082 48.7119 77.5259 49.0619 78.0223C49.4169 78.5128 49.6311 79.218 49.7047 80.1377C49.7792 81.0681 49.6806 81.809 49.4091 82.3604C49.1424 82.9061 48.629 83.2093 47.8687 83.2701C47.1085 83.331 46.5507 83.1134 46.1953 82.6175C45.8449 82.1159 45.6324 81.3999 45.558 80.4695ZM48.8116 80.2092C48.7771 79.7786 48.7187 79.4167 48.6364 79.1237C48.5595 78.8302 48.4285 78.5973 48.2434 78.4248C48.058 78.247 47.7978 78.1716 47.4629 78.1984C47.128 78.2252 46.8831 78.3411 46.7283 78.5461C46.5731 78.7457 46.4781 78.9968 46.4435 79.2992C46.4141 79.6011 46.4167 79.9674 46.4511 80.3981C46.4869 80.8446 46.5434 81.2173 46.6208 81.5161C46.6983 81.8149 46.8295 82.0505 47.0145 82.2229C47.2048 82.395 47.4674 82.4676 47.8024 82.4408C48.1373 82.414 48.3824 82.3008 48.5376 82.1011C48.6982 81.901 48.7929 81.6473 48.8218 81.34C48.8507 81.0327 48.8473 80.6558 48.8116 80.2092ZM50.6667 80.0607C50.5931 79.141 50.6898 78.411 50.9569 77.8706C51.2289 77.3245 51.745 77.0211 52.5052 76.9602C53.2654 76.8994 53.8206 77.1171 54.1706 77.6135C54.5255 78.104 54.7398 78.8092 54.8134 79.7289C54.8878 80.6593 54.7893 81.4002 54.5177 81.9516C54.2511 82.4973 53.7376 82.8005 52.9774 82.8614C52.2172 82.9222 51.6594 82.7047 51.304 82.2088C50.9536 81.7071 50.7411 80.9911 50.6667 80.0607ZM53.9203 79.8004C53.8858 79.3698 53.8274 79.0079 53.7451 78.7149C53.6681 78.4214 53.5371 78.1885 53.3521 78.016C53.1667 77.8383 52.9065 77.7628 52.5716 77.7896C52.2366 77.8164 51.9918 77.9323 51.837 78.1373C51.6817 78.337 51.5868 78.588 51.5521 78.8904C51.5228 79.1924 51.5253 79.5587 51.5598 79.9893C51.5955 80.4359 51.6521 80.8085 51.7295 81.1073C51.8069 81.4061 51.9381 81.6417 52.1232 81.8142C52.3135 81.9862 52.5761 82.0588 52.911 82.032C53.246 82.0052 53.491 81.892 53.6463 81.6923C53.8068 81.4922 53.9016 81.2385 53.9305 80.9312C53.9594 80.6239 53.956 80.247 53.9203 79.8004ZM59.3116 80.7414C59.1202 80.7567 58.9412 80.7255 58.7744 80.6479C58.6126 80.5646 58.4777 80.4496 58.3697 80.3031C58.2665 80.1508 58.2073 79.979 58.192 79.7876C58.1686 79.4952 58.2498 79.2399 58.4357 79.0218C58.6215 78.8036 58.858 78.683 59.1451 78.66C59.4428 78.6362 59.7007 78.7172 59.9189 78.9031C60.1371 79.0889 60.2579 79.328 60.2813 79.6204C60.3047 79.9128 60.2235 80.1681 60.0376 80.3863C59.8513 80.5992 59.6093 80.7175 59.3116 80.7414ZM67.5244 77.7969C67.5469 78.0787 67.5017 78.3498 67.3888 78.6103C67.2759 78.8708 67.0796 79.0925 66.8 79.2754C66.5199 79.453 66.1513 79.56 65.6941 79.5966L64.6893 79.677L64.8692 81.9258L63.9601 81.9986L63.5167 76.4563L65.4305 76.3032C65.8558 76.2691 66.2207 76.3148 66.525 76.4403C66.8342 76.56 67.0705 76.7391 67.2341 76.9774C67.4029 77.2154 67.4997 77.4886 67.5244 77.7969ZM65.6347 78.855C65.9803 78.8273 66.232 78.7296 66.3898 78.5618C66.5471 78.3887 66.6143 78.1586 66.5913 77.8716C66.5428 77.2655 66.1757 76.9899 65.4899 77.0448L64.4851 77.1252L64.6299 78.9354L65.6347 78.855ZM68.2224 79.4264C68.1871 78.9852 68.2462 78.5872 68.3997 78.2325C68.5585 77.8773 68.7874 77.5942 69.0861 77.383C69.3898 77.1661 69.733 77.0423 70.1158 77.0117C70.4614 76.984 70.7673 77.0291 71.0335 77.1469C71.3046 77.259 71.5254 77.4099 71.6957 77.5995L71.6447 76.9616L72.5617 76.8882L72.9133 81.2822L71.9963 81.3555L71.9439 80.7016C71.8064 80.9213 71.6102 81.1109 71.3554 81.2704C71.1007 81.4299 70.8032 81.5232 70.4629 81.5505C70.0855 81.5807 69.7322 81.5126 69.4033 81.3463C69.0739 81.1747 68.8023 80.9236 68.5886 80.5929C68.3797 80.2565 68.2577 79.8677 68.2224 79.4264ZM71.8201 79.1546C71.7959 78.8515 71.711 78.5935 71.5656 78.3804C71.4254 78.1669 71.2497 78.0098 71.0383 77.909C70.8269 77.8082 70.6043 77.7671 70.3704 77.7859C70.1364 77.8046 69.9231 77.8805 69.7305 78.0136C69.5374 78.1414 69.386 78.3221 69.2763 78.5556C69.1714 78.7833 69.1311 79.0487 69.1554 79.3518C69.1796 79.6548 69.262 79.9157 69.4026 80.1345C69.5485 80.3529 69.7273 80.5152 69.9391 80.6213C70.1558 80.7217 70.3785 80.7627 70.6071 80.7444C70.841 80.7257 71.0543 80.6498 71.247 80.5166C71.4396 80.3835 71.5882 80.2004 71.6926 79.9673C71.8019 79.7285 71.8444 79.4576 71.8201 79.1546ZM74.1717 76.1735C74.0069 76.1867 73.8642 76.1419 73.7437 76.0392C73.6231 75.9365 73.5562 75.8028 73.543 75.638C73.5298 75.4731 73.5746 75.3305 73.6773 75.2099C73.78 75.0893 73.9138 75.0224 74.0786 75.0092C74.2381 74.9965 74.3781 75.0414 74.4987 75.1442C74.6192 75.2469 74.6861 75.3806 74.6993 75.5454C74.7125 75.7102 74.6677 75.8529 74.565 75.9735C74.4623 76.0941 74.3312 76.1607 74.1717 76.1735ZM74.6649 76.7199L75.0165 81.1139L74.1074 81.1866L73.7558 76.7927L74.6649 76.7199ZM75.7296 78.8257C75.6943 78.3844 75.7534 77.9865 75.907 77.6317C76.0658 77.2766 76.2946 76.9935 76.5934 76.7823C76.897 76.5654 77.2429 76.4414 77.631 76.4103C77.9181 76.3874 78.205 76.4286 78.4916 76.5341C78.7832 76.6338 79.0197 76.7808 79.2011 76.9749L79.0313 74.8537L79.9484 74.7803L80.4206 80.6814L79.5035 80.7548L79.4506 80.0929C79.3187 80.3175 79.1254 80.5095 78.8707 80.669C78.6212 80.8281 78.3264 80.9212 77.9861 80.9485C77.6034 80.9791 77.2448 80.9115 76.9105 80.7456C76.5811 80.574 76.3096 80.3229 76.0958 79.9922C75.887 79.6558 75.7649 79.267 75.7296 78.8257ZM79.3274 78.5539C79.3032 78.2508 79.2183 77.9928 79.0728 77.7797C78.9327 77.5662 78.7569 77.409 78.5456 77.3083C78.3342 77.2075 78.1115 77.1664 77.8776 77.1851C77.6437 77.2039 77.4304 77.2798 77.2377 77.4129C77.0446 77.5407 76.8932 77.7214 76.7835 77.9549C76.6787 78.1826 76.6384 78.448 76.6626 78.751C76.6869 79.0541 76.7693 79.315 76.9099 79.5338C77.0557 79.7522 77.2346 79.9145 77.4464 80.0206C77.6631 80.1209 77.8857 80.162 78.1143 80.1437C78.3483 80.125 78.5616 80.049 78.7542 79.9159C78.9469 79.7828 79.0954 79.5997 79.1998 79.3666C79.3091 79.1278 79.3516 78.8569 79.3274 78.5539ZM85.3196 79.4708L86.2771 75.7907L87.2421 75.7135L85.919 80.2415L84.8345 80.3282L82.8162 76.0677L83.7891 75.9898L85.3196 79.4708ZM88.3452 75.0394C88.1804 75.0526 88.0377 75.0078 87.9171 74.9051C87.7965 74.8024 87.7296 74.6686 87.7165 74.5038C87.7033 74.339 87.748 74.1963 87.8507 74.0757C87.9534 73.9552 88.0872 73.8883 88.252 73.8751C88.4115 73.8623 88.5515 73.9073 88.6721 74.01C88.7927 74.1127 88.8596 74.2465 88.8728 74.4113C88.8859 74.5761 88.8412 74.7188 88.7385 74.8394C88.6358 74.9599 88.5047 75.0266 88.3452 75.0394ZM88.8383 75.5858L89.1899 79.9797L88.2808 80.0525L87.9292 75.6585L88.8383 75.5858ZM89.9031 77.6916C89.8678 77.2503 89.9269 76.8523 90.0804 76.4976C90.2392 76.1425 90.4681 75.8593 90.7668 75.6481C91.0705 75.4312 91.4137 75.3075 91.7965 75.2768C92.1421 75.2492 92.448 75.2943 92.7142 75.4121C92.9853 75.5241 93.2061 75.675 93.3764 75.8647L93.3254 75.2267L94.2424 75.1533L94.594 79.5473L93.677 79.6207L93.6246 78.9668C93.4871 79.1864 93.2909 79.376 93.0361 79.5355C92.7814 79.695 92.4839 79.7884 92.1436 79.8156C91.7662 79.8458 91.4129 79.7778 91.084 79.6115C90.7546 79.4399 90.483 79.1887 90.2693 78.8581C90.0604 78.5216 89.9384 78.1328 89.9031 77.6916ZM93.5008 77.4197C93.4766 77.1167 93.3917 76.8586 93.2463 76.6456C93.1061 76.4321 92.9304 76.2749 92.719 76.1741C92.5076 76.0733 92.285 76.0323 92.0511 76.051C91.8171 76.0697 91.6038 76.1456 91.4112 76.2788C91.2181 76.4066 91.0667 76.5872 90.957 76.8207C90.8521 77.0485 90.8118 77.3139 90.8361 77.6169C90.8603 77.9199 90.9427 78.1809 91.0833 78.3997C91.2292 78.6181 91.408 78.7803 91.6198 78.8864C91.8365 78.9868 92.0592 79.0278 92.2878 79.0095C92.5217 78.9908 92.735 78.9149 92.9277 78.7818C93.1203 78.6486 93.2689 78.4656 93.3733 78.2325C93.4826 77.9937 93.5251 77.7227 93.5008 77.4197ZM99.6902 79.1957C99.3181 79.2255 98.978 79.1885 98.6701 79.0847C98.3618 78.9756 98.113 78.8083 97.9237 78.5826C97.7344 78.357 97.627 78.0847 97.6015 77.7657L98.5744 77.6879C98.6148 77.9254 98.7236 78.1147 98.9007 78.2557C99.0832 78.3962 99.3259 78.4544 99.629 78.4301C99.9426 78.405 100.181 78.311 100.345 78.1481C100.508 77.9799 100.58 77.7762 100.561 77.537C100.546 77.3509 100.478 77.2038 100.357 77.0958C100.241 76.9874 100.098 76.9078 99.9285 76.8572C99.7639 76.8062 99.535 76.755 99.242 76.7035C98.8728 76.6367 98.5701 76.5646 98.3339 76.4872C98.1025 76.4041 97.8988 76.2652 97.7227 76.0707C97.5466 75.8761 97.4447 75.606 97.4171 75.2605C97.3916 74.9415 97.449 74.656 97.5893 74.404C97.7297 74.152 97.9383 73.9507 98.2152 73.8002C98.492 73.6496 98.8192 73.5592 99.1967 73.529C99.7336 73.486 100.183 73.5865 100.545 73.8304C100.912 74.0686 101.133 74.4201 101.207 74.8849L100.202 74.9654C100.17 74.7646 100.061 74.5995 99.8739 74.47C99.6869 74.3405 99.4499 74.2872 99.1629 74.3102C98.9024 74.331 98.695 74.4145 98.5409 74.5606C98.3867 74.7067 98.3196 74.9047 98.3396 75.1545C98.3532 75.3247 98.415 75.4615 98.5249 75.5651C98.6398 75.6629 98.7795 75.7373 98.9441 75.7883C99.1087 75.8394 99.3322 75.891 99.6146 75.9434C99.9895 76.015 100.295 76.0922 100.532 76.1749C100.774 76.2572 100.983 76.3983 101.16 76.5982C101.341 76.7923 101.446 77.0649 101.474 77.4157C101.496 77.6975 101.441 77.9695 101.306 78.2317C101.178 78.4935 100.973 78.7131 100.693 78.8907C100.418 79.0626 100.084 79.1642 99.6902 79.1957ZM103.441 75.1637L103.635 77.5959C103.649 77.7607 103.695 77.8774 103.776 77.9458C103.861 78.0086 103.997 78.0325 104.183 78.0176L104.741 77.9729L104.802 78.7305L104.084 78.7879C103.674 78.8207 103.353 78.7501 103.12 78.5762C102.887 78.4022 102.753 78.0999 102.718 77.6693L102.524 75.2371L102.005 75.2785L101.946 74.5369L102.464 74.4954L102.377 73.4029L103.294 73.3295L103.381 74.4221L104.45 74.3366L104.509 75.0782L103.441 75.1637ZM109.482 76.0366C109.495 76.2014 109.497 76.3511 109.486 76.4857L106.129 76.7543C106.183 77.1031 106.336 77.3744 106.587 77.5684C106.838 77.7623 107.134 77.8457 107.474 77.8184C107.963 77.7793 108.292 77.547 108.461 77.1215L109.442 77.043C109.342 77.4576 109.126 77.8093 108.796 78.0978C108.471 78.3807 108.051 78.5427 107.535 78.584C107.115 78.6176 106.73 78.5548 106.38 78.3955C106.035 78.2305 105.754 77.9855 105.535 77.6606C105.321 77.3299 105.196 76.9386 105.16 76.4867C105.124 76.0349 105.183 75.6316 105.336 75.2768C105.495 74.9164 105.731 74.6299 106.046 74.4175C106.366 74.2046 106.741 74.081 107.172 74.0465C107.587 74.0133 107.963 74.0741 108.302 74.2289C108.641 74.3837 108.914 74.6187 109.121 74.9339C109.328 75.2437 109.448 75.6113 109.482 76.0366ZM108.51 75.8254C108.478 75.4909 108.337 75.232 108.087 75.0487C107.837 74.8654 107.539 74.7876 107.193 74.8152C106.88 74.8403 106.619 74.9628 106.412 75.1827C106.205 75.3973 106.093 75.6764 106.078 76.0201L108.51 75.8254ZM110.998 72.2957L111.47 78.1969L110.561 78.2696L110.089 72.3685L110.998 72.2957ZM113.101 72.1275L113.573 78.0286L112.664 78.1014L112.192 72.2002L113.101 72.1275ZM114.286 75.7405C114.251 75.2992 114.31 74.9012 114.463 74.5465C114.622 74.1914 114.851 73.9082 115.15 73.697C115.453 73.4801 115.797 73.3564 116.179 73.3257C116.525 73.2981 116.831 73.3432 117.097 73.461C117.368 73.573 117.589 73.7239 117.759 73.9136L117.708 73.2756L118.625 73.2022L118.977 77.5962L118.06 77.6696L118.008 77.0157C117.87 77.2353 117.674 77.4249 117.419 77.5844C117.164 77.7439 116.867 77.8373 116.527 77.8645C116.149 77.8947 115.796 77.8267 115.467 77.6604C115.138 77.4888 114.866 77.2376 114.652 76.907C114.443 76.5705 114.321 76.1817 114.286 75.7405ZM117.884 75.4686C117.86 75.1656 117.775 74.9075 117.629 74.6945C117.489 74.481 117.313 74.3238 117.102 74.223C116.891 74.1222 116.668 74.0812 116.434 74.0999C116.2 74.1186 115.987 74.1945 115.794 74.3277C115.601 74.4555 115.45 74.6361 115.34 74.8696C115.235 75.0974 115.195 75.3628 115.219 75.6658C115.243 75.9688 115.326 76.2298 115.466 76.4486C115.612 76.667 115.791 76.8292 116.003 76.9353C116.22 77.0357 116.442 77.0767 116.671 77.0584C116.905 77.0397 117.118 76.9638 117.311 76.8307C117.503 76.6976 117.652 76.5145 117.756 76.2814C117.866 76.0426 117.908 75.7716 117.884 75.4686ZM120.78 73.6719C120.895 73.438 121.056 73.2512 121.264 73.1115C121.478 72.966 121.736 72.8811 122.039 72.8569L122.114 73.7979L121.883 73.8164C121.526 73.8449 121.263 73.957 121.091 74.1526C120.925 74.3478 120.859 74.6687 120.895 75.1153L121.08 77.4279L120.171 77.5007L119.819 73.1067L120.729 73.034L120.78 73.6719ZM127.431 78.4124C126.87 77.9544 126.418 77.3512 126.075 76.6029C125.737 75.8541 125.532 75.0385 125.462 74.156C125.389 73.2522 125.47 72.387 125.703 71.5605C125.942 70.7334 126.333 70.036 126.876 69.4682L127.817 69.3929L127.824 69.4807C127.258 70.0931 126.852 70.8051 126.607 71.6166C126.361 72.4281 126.272 73.2511 126.339 74.0858C126.403 74.8886 126.609 75.6533 126.956 76.3799C127.303 77.1065 127.773 77.7297 128.365 78.2494L128.372 78.3372L127.431 78.4124ZM128.742 72.4088C128.735 71.9118 128.892 71.5113 129.216 71.2072C129.545 70.9026 129.98 70.7287 130.522 70.6853C130.895 70.6555 131.221 70.6962 131.503 70.8074C131.785 70.9186 132.004 71.083 132.161 71.3006C132.317 71.5181 132.407 71.7704 132.43 72.0575C132.456 72.3871 132.391 72.6759 132.234 72.9239C132.078 73.1718 131.88 73.3454 131.642 73.4448L131.645 73.4767C131.966 73.5473 132.225 73.7031 132.42 73.9443C132.616 74.1801 132.729 74.4947 132.761 74.8881C132.786 75.2018 132.736 75.4866 132.612 75.7427C132.488 75.9987 132.291 76.2098 132.021 76.3759C131.75 76.5366 131.418 76.6328 131.025 76.6642C130.451 76.7102 129.966 76.6019 129.57 76.3392C129.18 76.0709 128.949 75.6613 128.878 75.1105L129.755 75.0403C129.799 75.3204 129.927 75.5429 130.138 75.708C130.349 75.8677 130.621 75.9341 130.956 75.9073C131.281 75.8814 131.523 75.7736 131.685 75.5842C131.846 75.3894 131.915 75.1511 131.892 74.8693C131.863 74.4972 131.722 74.2436 131.47 74.1086C131.224 73.9678 130.856 73.917 130.367 73.9561L130.159 73.9727L130.099 73.2231L130.315 73.2059C130.745 73.1661 131.066 73.0682 131.278 72.9121C131.496 72.7556 131.593 72.5284 131.569 72.2307C131.549 71.9755 131.45 71.7801 131.273 71.6444C131.096 71.5035 130.856 71.4451 130.553 71.4693C130.255 71.4932 130.03 71.5887 129.878 71.7561C129.725 71.9182 129.641 72.1121 129.627 72.3379L128.742 72.4088ZM137.075 72.8576L137.136 73.6231L133.858 73.8854L133.797 73.1198L137.075 72.8576ZM140.228 75.9679C139.883 75.9956 139.567 75.9593 139.281 75.8592C138.999 75.7533 138.77 75.6004 138.594 75.4005C138.417 75.1953 138.313 74.9602 138.281 74.6952L139.222 74.6199C139.252 74.8047 139.353 74.9545 139.522 75.0694C139.697 75.1785 139.907 75.2232 140.151 75.2036C140.406 75.1832 140.599 75.1196 140.73 75.0129C140.865 74.9004 140.927 74.7671 140.914 74.6129C140.901 74.4481 140.812 74.3322 140.646 74.2652C140.485 74.1978 140.231 74.1299 139.883 74.0614C139.546 73.9974 139.271 73.9311 139.057 73.8627C138.843 73.7942 138.651 73.6784 138.483 73.5153C138.32 73.3518 138.227 73.1265 138.204 72.8394C138.186 72.6055 138.238 72.3873 138.361 72.1848C138.483 71.9771 138.668 71.8072 138.914 71.6751C139.165 71.5426 139.459 71.463 139.794 71.4362C140.293 71.3962 140.705 71.4917 141.028 71.7226C141.357 71.9478 141.549 72.2775 141.605 72.7117L140.696 72.7845C140.664 72.5891 140.572 72.4386 140.419 72.3331C140.266 72.2277 140.067 72.1847 139.823 72.2043C139.584 72.2234 139.404 72.2833 139.283 72.3839C139.163 72.4845 139.109 72.6092 139.121 72.758C139.13 72.875 139.181 72.9699 139.272 73.0429C139.363 73.1158 139.472 73.1713 139.598 73.2094C139.724 73.2421 139.909 73.2835 140.154 73.3335C140.48 73.393 140.747 73.4599 140.957 73.5341C141.171 73.6026 141.359 73.7159 141.521 73.8741C141.684 74.0323 141.779 74.2521 141.807 74.5334C141.827 74.7833 141.776 75.0121 141.653 75.2199C141.531 75.4277 141.346 75.5976 141.1 75.7296C140.859 75.8613 140.569 75.9407 140.228 75.9679ZM146.73 73.056C146.743 73.2208 146.745 73.3705 146.734 73.5052L143.377 73.7738C143.431 74.1226 143.584 74.3939 143.835 74.5878C144.086 74.7818 144.382 74.8651 144.722 74.8379C145.211 74.7988 145.54 74.5664 145.71 74.1409L146.69 74.0624C146.59 74.4771 146.375 74.8287 146.044 75.1173C145.719 75.4001 145.299 75.5622 144.783 75.6034C144.363 75.6371 143.978 75.5742 143.629 75.415C143.284 75.2499 143.002 75.005 142.783 74.68C142.569 74.3494 142.445 73.9581 142.408 73.5062C142.372 73.0543 142.431 72.651 142.584 72.2963C142.743 71.9358 142.979 71.6494 143.294 71.4369C143.614 71.2241 143.99 71.1004 144.42 71.066C144.835 71.0328 145.212 71.0936 145.55 71.2484C145.889 71.4032 146.162 71.6382 146.369 71.9533C146.576 72.2632 146.696 72.6307 146.73 73.056ZM145.758 72.8449C145.726 72.5104 145.585 72.2515 145.335 72.0682C145.085 71.8849 144.787 71.807 144.442 71.8347C144.128 71.8598 143.867 71.9823 143.66 72.2022C143.453 72.4167 143.341 72.6959 143.326 73.0395L145.758 72.8449ZM147.33 73.1124C147.294 72.6605 147.353 72.2572 147.506 71.9025C147.665 71.542 147.899 71.2558 148.208 71.0438C148.517 70.8317 148.882 70.7089 149.302 70.6753C149.834 70.6328 150.282 70.7253 150.648 70.9528C151.019 71.1746 151.285 71.5145 151.444 71.9726L150.463 72.0511C150.366 71.8395 150.225 71.6795 150.04 71.5713C149.855 71.4631 149.629 71.4196 149.363 71.4409C148.991 71.4706 148.704 71.6274 148.502 71.9111C148.305 72.189 148.225 72.5645 148.263 73.0377C148.301 73.5109 148.44 73.8716 148.679 74.12C148.923 74.3679 149.232 74.477 149.604 74.4473C150.13 74.4051 150.46 74.146 150.593 73.6699L151.574 73.5914C151.482 74.0482 151.271 74.4235 150.942 74.7174C150.612 75.006 150.186 75.1711 149.665 75.2128C149.245 75.2464 148.866 75.1832 148.526 75.023C148.187 74.8576 147.91 74.6122 147.697 74.2868C147.489 73.9557 147.366 73.5642 147.33 73.1124ZM154.183 72.564C154.147 72.1121 154.206 71.7088 154.359 71.3541C154.518 70.9936 154.752 70.7074 155.061 70.4954C155.37 70.2834 155.735 70.1605 156.155 70.1269C156.687 70.0844 157.136 70.1769 157.502 70.4044C157.872 70.6262 158.138 70.9661 158.297 71.4242L157.317 71.5027C157.219 71.2911 157.078 71.1312 156.893 71.0229C156.708 70.9147 156.482 70.8712 156.216 70.8925C155.844 70.9223 155.557 71.079 155.355 71.3627C155.158 71.6406 155.078 72.0162 155.116 72.4893C155.154 72.9625 155.293 73.3232 155.532 73.5716C155.776 73.8196 156.085 73.9287 156.457 73.8989C156.983 73.8568 157.313 73.5976 157.446 73.1215L158.427 73.043C158.335 73.4998 158.124 73.8751 157.795 74.169C157.465 74.4576 157.039 74.6227 156.518 74.6644C156.098 74.698 155.719 74.6348 155.379 74.4747C155.04 74.3092 154.763 74.0638 154.55 73.7385C154.342 73.4074 154.219 73.0159 154.183 72.564ZM161.356 74.2773C160.941 74.3105 160.559 74.2475 160.209 74.0882C159.859 73.9236 159.574 73.6789 159.356 73.3539C159.137 73.0237 159.009 72.6326 158.973 72.1807C158.937 71.7342 159.004 71.3302 159.173 70.9689C159.342 70.6076 159.589 70.3203 159.914 70.107C160.24 69.8937 160.612 69.7703 161.032 69.7367C161.452 69.7031 161.84 69.7657 162.195 69.9245C162.55 70.0834 162.84 70.3277 163.064 70.6575C163.289 70.9873 163.419 71.3755 163.454 71.8221C163.49 72.2687 163.421 72.6728 163.247 73.0346C163.072 73.3963 162.817 73.6869 162.482 73.9063C162.151 74.1201 161.776 74.2437 161.356 74.2773ZM161.292 73.4879C161.526 73.4692 161.74 73.3959 161.933 73.2681C162.131 73.1398 162.285 72.959 162.395 72.7255C162.505 72.492 162.547 72.2157 162.521 71.8968C162.496 71.5778 162.413 71.3142 162.274 71.106C162.133 70.8925 161.958 70.738 161.747 70.6426C161.536 70.5471 161.314 70.5087 161.08 70.5274C160.846 70.5461 160.632 70.6194 160.439 70.7472C160.251 70.8746 160.108 71.0546 160.009 71.2872C159.909 71.5146 159.872 71.7877 159.898 72.1067C159.936 72.5799 160.085 72.9371 160.345 73.1785C160.61 73.4141 160.926 73.5172 161.292 73.4879ZM166.389 69.308C166.734 69.2804 167.049 69.3275 167.331 69.4493C167.619 69.5708 167.851 69.7662 168.028 70.0356C168.205 70.305 168.309 70.6391 168.341 71.0378L168.548 73.6296L167.647 73.7017L167.451 71.2455C167.419 70.8521 167.297 70.5596 167.084 70.368C166.87 70.1711 166.593 70.0862 166.253 70.1135C165.912 70.1407 165.65 70.2687 165.465 70.4975C165.285 70.7206 165.21 71.0289 165.242 71.4223L165.438 73.8784L164.529 73.9512L164.178 69.5572L165.087 69.4845L165.127 69.9869C165.261 69.7942 165.439 69.6382 165.659 69.5189C165.885 69.3992 166.128 69.3289 166.389 69.308ZM171.258 69.737L170.445 69.8021L170.737 73.4544L169.82 73.5278L169.527 69.8755L169.009 69.917L168.95 69.1754L169.468 69.1339L169.443 68.8229C169.403 68.3178 169.506 67.9404 169.754 67.6905C170.006 67.4349 170.42 67.2841 170.994 67.2381L171.054 67.9957C170.778 68.0178 170.588 68.0865 170.485 68.2018C170.381 68.3117 170.34 68.4943 170.36 68.7495L170.385 69.0605L171.199 68.9954L171.258 69.737ZM172.42 68.3118C172.255 68.325 172.113 68.2802 171.992 68.1775C171.872 68.0748 171.805 67.941 171.791 67.7762C171.778 67.6114 171.823 67.4687 171.926 67.3482C172.028 67.2276 172.162 67.1607 172.327 67.1475C172.487 67.1347 172.627 67.1797 172.747 67.2824C172.868 67.3851 172.935 67.5189 172.948 67.6837C172.961 67.8485 172.916 67.9912 172.813 68.1118C172.711 68.2324 172.58 68.299 172.42 68.3118ZM172.913 68.8582L173.265 73.2521L172.356 73.3249L172.004 68.9309L172.913 68.8582ZM175.067 69.3279C175.182 69.094 175.344 68.9072 175.552 68.7674C175.765 68.622 176.023 68.5371 176.326 68.5129L176.401 69.4539L176.17 69.4724C175.814 69.5009 175.55 69.613 175.378 69.8086C175.212 70.0038 175.147 70.3247 175.183 70.7713L175.368 73.0839L174.459 73.1566L174.107 68.7627L175.016 68.6899L175.067 69.3279ZM182.481 68.0204C182.826 67.9927 183.14 68.0398 183.423 68.1617C183.711 68.2831 183.943 68.4785 184.12 68.748C184.302 69.017 184.409 69.3508 184.441 69.7496L184.648 72.3413L183.747 72.4134L183.551 69.9572C183.519 69.5638 183.397 69.2713 183.183 69.0797C182.97 68.8828 182.693 68.798 182.352 68.8252C182.012 68.8524 181.75 68.9804 181.565 69.2093C181.384 69.4323 181.31 69.7406 181.342 70.134L181.538 72.5901L180.637 72.6622L180.441 70.2061C180.409 69.8127 180.287 69.5202 180.073 69.3286C179.86 69.1317 179.583 69.0468 179.242 69.074C178.902 69.1013 178.64 69.2293 178.455 69.4581C178.274 69.6812 178.2 69.9894 178.232 70.3828L178.428 72.839L177.519 72.9117L177.167 68.5178L178.077 68.445L178.117 68.9474C178.251 68.7548 178.429 68.5988 178.649 68.4795C178.87 68.3602 179.11 68.2901 179.371 68.2693C179.722 68.2412 180.041 68.2905 180.329 68.4172C180.618 68.544 180.848 68.7423 181.019 69.0121C181.131 68.7357 181.321 68.5091 181.591 68.3324C181.86 68.1503 182.156 68.0463 182.481 68.0204ZM185.325 70.056C185.289 69.6148 185.348 69.2168 185.502 68.8621C185.661 68.507 185.89 68.2238 186.188 68.0126C186.492 67.7957 186.835 67.6719 187.218 67.6413C187.564 67.6137 187.87 67.6587 188.136 67.7765C188.407 67.8886 188.628 68.0395 188.798 68.2292L188.747 67.5912L189.664 67.5178L190.016 71.9118L189.099 71.9852L189.046 71.3313C188.909 71.5509 188.712 71.7405 188.458 71.9C188.203 72.0595 187.905 72.1529 187.565 72.1801C187.188 72.2103 186.835 72.1423 186.506 71.976C186.176 71.8044 185.905 71.5532 185.691 71.2225C185.482 70.8861 185.36 70.4973 185.325 70.056ZM188.922 69.7842C188.898 69.4812 188.813 69.2231 188.668 69.01C188.528 68.7965 188.352 68.6394 188.141 68.5386C187.929 68.4378 187.707 68.3968 187.473 68.4155C187.239 68.4342 187.025 68.5101 186.833 68.6432C186.64 68.7711 186.488 68.9517 186.379 69.1852C186.274 69.413 186.233 69.6783 186.258 69.9814C186.282 70.2844 186.364 70.5453 186.505 70.7642C186.651 70.9825 186.83 71.1448 187.041 71.2509C187.258 71.3513 187.481 71.3923 187.709 71.374C187.943 71.3553 188.157 71.2794 188.349 71.1463C188.542 71.0131 188.69 70.83 188.795 70.597C188.904 70.3582 188.947 70.0872 188.922 69.7842ZM191.978 68.079L192.173 70.5113C192.186 70.6761 192.233 70.7927 192.313 70.8612C192.398 70.9239 192.534 70.9478 192.72 70.9329L193.278 70.8883L193.339 71.6459L192.621 71.7033C192.212 71.736 191.89 71.6655 191.657 71.4915C191.424 71.3176 191.29 71.0153 191.256 70.5846L191.061 68.1524L190.543 68.1939L190.483 67.4523L191.002 67.4108L190.914 66.3183L191.831 66.2449L191.919 67.3374L192.987 67.2519L193.047 67.9935L191.978 68.079ZM194.241 66.5657C194.076 66.5789 193.934 66.5341 193.813 66.4314C193.692 66.3287 193.626 66.195 193.612 66.0302C193.599 65.8653 193.644 65.7227 193.747 65.6021C193.849 65.4815 193.983 65.4146 194.148 65.4014C194.307 65.3887 194.447 65.4336 194.568 65.5364C194.689 65.6391 194.755 65.7728 194.769 65.9376C194.782 66.1024 194.737 66.2451 194.634 66.3657C194.532 66.4863 194.401 66.5529 194.241 66.5657ZM194.734 67.1121L195.086 71.5061L194.177 71.5788L193.825 67.1849L194.734 67.1121ZM198.191 71.3298C197.776 71.363 197.394 71.3 197.044 71.1407C196.694 70.9761 196.41 70.7313 196.191 70.4064C195.972 70.0762 195.844 69.6851 195.808 69.2332C195.772 68.7866 195.839 68.3827 196.008 68.0214C196.177 67.6601 196.424 67.3728 196.75 67.1595C197.075 66.9462 197.448 66.8227 197.868 66.7891C198.288 66.7555 198.675 66.8181 199.031 66.977C199.386 67.1358 199.675 67.3802 199.9 67.71C200.124 68.0398 200.254 68.428 200.29 68.8746C200.326 69.3212 200.256 69.7253 200.082 70.087C199.908 70.4488 199.653 70.7394 199.317 70.9588C198.986 71.1726 198.611 71.2962 198.191 71.3298ZM198.128 70.5403C198.362 70.5216 198.575 70.4484 198.768 70.3206C198.967 70.1923 199.121 70.0115 199.231 69.778C199.34 69.5445 199.382 69.2682 199.357 68.9492C199.331 68.6303 199.249 68.3667 199.109 68.1585C198.969 67.945 198.793 67.7905 198.582 67.695C198.371 67.5996 198.149 67.5612 197.915 67.5799C197.681 67.5986 197.468 67.6719 197.275 67.7997C197.087 67.9271 196.943 68.1071 196.844 68.3397C196.745 68.5671 196.708 68.8402 196.733 69.1592C196.771 69.6323 196.92 69.9896 197.18 70.231C197.445 70.4666 197.761 70.5697 198.128 70.5403ZM203.224 66.3605C203.57 66.3329 203.884 66.38 204.167 66.5018C204.454 66.6232 204.687 66.8187 204.864 67.0881C205.04 67.3575 205.145 67.6916 205.176 68.0903L205.384 70.682L204.483 70.7541L204.286 68.298C204.255 67.9046 204.132 67.6121 203.919 67.4205C203.705 67.2236 203.428 67.1387 203.088 67.1659C202.748 67.1932 202.485 67.3212 202.3 67.55C202.12 67.7731 202.046 68.0813 202.077 68.4747L202.274 70.9309L201.365 71.0036L201.013 66.6097L201.922 66.5369L201.962 67.0393C202.097 66.8467 202.274 66.6907 202.495 66.5714C202.721 66.4517 202.964 66.3814 203.224 66.3605ZM206.439 72.0904L206.432 72.0026C206.934 71.3953 207.299 70.7053 207.526 69.9328C207.753 69.1602 207.835 68.3725 207.771 67.5697C207.704 66.7351 207.485 65.9367 207.113 65.1745C206.742 64.4124 206.228 63.774 205.572 63.2594L205.565 63.1717L206.506 63.0964C207.132 63.5706 207.626 64.1972 207.988 64.9761C208.356 65.7546 208.575 66.5958 208.648 67.4996C208.718 68.3821 208.644 69.22 208.424 70.0134C208.209 70.8064 207.861 71.4736 207.38 72.0151L206.439 72.0904Z" fill="#888888"/>
</svg>
