<svg width="191" height="107" viewBox="0 0 191 107" fill="none" xmlns="http://www.w3.org/2000/svg">
<rect x="15.6529" width="180" height="64" rx="8" transform="rotate(14.1568 15.6529 0)" fill="#B8FADB"/>
<path d="M39.0944 23.5443C39.0253 23.8184 38.8954 24.0606 38.7048 24.2711C38.5142 24.4815 38.2572 24.6285 37.9336 24.7119C37.6114 24.7901 37.2279 24.7731 36.7831 24.6609L35.8057 24.4144L35.254 26.6019L34.3697 26.3788L35.7295 20.9877L37.5912 21.4573C38.0049 21.5616 38.3357 21.7221 38.5836 21.9386C38.838 22.1513 39.0044 22.3968 39.0827 22.675C39.1662 22.9546 39.1701 23.2444 39.0944 23.5443ZM36.9651 23.9395C37.3012 24.0243 37.571 24.0126 37.7743 23.9044C37.9789 23.791 38.1164 23.5946 38.1869 23.3154C38.3356 22.7258 38.0764 22.3469 37.4092 22.1787L36.4319 21.9321L35.9877 23.693L36.9651 23.9395ZM39.2322 25.3117C39.3404 24.8824 39.5242 24.5245 39.7835 24.2379C40.048 23.9526 40.3556 23.7579 40.7064 23.6539C41.0636 23.546 41.4284 23.539 41.8008 23.6329C42.1369 23.7177 42.4121 23.8586 42.6264 24.0557C42.8472 24.2489 43.0078 24.4626 43.1082 24.697L43.2647 24.0764L44.1568 24.3014L43.0787 28.5756L42.1867 28.3506L42.3471 27.7145C42.1463 27.8783 41.8996 27.9949 41.6071 28.0641C41.3146 28.1333 41.0029 28.1262 40.6719 28.0427C40.3048 27.9501 39.9921 27.7723 39.734 27.5091C39.4771 27.2408 39.3006 26.9158 39.2044 26.534C39.1146 26.1483 39.1239 25.7409 39.2322 25.3117ZM42.7267 26.2096C42.801 25.9148 42.8035 25.6432 42.7342 25.3947C42.6701 25.1475 42.5541 24.9422 42.3863 24.7789C42.2184 24.6156 42.0208 24.5052 41.7932 24.4478C41.5657 24.3904 41.3393 24.3938 41.1141 24.458C40.8902 24.517 40.6888 24.6395 40.5099 24.8254C40.3375 25.0074 40.2141 25.2458 40.1397 25.5406C40.0654 25.8354 40.0596 26.1089 40.1225 26.3613C40.1905 26.615 40.3078 26.8261 40.4743 26.9946C40.6473 27.1592 40.845 27.2696 41.0673 27.3257C41.2949 27.3831 41.5212 27.3797 41.7464 27.3155C41.9717 27.2513 42.1711 27.1256 42.3448 26.9384C42.525 26.7473 42.6523 26.5044 42.7267 26.2096ZM49.1658 25.5649L44.9591 31.1868L44.0437 30.9559L45.4369 29.0961L44.8141 24.4672L45.7992 24.7157L46.1798 28.277L48.2505 25.334L49.1658 25.5649ZM55.0247 26.9685C55.3608 27.0533 55.6432 27.1987 55.8717 27.4049C56.1054 27.6123 56.2626 27.872 56.3435 28.1839C56.4295 28.4971 56.4236 28.8477 56.3257 29.2355L55.6898 31.7566L54.8133 31.5355L55.4159 29.1463C55.5125 28.7636 55.4905 28.4473 55.35 28.1974C55.2109 27.9422 54.9758 27.7729 54.6448 27.6895C54.3139 27.606 54.024 27.6429 53.7753 27.8002C53.5331 27.9536 53.3638 28.2216 53.2672 28.6043L52.6646 30.9935L51.788 30.7724L52.3907 28.3832C52.4872 28.0005 52.4652 27.6842 52.3248 27.4343C52.1856 27.1792 51.9505 27.0099 51.6196 26.9264C51.2886 26.8429 50.9988 26.8798 50.7501 27.0371C50.5079 27.1905 50.3385 27.4586 50.242 27.8412L49.6393 30.2304L48.755 30.0073L49.8331 25.7332L50.7174 25.9563L50.5942 26.445C50.7833 26.3057 51.0015 26.2149 51.2486 26.1728C51.4958 26.1306 51.7461 26.1415 51.9994 26.2054C52.3408 26.2915 52.6276 26.4408 52.86 26.6535C53.0924 26.8661 53.2464 27.1277 53.3221 27.4383C53.5166 27.2124 53.7698 27.059 54.0817 26.9781C54.3949 26.8921 54.7092 26.8889 55.0247 26.9685ZM61.2979 30.7867C61.2574 30.947 61.2106 31.0892 61.1573 31.2133L57.8915 30.3895C57.8313 30.7374 57.8889 31.0434 58.0642 31.3077C58.2396 31.5719 58.4928 31.7458 58.8237 31.8292C59.2995 31.9493 59.6859 31.8349 59.9828 31.4863L60.9369 31.727C60.7085 32.0874 60.3917 32.3513 59.9865 32.5186C59.5877 32.682 59.1375 32.7005 58.6359 32.5739C58.2274 32.4709 57.883 32.2878 57.6029 32.0246C57.3292 31.7575 57.141 31.4351 57.0384 31.0571C56.9421 30.6753 56.9495 30.2647 57.0604 29.8251C57.1712 29.3855 57.3563 29.0224 57.6156 28.7358C57.8814 28.4453 58.1974 28.25 58.5637 28.1499C58.9352 28.0511 59.3303 28.0545 59.7492 28.1602C60.1526 28.2619 60.4898 28.4405 60.7609 28.6959C61.032 28.9513 61.2151 29.2615 61.31 29.6264C61.4063 29.9862 61.4022 30.373 61.2979 30.7867ZM60.4452 30.2746C60.5222 29.9475 60.4717 29.657 60.2938 29.4031C60.1158 29.1492 59.8587 28.9798 59.5226 28.8951C59.2175 28.8181 58.9315 28.8505 58.6648 28.9922C58.3993 29.1288 58.2042 29.3573 58.0793 29.6778L60.4452 30.2746ZM64.8548 29.448C65.1909 29.5328 65.4733 29.6782 65.7018 29.8844C65.9355 30.0919 66.0927 30.3515 66.1736 30.6634C66.2544 30.9754 66.2459 31.3252 66.1481 31.7131L65.5122 34.2341L64.6356 34.013L65.2383 31.6239C65.3348 31.2412 65.3128 30.9249 65.1724 30.6749C65.0332 30.4198 64.7981 30.2505 64.4672 30.167C64.1362 30.0835 63.8464 30.1204 63.5977 30.2777C63.3555 30.4311 63.1861 30.6992 63.0896 31.0819L62.4869 33.471L61.6026 33.248L62.6807 28.9739L63.565 29.1969L63.4418 29.6856C63.6309 29.5463 63.8491 29.4556 64.0962 29.4134C64.3485 29.3725 64.6014 29.3841 64.8548 29.448ZM68.568 31.2261L67.9712 33.592C67.9308 33.7524 67.9376 33.8778 67.9918 33.9685C68.0524 34.0553 68.1732 34.1215 68.3542 34.1672L68.8972 34.3041L68.7113 35.0411L68.0132 34.865C67.615 34.7645 67.3333 34.5945 67.1683 34.3548C67.0032 34.1152 66.9735 33.7859 67.0792 33.367L67.6759 31.0011L67.1717 30.874L67.3537 30.1526L67.8579 30.2797L68.126 29.217L69.018 29.442L68.75 30.5047L69.7894 30.7669L69.6074 31.4883L68.568 31.2261ZM71.7866 33.5396C71.8975 33.1 72.0826 32.737 72.3419 32.4503C72.6077 32.1599 72.9211 31.9639 73.2822 31.8625C73.6433 31.761 74.0281 31.7618 74.4367 31.8649C74.9538 31.9953 75.3492 32.2271 75.6227 32.5601C75.9027 32.8892 76.0448 33.2963 76.0489 33.7814L75.0948 33.5408C75.0707 33.3092 74.9883 33.1124 74.8477 32.9504C74.707 32.7884 74.5074 32.6748 74.2489 32.6096C73.8869 32.5183 73.5646 32.5745 73.2822 32.7783C73.0063 32.9782 72.8103 33.3083 72.6942 33.7685C72.5781 34.2288 72.5934 34.6149 72.7402 34.927C72.8922 35.2403 73.1492 35.4427 73.5112 35.534C74.0232 35.6631 74.4186 35.5236 74.6976 35.1154L75.6517 35.3561C75.418 35.7592 75.0979 36.047 74.6914 36.2194C74.2862 36.3867 73.8302 36.4065 73.3234 36.2787C72.9148 36.1756 72.5757 35.9938 72.3059 35.7332C72.0374 35.4675 71.8544 35.1463 71.7569 34.7697C71.6658 34.3892 71.6757 33.9792 71.7866 33.5396ZM78.0289 37.4656C77.6255 37.3638 77.2837 37.1813 77.0036 36.9182C76.7248 36.6498 76.534 36.3267 76.4313 35.9488C76.3299 35.5657 76.3347 35.1543 76.4456 34.7148C76.5551 34.2804 76.748 33.9192 77.0241 33.6314C77.3002 33.3435 77.6266 33.1508 78.0032 33.0533C78.3798 32.9558 78.7724 32.9585 79.181 33.0616C79.5895 33.1646 79.9364 33.3484 80.2217 33.6129C80.5071 33.8774 80.703 34.2018 80.8095 34.5862C80.9161 34.9706 80.9146 35.38 80.805 35.8144C80.6954 36.2488 80.5 36.6093 80.2187 36.8958C79.9374 37.1824 79.6026 37.3757 79.2144 37.4758C78.8326 37.572 78.4374 37.5686 78.0289 37.4656ZM78.2226 36.6976C78.4501 36.755 78.6758 36.7542 78.8997 36.6951C79.1288 36.6374 79.3328 36.5156 79.5117 36.3297C79.6906 36.1438 79.8192 35.8957 79.8974 35.5855C79.9757 35.2752 79.9821 34.999 79.9166 34.757C79.8525 34.5098 79.7359 34.3071 79.5667 34.149C79.3976 33.9908 79.1993 33.883 78.9717 33.8256C78.7442 33.7682 78.5185 33.769 78.2946 33.8281C78.0758 33.8884 77.8822 34.0128 77.7136 34.2013C77.5464 34.3847 77.4236 34.6315 77.3454 34.9417C77.2293 35.402 77.2556 35.7882 77.4244 36.1003C77.5997 36.4085 77.8657 36.6076 78.2226 36.6976ZM84.3913 34.3758C84.7275 34.4606 85.0098 34.6061 85.2383 34.8122C85.472 35.0197 85.6293 35.2794 85.7101 35.5913C85.7909 35.9032 85.7824 36.2531 85.6846 36.6409L85.0487 39.162L84.1722 38.9409L84.7748 36.5517C84.8713 36.169 84.8494 35.8527 84.7089 35.6028C84.5697 35.3476 84.3347 35.1783 84.0037 35.0949C83.6727 35.0114 83.3829 35.0483 83.1342 35.2056C82.892 35.359 82.7226 35.627 82.6261 36.0097L82.0235 38.3989L81.1392 38.1758L82.2173 33.9017L83.1016 34.1248L82.9783 34.6134C83.1674 34.4741 83.3856 34.3834 83.6328 34.3412C83.8851 34.3004 84.1379 34.3119 84.3913 34.3758ZM88.8647 36.3457L88.0735 36.1462L87.1774 39.6989L86.2853 39.4739L87.1814 35.9212L86.6772 35.794L86.8592 35.0726L87.3634 35.1997L87.4397 34.8972C87.5636 34.4059 87.7829 34.0817 88.0976 33.9246C88.4187 33.7636 88.8585 33.7535 89.417 33.8944L89.2311 34.6313C88.9622 34.5635 88.7604 34.5676 88.6258 34.6436C88.4924 34.7145 88.3944 34.874 88.3318 35.1222L88.2555 35.4248L89.0467 35.6243L88.8647 36.3457ZM90.4231 35.3692C90.2628 35.3288 90.142 35.2406 90.0608 35.1046C89.9796 34.9686 89.9592 34.8204 89.9997 34.6601C90.0401 34.4998 90.1283 34.3791 90.2643 34.2979C90.4003 34.2167 90.5485 34.1963 90.7088 34.2367C90.8639 34.2758 90.9821 34.3634 91.0633 34.4994C91.1445 34.6354 91.1649 34.7835 91.1245 34.9438C91.084 35.1042 90.9958 35.2249 90.8598 35.3061C90.7238 35.3873 90.5783 35.4084 90.4231 35.3692ZM90.7147 36.0451L89.6366 40.3192L88.7523 40.0961L89.8304 35.822L90.7147 36.0451ZM92.6035 37.1815C92.7875 36.9969 93.0006 36.8719 93.2426 36.8065C93.4911 36.7371 93.7627 36.7396 94.0575 36.814L93.8266 37.7293L93.6017 37.6726C93.2552 37.5852 92.9693 37.6066 92.7439 37.7368C92.5238 37.8682 92.3589 38.1512 92.2493 38.5856L91.6819 40.8351L90.7976 40.612L91.8757 36.3379L92.76 36.561L92.6035 37.1815ZM100.044 38.3241C100.38 38.4089 100.663 38.5543 100.891 38.7605C101.125 38.968 101.282 39.2276 101.363 39.5395C101.449 39.8528 101.443 40.2033 101.345 40.5911L100.709 43.1122L99.8329 42.8911L100.436 40.5019C100.532 40.1192 100.51 39.8029 100.37 39.553C100.23 39.2979 99.9954 39.1286 99.6644 39.0451C99.3335 38.9616 99.0436 38.9985 98.795 39.1558C98.5527 39.3092 98.3834 39.5773 98.2868 39.9599L97.6842 42.3491L96.8077 42.128L97.4103 39.7388C97.5068 39.3562 97.4849 39.0398 97.3444 38.7899C97.2052 38.5348 96.9702 38.3655 96.6392 38.282C96.3082 38.1985 96.0184 38.2354 95.7697 38.3927C95.5275 38.5461 95.3581 38.8142 95.2616 39.1969L94.659 41.586L93.7747 41.363L94.8528 37.0888L95.7371 37.3119L95.6138 37.8006C95.8029 37.6613 96.0211 37.5706 96.2682 37.5284C96.5154 37.4862 96.7657 37.4971 97.0191 37.561C97.3604 37.6471 97.6472 37.7965 97.8796 38.0091C98.112 38.2217 98.266 38.4833 98.3417 38.7939C98.5362 38.568 98.7894 38.4146 99.1013 38.3337C99.4145 38.2477 99.7289 38.2445 100.044 38.3241ZM106.317 42.1423C106.277 42.3026 106.23 42.4448 106.177 42.5689L102.911 41.7452C102.851 42.093 102.908 42.399 103.084 42.6633C103.259 42.9275 103.512 43.1014 103.843 43.1849C104.319 43.3049 104.705 43.1906 105.002 42.8419L105.957 43.0826C105.728 43.443 105.411 43.7069 105.006 43.8742C104.607 44.0376 104.157 44.0561 103.656 43.9295C103.247 43.8265 102.903 43.6434 102.623 43.3802C102.349 43.1132 102.161 42.7907 102.058 42.4128C101.962 42.031 101.969 41.6203 102.08 41.1807C102.191 40.7412 102.376 40.3781 102.635 40.0914C102.901 39.801 103.217 39.6057 103.583 39.5055C103.955 39.4067 104.35 39.4101 104.769 39.5158C105.172 39.6175 105.509 39.7961 105.781 40.0515C106.052 40.3069 106.235 40.6171 106.33 40.9821C106.426 41.3419 106.422 41.7286 106.317 42.1423ZM105.465 41.6302C105.542 41.3031 105.491 41.0126 105.313 40.7587C105.135 40.5048 104.878 40.3355 104.542 40.2507C104.237 40.1737 103.951 40.2061 103.684 40.3478C103.419 40.4844 103.224 40.7129 103.099 41.0335L105.465 41.6302ZM106.871 42.3728C106.98 41.9436 107.163 41.5857 107.423 41.299C107.687 41.0137 107.995 40.8191 108.346 40.715C108.703 40.6071 109.07 40.6008 109.448 40.696C109.727 40.7664 109.985 40.8976 110.223 41.0896C110.467 41.2776 110.644 41.4927 110.753 41.7349L111.274 39.6715L112.166 39.8965L110.718 45.6367L109.826 45.4117L109.988 44.7679C109.791 44.9382 109.547 45.058 109.254 45.1272C108.967 45.1978 108.658 45.1913 108.327 45.1078C107.954 45.0139 107.637 44.8347 107.373 44.5703C107.116 44.302 106.94 43.9769 106.844 43.5951C106.754 43.2095 106.763 42.802 106.871 42.3728ZM110.366 43.2708C110.44 42.976 110.443 42.7044 110.373 42.4558C110.309 42.2086 110.193 42.0034 110.026 41.84C109.858 41.6767 109.66 41.5663 109.432 41.5089C109.205 41.4516 108.979 41.455 108.753 41.5192C108.529 41.5782 108.328 41.7007 108.149 41.8865C107.977 42.0686 107.853 42.307 107.779 42.6017C107.705 42.8965 107.699 43.1701 107.762 43.4224C107.83 43.6761 107.947 43.8872 108.114 44.0557C108.287 44.2204 108.484 44.3307 108.707 44.3868C108.934 44.4442 109.16 44.4408 109.386 44.3766C109.611 44.3124 109.81 44.1867 109.984 43.9995C110.164 43.8084 110.292 43.5655 110.366 43.2708ZM114.349 40.8183L113.299 44.5551L112.562 44.3692L113.41 40.5816L114.349 40.8183ZM112.533 46.1522C112.373 46.1118 112.252 46.0236 112.171 45.8876C112.089 45.7516 112.069 45.6035 112.109 45.4432C112.15 45.2828 112.238 45.1621 112.374 45.0809C112.51 44.9997 112.658 44.9793 112.819 45.0197C112.974 45.0589 113.092 45.1464 113.173 45.2824C113.254 45.4184 113.275 45.5665 113.234 45.7269C113.194 45.8872 113.106 46.0079 112.97 46.0891C112.834 46.1703 112.688 46.1914 112.533 46.1522Z" fill="#19CE7C"/>
<path d="M35.6388 37.3422L33.0385 47.6513C32.7294 48.8769 32.8146 49.8802 33.2941 50.6612C33.7892 51.4461 34.6107 51.9834 35.7588 52.273C36.9223 52.5664 37.9004 52.4831 38.693 52.023C39.5011 51.5668 40.0598 50.7259 40.3689 49.5003L42.9692 39.1912L45.6221 39.8603L43.0335 50.1229C42.7009 51.4416 42.1322 52.4862 41.3273 53.2568C40.5224 54.0273 39.5822 54.5162 38.5069 54.7235C37.4315 54.9308 36.3121 54.8877 35.1485 54.5942C33.9849 54.3007 32.979 53.8077 32.1306 53.1152C31.2977 52.4266 30.7175 51.5541 30.3898 50.4979C30.0622 49.4417 30.0647 48.2543 30.3973 46.9356L32.9859 36.673L35.6388 37.3422ZM50.2847 58.4121C49.1987 58.1382 48.2683 57.7055 47.4934 57.114C46.7225 56.507 46.1768 55.7918 45.8565 54.9685C45.5361 54.1451 45.4933 53.268 45.7281 52.3372L48.5672 53.0533C48.4532 53.7671 48.5799 54.4096 48.9473 54.9808C49.3303 55.5559 49.9639 55.955 50.8482 56.1781C51.7636 56.409 52.532 56.3718 53.1535 56.0665C53.779 55.7458 54.1798 55.2363 54.3558 54.5382C54.4928 53.9952 54.4414 53.5119 54.2017 53.0884C53.9775 52.6689 53.6485 52.3053 53.2145 51.9979C52.796 51.6943 52.1953 51.3283 51.4123 50.8998C50.4278 50.3544 49.6372 49.858 49.0405 49.4104C48.4633 48.9513 48.0183 48.3605 47.7055 47.6381C47.3927 46.9156 47.3634 46.0502 47.6178 45.0418C47.8526 44.1109 48.2908 43.3552 48.9323 42.7744C49.5738 42.1937 50.3604 41.8228 51.2921 41.6618C52.2237 41.5008 53.2403 41.5592 54.3418 41.837C55.9088 42.2322 57.0889 42.9507 57.8822 43.9924C58.695 45.0224 58.9835 46.2338 58.7477 47.6264L55.8155 46.8868C55.9177 46.2855 55.7656 45.7109 55.3593 45.1629C54.953 44.6148 54.331 44.2352 53.4932 44.0239C52.733 43.8321 52.0635 43.8695 51.4848 44.1361C50.906 44.4026 50.5247 44.9004 50.3407 45.6296C50.2155 46.1261 50.2592 46.5744 50.4718 46.9745C50.7038 47.3631 51.029 47.7091 51.4475 48.0127C51.866 48.3162 52.4512 48.6784 53.2031 49.0991C54.1992 49.6638 54.9937 50.1777 55.5864 50.6408C56.1947 51.1077 56.6533 51.7102 56.9622 52.4481C57.2905 53.1745 57.3255 54.0496 57.0672 55.0736C56.8598 55.8958 56.4392 56.6148 55.8054 57.2305C55.1871 57.8501 54.3945 58.2772 53.4278 58.5119C52.4805 58.7349 51.4328 58.7017 50.2847 58.4121ZM68.4033 45.6066C70.1254 46.041 71.5461 46.7541 72.6655 47.746C73.8043 48.7263 74.5663 49.9251 74.9513 51.3423C75.3558 52.7479 75.3507 54.273 74.9359 55.9175C74.5211 57.562 73.8043 58.8992 72.7854 59.9293C71.782 60.9633 70.5466 61.6418 69.079 61.9647C67.6309 62.2759 66.0458 62.2144 64.3238 61.78L59.0412 60.4476L63.1208 44.2741L68.4033 45.6066ZM64.8697 59.6158C66.7624 60.0932 68.3421 59.9471 69.6088 59.1776C70.8755 58.408 71.7436 57.0924 72.2132 55.2307C72.6867 53.3535 72.5523 51.7602 71.81 50.4509C71.0676 49.1416 69.7501 48.2482 67.8574 47.7708L65.2278 47.1075L62.24 58.9525L64.8697 59.6158ZM76.7043 56.2645C77.1035 54.6821 77.8261 53.3545 78.8723 52.2818C79.9339 51.213 81.1811 50.488 82.6138 50.1068C84.066 49.7141 85.5445 49.7075 87.0494 50.0871C88.7715 50.5214 90.192 51.3335 91.311 52.5233C92.4494 53.7015 93.1254 55.1427 93.3392 56.8467L90.151 56.0425C89.9474 55.0836 89.526 54.3008 88.887 53.6941C88.248 53.0873 87.4398 52.6607 86.4624 52.4142C85.3919 52.1442 84.3772 52.144 83.4181 52.4136C82.459 52.6832 81.6255 53.2073 80.9176 53.9858C80.2252 54.7682 79.7284 55.7567 79.4271 56.9513C79.1257 58.1459 79.0943 59.2518 79.3328 60.269C79.5867 61.2901 80.07 62.1546 80.7825 62.8623C81.499 63.5546 82.3924 64.0357 83.4629 64.3057C84.4403 64.5523 85.3542 64.56 86.2045 64.329C87.0548 64.0979 87.797 63.6086 88.4312 62.861L91.6193 63.6651C90.6229 65.0639 89.3442 66.012 87.7832 66.5093C86.2377 67.0105 84.6039 67.0439 82.8818 66.6096C81.3614 66.2261 80.061 65.5268 78.9804 64.5117C77.9038 63.481 77.1516 62.2435 76.7239 60.799C76.3117 59.3585 76.3052 57.847 76.7043 56.2645ZM107.831 57.1359L100.035 55.1695L98.8671 59.8004C99.3025 59.4482 99.8754 59.2049 100.586 59.0706C101.312 58.9402 102.039 58.9669 102.768 59.1509C104.072 59.4796 105.056 60.0249 105.722 60.7869C106.403 61.5528 106.807 62.4055 106.933 63.3448C107.075 64.2881 107.026 65.2329 106.788 66.1793C106.498 67.3273 106.015 68.2945 105.338 69.0808C104.68 69.8556 103.845 70.3874 102.832 70.6763C101.834 70.9691 100.699 70.9551 99.4264 70.6342C97.7354 70.2077 96.4836 69.4464 95.6709 68.3504C94.8583 67.2543 94.5253 65.9905 94.6719 64.5589L97.255 65.2104C97.2417 65.9826 97.4751 66.6603 97.9551 67.2434C98.4389 67.811 99.123 68.2063 100.007 68.4293C101.109 68.7072 102.015 68.581 102.726 68.0509C103.453 67.5247 103.956 66.7108 104.233 65.6093C104.515 64.4923 104.451 63.5686 104.041 62.8382C103.635 62.0922 102.889 61.5823 101.804 61.3084C101.043 61.1166 100.351 61.1482 99.7253 61.403C99.1194 61.6462 98.6179 62.0642 98.2208 62.6571L95.7075 62.0232L98.1788 52.226L108.418 54.8087L107.831 57.1359ZM112.114 70.4436L107.679 76.1562L105.957 75.7219L109.229 69.7158L112.114 70.4436ZM115.655 70.8912C117.469 69.9792 118.907 69.2197 119.967 68.6127C121.048 67.9941 121.988 67.3072 122.789 66.5522C123.59 65.7972 124.104 64.9698 124.331 64.0699C124.566 63.1391 124.525 62.3532 124.208 61.7122C123.907 61.0752 123.283 60.6373 122.336 60.3986C121.421 60.1677 120.633 60.2825 119.972 60.7429C119.331 61.1917 118.872 61.9009 118.594 62.8704L116.034 62.2247C116.527 60.4679 117.395 59.2512 118.638 58.5747C119.901 57.8866 121.316 57.7402 122.882 58.1354C124.573 58.562 125.775 59.36 126.486 60.5296C127.213 61.703 127.381 63.0655 126.99 64.6169C126.708 65.7339 126.149 66.7397 125.313 67.6344C124.496 68.5174 123.589 69.2703 122.59 69.893C121.611 70.504 120.381 71.1922 118.901 71.9574L117.619 72.6241L124.996 74.4849L124.438 76.6956L113.129 73.8429L113.616 71.9114L115.655 70.8912ZM128.905 68.8128C129.582 66.1289 130.561 64.1479 131.84 62.8701C133.139 61.5806 134.898 61.2156 137.116 61.7752C139.335 62.3348 140.702 63.4883 141.218 65.2356C141.754 66.9713 141.683 69.1812 141.006 71.8651C140.322 74.5801 139.328 76.5901 138.025 77.8951C136.742 79.1885 134.991 79.5554 132.772 78.9958C130.554 78.4362 129.179 77.2808 128.647 75.5295C128.134 73.7667 128.221 71.5278 128.905 68.8128ZM138.4 71.2077C138.717 69.9511 138.9 68.8668 138.948 67.955C139.012 67.0471 138.865 66.259 138.505 65.5908C138.149 64.9071 137.483 64.4419 136.506 64.1954C135.528 63.9489 134.721 64.0422 134.084 64.4755C133.45 64.8933 132.939 65.515 132.549 66.3408C132.174 67.1704 131.829 68.2136 131.512 69.4702C131.183 70.7734 130.985 71.8867 130.917 72.8102C130.849 73.7336 130.995 74.5294 131.354 75.1976C131.729 75.8698 132.405 76.3291 133.383 76.5756C134.36 76.8222 135.166 76.7365 135.799 76.3188C136.448 75.9049 136.962 75.2754 137.34 74.4302C137.718 73.5851 138.071 72.5109 138.4 71.2077ZM143.814 72.5732C144.491 69.8892 145.469 67.9083 146.748 66.6304C148.047 65.3409 149.806 64.976 152.024 65.5356C154.243 66.0951 155.61 67.2486 156.126 68.996C156.662 70.7317 156.592 72.9416 155.915 75.6255C155.23 78.3405 154.236 80.3504 152.933 81.6555C151.65 82.9489 149.899 83.3158 147.68 82.7562C145.462 82.1966 144.087 81.0412 143.555 79.2899C143.043 77.527 143.129 75.2881 143.814 72.5732ZM153.308 74.9681C153.625 73.7114 153.808 72.6272 153.856 71.7154C153.92 70.8074 153.773 70.0194 153.413 69.3511C153.058 68.6674 152.391 68.2023 151.414 67.9558C150.436 67.7092 149.629 67.8026 148.992 68.2359C148.358 68.6536 147.847 69.2754 147.457 70.1011C147.083 70.9308 146.737 71.974 146.42 73.2306C146.091 74.5338 145.893 75.6471 145.825 76.5705C145.757 77.494 145.903 78.2898 146.262 78.958C146.637 79.6301 147.314 80.0895 148.291 80.336C149.268 80.5825 150.074 80.4969 150.707 80.0791C151.356 79.6653 151.87 79.0358 152.248 78.1906C152.626 77.3454 152.979 76.2712 153.308 74.9681Z" fill="#111111"/>
<circle cx="101.225" cy="20.5531" r="5" transform="rotate(14.1568 101.225 20.5531)" fill="#F6FFFB"/>
<circle cx="85.0828" cy="84.5487" r="5" transform="rotate(14.1568 85.0828 84.5487)" fill="#F6FFFB"/>
</svg>
