<svg width="189" height="81" viewBox="0 0 189 81" fill="none" xmlns="http://www.w3.org/2000/svg">
<rect x="0.289978" y="20.595" width="183" height="60" rx="8" transform="rotate(-6.32048 0.289978 20.595)" fill="#FFF2C5"/>
<path d="M29.5791 38.5356C29.0649 38.5926 28.5773 38.5259 28.1162 38.3355C27.6598 38.1392 27.2806 37.8404 26.9786 37.4393C26.6813 37.0322 26.5027 36.5583 26.4428 36.0176C26.3829 35.4769 26.4538 34.9781 26.6554 34.5211C26.8622 34.0635 27.1672 33.6917 27.5701 33.4056C27.9778 33.1136 28.4387 32.9392 28.9529 32.8822C29.4724 32.8247 29.9603 32.894 30.4167 33.0903C30.8778 33.2807 31.2567 33.5768 31.5534 33.9786C31.8501 34.3804 32.0284 34.8516 32.0883 35.3923C32.1482 35.933 32.0776 36.4345 31.8766 36.8967C31.675 37.3537 31.3704 37.7282 30.9627 38.0202C30.5598 38.3063 30.0986 38.4781 29.5791 38.5356ZM29.4919 37.7484C29.8577 37.7079 30.1746 37.5897 30.4426 37.3936C30.7101 37.1923 30.9063 36.9291 31.0313 36.604C31.1609 36.2731 31.2032 35.9035 31.158 35.4953C31.1128 35.0872 30.991 34.7384 30.7926 34.4492C30.5995 34.1594 30.3507 33.9481 30.0463 33.8155C29.7418 33.6829 29.4067 33.6368 29.041 33.6773C28.6752 33.7179 28.3583 33.8361 28.0902 34.0322C27.8222 34.2282 27.623 34.489 27.4928 34.8147C27.3678 35.1398 27.3279 35.5064 27.3731 35.9146C27.4183 36.3227 27.5378 36.6744 27.7314 36.9695C27.9298 37.2588 28.1815 37.4724 28.4866 37.6103C28.791 37.7429 29.1261 37.789 29.4919 37.7484ZM33.7793 34.223C33.8871 33.9857 34.043 33.794 34.2468 33.6481C34.4554 33.4962 34.7107 33.4035 35.0129 33.37L35.1168 34.3083L34.8862 34.3338C34.531 34.3732 34.2707 34.4932 34.1051 34.694C33.9448 34.8942 33.8894 35.2169 33.9387 35.6622L34.1941 37.9681L33.2876 38.0685L32.8024 33.6873L33.7088 33.5869L33.7793 34.223ZM35.7923 35.5535C35.7436 35.1135 35.7905 34.7139 35.9332 34.3547C36.0811 33.9949 36.3012 33.7049 36.5934 33.4847C36.8903 33.2587 37.2323 33.1242 37.6192 33.0813C37.9055 33.0496 38.1935 33.0821 38.4832 33.1788C38.7777 33.2696 39.0185 33.4093 39.2057 33.5978L38.9715 31.4828L39.8859 31.3815L40.5376 37.2655L39.6232 37.3668L39.5501 36.7068C39.4252 36.9353 39.2378 37.1331 38.988 37.3003C38.7435 37.4669 38.4517 37.569 38.1124 37.6066C37.7308 37.6488 37.3703 37.5922 37.0311 37.4366C36.6967 37.2751 36.4176 37.0323 36.1939 36.7083C35.9749 36.3784 35.841 35.9935 35.7923 35.5535ZM39.3801 35.1722C39.3467 34.87 39.254 34.6147 39.1021 34.4061C38.9555 34.197 38.7751 34.0453 38.5607 33.951C38.3464 33.8567 38.1226 33.8224 37.8893 33.8483C37.6561 33.8741 37.4452 33.9565 37.2567 34.0954C37.0676 34.229 36.9217 34.4142 36.8192 34.651C36.7213 34.8818 36.6891 35.1483 36.7226 35.4505C36.7561 35.7526 36.8464 36.0109 36.9936 36.2253C37.146 36.4392 37.3297 36.5959 37.5447 36.6955C37.7643 36.7892 37.9881 36.8235 38.2161 36.7982C38.4493 36.7724 38.6602 36.69 38.8487 36.5511C39.0372 36.4121 39.1801 36.2246 39.2774 35.9885C39.3793 35.7464 39.4136 35.4743 39.3801 35.1722ZM45.4891 34.3909C45.5073 34.5552 45.5132 34.7048 45.5066 34.8397L42.1591 35.2105C42.2244 35.5574 42.3854 35.824 42.6421 36.0102C42.8988 36.1964 43.1968 36.2707 43.5361 36.2331C44.0237 36.1791 44.3457 35.9368 44.5019 35.5064L45.4799 35.398C45.392 35.8156 45.1875 36.1736 44.8665 36.4721C44.5501 36.7647 44.1348 36.9395 43.6206 36.9964C43.2018 37.0428 42.8152 36.9918 42.4607 36.8432C42.1109 36.6888 41.8218 36.4525 41.5934 36.1344C41.3697 35.8104 41.2329 35.4231 41.183 34.9725C41.1331 34.5219 41.1794 34.117 41.3221 33.7578C41.4695 33.3927 41.6972 33.0992 42.0053 32.8772C42.3187 32.6547 42.6901 32.5197 43.1195 32.4721C43.533 32.4263 43.9113 32.4756 44.2547 32.62C44.598 32.7645 44.878 32.991 45.0946 33.2997C45.3106 33.6031 45.4422 33.9668 45.4891 34.3909ZM44.5112 34.2095C44.4689 33.8761 44.32 33.6216 44.0644 33.446C43.8089 33.2704 43.5088 33.2017 43.1643 33.2399C42.8515 33.2745 42.595 33.4049 42.3947 33.631C42.1937 33.8518 42.0909 34.1341 42.086 34.4781L44.5112 34.2095ZM47.1273 32.7446C47.2352 32.5072 47.391 32.3156 47.5949 32.1696C47.8034 32.0177 48.0588 31.925 48.3609 31.8916L48.4649 32.8298L48.2343 32.8554C47.8791 32.8947 47.6187 33.0148 47.4532 33.2155C47.2929 33.4157 47.2374 33.7385 47.2867 34.1837L47.5422 36.4896L46.6357 36.59L46.1504 32.2088L47.0569 32.1084L47.1273 32.7446ZM51.1433 33.2817C51.0834 32.741 51.1543 32.2422 51.3559 31.7852C51.5627 31.3276 51.8677 30.9558 52.2706 30.6697C52.6783 30.3777 53.1392 30.2033 53.6534 30.1463C54.2418 30.0811 54.7801 30.1691 55.2683 30.4101C55.7611 30.6453 56.1403 31.0165 56.4058 31.5237L55.3164 31.6443C55.141 31.3686 54.9181 31.1733 54.6479 31.0584C54.3776 30.9434 54.0754 30.9045 53.7415 30.9414C53.3757 30.982 53.0588 31.1002 52.7908 31.2963C52.5227 31.4923 52.3235 31.7531 52.1933 32.0788C52.0683 32.4039 52.0284 32.7705 52.0736 33.1787C52.1188 33.5868 52.238 33.9358 52.4311 34.2257C52.6294 34.5149 52.8812 34.7285 53.1862 34.8664C53.4906 34.9991 53.8258 35.0451 54.1915 35.0046C54.5255 34.9676 54.8117 34.8635 55.0503 34.6921C55.2889 34.5208 55.4636 34.2815 55.5745 33.9741L56.6638 33.8534C56.5158 34.4064 56.227 34.8516 55.7976 35.1889C55.3734 35.5256 54.8671 35.7266 54.2787 35.7918C53.7592 35.8493 53.2716 35.7826 52.8158 35.5916C52.3594 35.3953 51.9802 35.0966 51.6782 34.6954C51.3815 34.2936 51.2032 33.8224 51.1433 33.2817ZM59.811 35.2032C59.3976 35.2489 59.0136 35.1976 58.6591 35.049C58.304 34.8952 58.0122 34.6592 57.7838 34.3411C57.5548 34.0177 57.4154 33.6307 57.3654 33.1801C57.3161 32.7348 57.3705 32.329 57.5284 31.9627C57.6864 31.5965 57.9247 31.3018 58.2434 31.0787C58.5621 30.8555 58.9309 30.7208 59.3497 30.6744C59.7684 30.628 60.1577 30.6788 60.5175 30.8268C60.8773 30.9747 61.1744 31.2101 61.4087 31.533C61.643 31.8558 61.7848 32.2398 61.8341 32.6851C61.8834 33.1304 61.8265 33.5365 61.6632 33.9033C61.4999 34.2702 61.2539 34.5684 60.9252 34.798C60.6012 35.0217 60.2298 35.1568 59.811 35.2032ZM59.7238 34.416C59.9571 34.3901 60.1683 34.3104 60.3574 34.1768C60.5518 34.0425 60.7002 33.8571 60.8028 33.6203C60.9054 33.3836 60.939 33.1062 60.9038 32.7882C60.8686 32.4701 60.778 32.2092 60.632 32.0053C60.4854 31.7962 60.3052 31.6471 60.0915 31.5581C59.8777 31.4691 59.6542 31.4375 59.4209 31.4634C59.1877 31.4892 58.9765 31.5689 58.7874 31.7026C58.6036 31.8356 58.4657 32.0199 58.3738 32.2555C58.2812 32.4857 58.2526 32.7599 58.2878 33.0779C58.3401 33.5497 58.4998 33.9023 58.7672 34.1356C59.0392 34.363 59.3581 34.4565 59.7238 34.416ZM64.6906 30.0828C65.0351 30.0447 65.3505 30.0822 65.6367 30.1954C65.9282 30.308 66.1664 30.4962 66.3512 30.7601C66.5361 31.0241 66.6505 31.3548 66.6945 31.7524L66.9808 34.3366L66.0823 34.4361L65.811 31.9871C65.7676 31.5948 65.6363 31.3062 65.4173 31.1211C65.1977 30.9308 64.9182 30.8545 64.579 30.892C64.2397 30.9296 63.9811 31.0656 63.8032 31.2999C63.6299 31.5284 63.565 31.8388 63.6085 32.231L63.8797 34.68L62.9733 34.7805L62.488 30.3992L63.3945 30.2988L63.4499 30.7998C63.5784 30.6031 63.751 30.4418 63.9678 30.3158C64.1899 30.1893 64.4308 30.1116 64.6906 30.0828ZM69.5704 30.3633L68.7594 30.4532L69.1627 34.0949L68.2483 34.1962L67.845 30.5544L67.3281 30.6117L67.2462 29.8722L67.7631 29.815L67.7287 29.5049C67.6729 29.0013 67.7649 28.6208 68.0047 28.3635C68.2493 28.1003 68.6578 27.9371 69.2303 27.8736L69.3139 28.629C69.0383 28.6596 68.8507 28.734 68.7511 28.8523C68.6509 28.9654 68.6149 29.1491 68.6431 29.4036L68.6775 29.7137L69.4885 29.6238L69.5704 30.3633ZM70.6887 28.9033C70.5244 28.9215 70.3804 28.8811 70.2568 28.7822C70.1331 28.6832 70.0622 28.5515 70.044 28.3872C70.0258 28.2228 70.0662 28.0789 70.1652 27.9552C70.2642 27.8316 70.3958 27.7606 70.5601 27.7424C70.7192 27.7248 70.8605 27.7655 70.9842 27.8645C71.1078 27.9635 71.1787 28.0951 71.1969 28.2595C71.2151 28.4238 71.1747 28.5678 71.0758 28.6914C70.9768 28.8151 70.8478 28.8857 70.6887 28.9033ZM71.1983 29.4345L71.6836 33.8157L70.7771 33.9161L70.2918 29.5349L71.1983 29.4345ZM73.3653 29.8384C73.4732 29.601 73.629 29.4094 73.8329 29.2634C74.0414 29.1115 74.2968 29.0188 74.5989 28.9854L74.7028 29.9236L74.4722 29.9492C74.1171 29.9885 73.8567 30.1086 73.6911 30.3093C73.5309 30.5095 73.4754 30.8323 73.5247 31.2776L73.7801 33.5835L72.8737 33.6839L72.3884 29.3026L73.2949 29.2022L73.3653 29.8384ZM80.7357 28.3056C81.0802 28.2675 81.3956 28.305 81.6818 28.4182C81.9733 28.5308 82.2115 28.719 82.3963 28.9829C82.5865 29.2463 82.7036 29.5767 82.7476 29.9743L83.0339 32.5585L82.1353 32.658L81.8641 30.209C81.8206 29.8167 81.6894 29.5281 81.4704 29.3431C81.2507 29.1528 80.9713 29.0764 80.632 29.114C80.2928 29.1515 80.0342 29.2875 79.8562 29.5218C79.683 29.7503 79.6181 30.0607 79.6616 30.4529L79.9328 32.902L79.0343 33.0015L78.763 30.5525C78.7196 30.1602 78.5884 29.8716 78.3693 29.6865C78.1497 29.4962 77.8703 29.4199 77.531 29.4574C77.1918 29.495 76.9331 29.631 76.7552 29.8653C76.582 30.0938 76.5171 30.4042 76.5605 30.7964L76.8318 33.2454L75.9253 33.3458L75.44 28.9646L76.3465 28.8642L76.402 29.3652C76.5305 29.1685 76.7031 29.0072 76.9199 28.8812C77.1366 28.7553 77.3749 28.6779 77.6347 28.6491C77.9845 28.6104 78.3055 28.6499 78.5976 28.7678C78.8897 28.8857 79.1255 29.0769 79.305 29.3414C79.4082 29.0617 79.5917 28.8294 79.8557 28.6446C80.119 28.4544 80.4123 28.3415 80.7357 28.3056ZM87.9482 29.688C87.9664 29.8523 87.9723 30.0019 87.9657 30.1368L84.6182 30.5076C84.6835 30.8545 84.8444 31.1211 85.1012 31.3073C85.3579 31.4935 85.6559 31.5678 85.9951 31.5302C86.4828 31.4762 86.8048 31.234 86.961 30.8035L87.939 30.6951C87.8511 31.1127 87.6466 31.4707 87.3255 31.7692C87.0092 32.0618 86.5939 32.2366 86.0797 32.2936C85.6609 32.3399 85.2743 32.2889 84.9198 32.1403C84.57 31.9859 84.2809 31.7496 84.0525 31.4315C83.8288 31.1075 83.692 30.7202 83.6421 30.2696C83.5922 29.819 83.6385 29.4141 83.7812 29.0549C83.9286 28.6898 84.1563 28.3963 84.4644 28.1743C84.7778 27.9518 85.1492 27.8168 85.5786 27.7692C85.992 27.7234 86.3704 27.7727 86.7138 27.9172C87.0571 28.0616 87.3371 28.2881 87.5537 28.5968C87.7697 28.9002 87.9012 29.2639 87.9482 29.688ZM86.9703 29.5066C86.928 29.1732 86.7791 28.9187 86.5235 28.7431C86.268 28.5675 85.9679 28.4988 85.6234 28.537C85.3106 28.5716 85.0541 28.702 84.8537 28.9281C84.6528 29.1489 84.55 29.4312 84.5451 29.7752L86.9703 29.5066ZM88.5478 29.7101C88.4991 29.2702 88.546 28.8706 88.6887 28.5113C88.8366 28.1515 89.0567 27.8615 89.3489 27.6414C89.6458 27.4153 89.9878 27.2808 90.3747 27.238C90.661 27.2063 90.949 27.2388 91.2387 27.3355C91.5332 27.4263 91.774 27.5659 91.9612 27.7545L91.727 25.6394L92.6414 25.5381L93.2931 31.4221L92.3787 31.5234L92.3056 30.8635C92.1807 31.0919 91.9933 31.2898 91.7435 31.4569C91.499 31.6235 91.2072 31.7256 90.8679 31.7632C90.4862 31.8055 90.1258 31.7488 89.7866 31.5932C89.4522 31.4317 89.1731 31.189 88.9494 30.865C88.7304 30.5351 88.5965 30.1501 88.5478 29.7101ZM92.1356 29.3288C92.1022 29.0267 92.0095 28.7713 91.8576 28.5628C91.711 28.3537 91.5306 28.2019 91.3162 28.1076C91.1018 28.0133 90.8781 27.9791 90.6448 28.0049C90.4116 28.0308 90.2007 28.1131 90.0122 28.2521C89.8231 28.3857 89.6772 28.5709 89.5747 28.8076C89.4768 29.0384 89.4446 29.3049 89.4781 29.6071C89.5116 29.9093 89.6019 30.1675 89.7491 30.382C89.9015 30.5958 90.0852 30.7526 90.3002 30.8522C90.5198 30.9459 90.7436 30.9801 90.9716 30.9549C91.2048 30.929 91.4157 30.8467 91.6042 30.7077C91.7927 30.5688 91.9356 30.3813 92.0329 30.1451C92.1348 29.9031 92.1691 29.631 92.1356 29.3288ZM95.0087 25.6381L95.3324 29.506L94.5771 29.5897L94.0465 25.7447L95.0087 25.6381ZM95.1737 31.2702C95.0094 31.2884 94.8654 31.248 94.7417 31.149C94.6181 31.05 94.5471 30.9184 94.5289 30.754C94.5107 30.5897 94.5511 30.4457 94.6501 30.3221C94.7491 30.1984 94.8808 30.1275 95.0451 30.1093C95.2041 30.0917 95.3455 30.1324 95.4691 30.2313C95.5928 30.3303 95.6637 30.462 95.6819 30.6263C95.7001 30.7906 95.6597 30.9346 95.5607 31.0583C95.4617 31.1819 95.3327 31.2526 95.1737 31.2702Z" fill="#19CE7C"/>
<path d="M33.2024 60.3111C32.5252 60.3861 31.9001 60.338 31.3271 60.1667C30.7633 59.9944 30.2996 59.7077 29.9359 59.3066C29.5722 58.9055 29.3529 58.4087 29.2778 57.816L31.3651 57.5848C31.4371 57.9806 31.6112 58.2806 31.8873 58.4848C32.1727 58.6879 32.5381 58.7648 32.9834 58.7155C33.4379 58.6652 33.7833 58.5189 34.0194 58.2768C34.2545 58.0254 34.3525 57.7234 34.3134 57.3709C34.2816 57.0833 34.1672 56.8566 33.9704 56.6905C33.7736 56.5245 33.5351 56.4054 33.2547 56.3332C32.9827 56.2506 32.6075 56.1701 32.1293 56.0916C31.478 55.9759 30.9431 55.8521 30.5246 55.72C30.1145 55.5776 29.7456 55.3415 29.4179 55.0115C29.0985 54.6713 28.9049 54.195 28.8371 53.5828C28.7734 53.0076 28.8617 52.4908 29.102 52.0322C29.3423 51.5736 29.7099 51.2042 30.2047 50.9241C30.6985 50.6346 31.2794 50.4529 31.9473 50.3789C32.9492 50.2679 33.7881 50.4239 34.4641 50.8467C35.1483 51.2592 35.5712 51.8978 35.7327 52.7627L33.5898 53C33.5343 52.6681 33.3602 52.4104 33.0675 52.2268C32.7831 52.0329 32.4229 51.9602 31.9869 52.0084C31.6066 52.0506 31.3113 52.1819 31.1009 52.4024C30.8999 52.6218 30.8199 52.9171 30.861 53.2882C30.8897 53.5479 30.9974 53.7567 31.1839 53.9144C31.3786 54.0619 31.6074 54.1774 31.8702 54.261C32.1413 54.3343 32.5164 54.4148 32.9956 54.5026C33.647 54.6182 34.1824 54.7467 34.6018 54.8881C35.0213 55.0294 35.3954 55.2697 35.724 55.6089C36.0527 55.9481 36.2504 56.4192 36.3172 57.0222C36.3748 57.5417 36.2937 58.039 36.074 58.514C35.8543 58.9891 35.4996 59.3899 35.0099 59.7165C34.5192 60.0338 33.9167 60.232 33.2024 60.3111ZM39.535 52.8345C39.7464 52.4542 40.0573 52.124 40.4676 51.8438C40.8862 51.5533 41.3784 51.3767 41.9443 51.314C42.6029 51.2411 43.2146 51.3377 43.7793 51.6038C44.3533 51.8689 44.8268 52.2859 45.1997 52.855C45.5809 53.4138 45.8151 54.0874 45.9024 54.8759C45.9898 55.6644 45.9097 56.3823 45.6621 57.0295C45.4227 57.6664 45.0525 58.1816 44.5515 58.5751C44.0597 58.9677 43.4845 59.2004 42.8259 59.2734C42.26 59.336 41.7462 59.2756 41.2845 59.0919C40.8321 58.9073 40.4519 58.6536 40.1438 58.3309L40.6725 63.1037L38.7244 63.3195L37.4636 51.9371L39.4117 51.7213L39.535 52.8345ZM43.9126 55.0963C43.8612 54.6325 43.7197 54.2444 43.4879 53.932C43.2643 53.6093 42.9851 53.3773 42.6501 53.236C42.3245 53.0936 41.9808 53.0425 41.619 53.0826C41.2665 53.1216 40.9428 53.2514 40.6479 53.4719C40.3613 53.682 40.1396 53.9695 39.9828 54.3343C39.8353 54.6981 39.7873 55.1119 39.8386 55.5757C39.89 56.0396 40.0275 56.4328 40.251 56.7555C40.4838 57.0772 40.7636 57.3138 41.0903 57.4654C41.4252 57.6068 41.7689 57.6579 42.1214 57.6188C42.4832 57.5788 42.8069 57.449 43.0925 57.2296C43.3873 57.0091 43.6085 56.717 43.756 56.3532C43.9128 55.9884 43.965 55.5694 43.9126 55.0963ZM46.8171 54.7746C46.7308 53.9954 46.8073 53.2873 47.0467 52.6504C47.2953 52.0125 47.666 51.5019 48.1588 51.1187C48.6609 50.7344 49.2413 50.5058 49.8999 50.4328C50.475 50.3691 50.9888 50.4296 51.4412 50.6143C51.9029 50.7979 52.2832 51.0516 52.5819 51.3753L52.4602 50.276L54.4222 50.0587L55.276 57.7676L53.314 57.9849L53.1892 56.8578C52.9788 57.2473 52.6643 57.5873 52.2458 57.8778C51.8355 58.158 51.3427 58.33 50.7676 58.3937C50.1182 58.4656 49.506 58.3644 48.931 58.09C48.3652 57.8147 47.8912 57.3929 47.5091 56.8249C47.1351 56.2465 46.9045 55.5631 46.8171 54.7746ZM52.8871 54.1304C52.8347 53.6573 52.6973 53.2641 52.4747 52.9507C52.2512 52.628 51.9719 52.396 51.637 52.2547C51.3011 52.1041 50.9522 52.0488 50.5904 52.0889C50.2286 52.129 49.9044 52.2541 49.6178 52.4642C49.3312 52.6744 49.1095 52.9619 48.9527 53.3267C48.8042 53.6812 48.7556 54.0904 48.807 54.5542C48.8583 55.018 48.9963 55.4159 49.2209 55.7479C49.4537 56.0696 49.7335 56.3062 50.0602 56.4578C50.3961 56.6084 50.7403 56.6642 51.0928 56.6251C51.4546 56.5851 51.7835 56.4594 52.0794 56.2482C52.3742 56.0278 52.5959 55.7403 52.7444 55.3858C52.892 55.022 52.9395 54.6036 52.8871 54.1304ZM59.3305 49.3883C59.9056 49.3246 60.4241 49.3845 60.8858 49.5682C61.3464 49.7425 61.722 49.9967 62.0126 50.3307L61.8908 49.2315L63.8528 49.0141L64.7128 56.7787C64.7919 57.493 64.7185 58.1443 64.4926 58.7328C64.2677 59.3305 63.8857 59.8236 63.3465 60.2119C62.8083 60.6096 62.1311 60.8537 61.3147 60.9441C60.2201 61.0653 59.292 60.9099 58.5305 60.4778C57.7782 60.0446 57.3069 59.3925 57.1165 58.5215L59.0507 58.3073C59.1918 58.6485 59.4406 58.9027 59.7972 59.0697C60.164 59.2451 60.5887 59.306 61.071 59.2526C61.6369 59.1899 62.0771 58.9675 62.3916 58.5852C62.7071 58.2122 62.8269 57.6824 62.7508 56.996L62.6183 55.7993C62.4079 56.1888 62.0934 56.5288 61.6748 56.8194C61.2655 57.1088 60.778 57.2849 60.2121 57.3476C59.5627 57.4195 58.9505 57.3183 58.3755 57.0439C57.8005 56.7696 57.3219 56.3484 56.9397 55.7803C56.5657 55.202 56.3351 54.5186 56.2477 53.73C56.1614 52.9508 56.2379 52.2428 56.4773 51.6059C56.7259 50.9679 57.0966 50.4574 57.5894 50.0741C58.0915 49.6898 58.6719 49.4612 59.3305 49.3883ZM62.3177 53.0859C62.2653 52.6128 62.1279 52.2195 61.9053 51.9061C61.6818 51.5834 61.4025 51.3514 61.0676 51.2101C60.7317 51.0595 60.3828 51.0043 60.021 51.0443C59.6592 51.0844 59.335 51.2095 59.0484 51.4197C58.7618 51.6298 58.5401 51.9173 58.3833 52.2821C58.2348 52.6366 58.1862 53.0458 58.2376 53.5096C58.2889 53.9735 58.4269 54.3714 58.6515 54.7033C58.8843 55.025 59.1641 55.2616 59.4908 55.4133C59.8267 55.5639 60.1709 55.6196 60.5235 55.5806C60.8852 55.5405 61.2141 55.4149 61.51 55.2037C61.8048 54.9832 62.0265 54.6957 62.1751 54.3412C62.3226 53.9774 62.3701 53.559 62.3177 53.0859ZM70.0846 48.2112C70.669 48.1465 71.2029 48.2188 71.6862 48.4282C72.1685 48.6283 72.5626 48.965 72.8686 49.4382C73.1828 49.9011 73.3784 50.4804 73.4555 51.1761L73.9564 55.6985L72.0083 55.9143L71.5367 51.6563C71.4688 51.044 71.2639 50.5925 70.9218 50.3017C70.5787 50.0017 70.1427 49.881 69.614 49.9395C69.0759 49.9991 68.6677 50.2134 68.3893 50.5823C68.1191 50.9408 68.0179 51.4263 68.0858 52.0385L68.5574 56.2965L66.6093 56.5123L65.4688 46.2152L67.4169 45.9995L67.8099 49.5478C68.0234 49.1861 68.3285 48.8893 68.7254 48.6575C69.1213 48.4165 69.5743 48.2677 70.0846 48.2112ZM82.5297 50.6781C82.5605 50.9564 82.5697 51.209 82.5572 51.4357L76.9217 52.0599C77.0297 52.6114 77.2728 53.0258 77.651 53.3032C78.0292 53.5806 78.4687 53.6915 78.9696 53.636C79.6932 53.5559 80.1736 53.1881 80.4109 52.5327L82.5121 52.2999C82.3716 53.0667 82.0127 53.7262 81.4354 54.2785C80.857 54.8215 80.1086 55.1438 79.1902 55.2455C78.448 55.3277 77.7622 55.2394 77.1325 54.9805C76.5111 54.7112 76 54.2936 75.5992 53.7276C75.2078 53.1606 74.9684 52.4829 74.881 51.6943C74.7927 50.8966 74.8774 50.1782 75.1353 49.5392C75.3932 48.9003 75.7964 48.3861 76.3449 47.9967C76.8933 47.6073 77.5479 47.3705 78.3086 47.2862C79.0414 47.205 79.7129 47.2903 80.323 47.542C80.9423 47.7927 81.4421 48.1928 81.8222 48.7422C82.2106 49.2814 82.4464 49.9267 82.5297 50.6781ZM80.4503 50.345C80.3856 49.8451 80.1605 49.4662 79.7751 49.2084C79.3887 48.9414 78.9404 48.8361 78.4302 48.8926C77.9478 48.946 77.556 49.1397 77.255 49.4735C76.9621 49.797 76.8074 50.2227 76.7907 50.7504L80.4503 50.345ZM85.9885 48.1822L86.4016 51.9114C86.4303 52.1711 86.5117 52.3546 86.6457 52.4618C86.7879 52.5588 87.0074 52.5908 87.3042 52.5579L88.2087 52.4577L88.3906 54.0997L87.1661 54.2353C85.5241 54.4172 84.6148 53.7103 84.438 52.1148L84.0265 48.3995L83.1081 48.5012L82.9309 46.901L83.8493 46.7993L83.6381 44.8929L85.6001 44.6756L85.8113 46.582L87.5367 46.3908L87.714 47.9911L85.9885 48.1822ZM91.3833 47.5846L91.7963 51.3138C91.8251 51.5736 91.9065 51.7571 92.0404 51.8643C92.1826 51.9612 92.4021 51.9933 92.699 51.9604L93.6035 51.8602L93.7853 53.5022L92.5608 53.6378C90.9189 53.8197 90.0095 53.1128 89.8328 51.5172L89.4213 47.802L88.5029 47.9037L88.3256 46.3035L89.244 46.2017L89.0329 44.2954L90.9949 44.0781L91.206 45.9844L92.9315 45.7933L93.1087 47.3935L91.3833 47.5846ZM95.2189 44.6103C94.8756 44.6483 94.5762 44.5735 94.3207 44.3858C94.0734 44.1878 93.9318 43.9265 93.8958 43.6018C93.8598 43.2771 93.9414 42.9958 94.1404 42.7578C94.3476 42.5094 94.6229 42.3663 94.9661 42.3283C95.3093 42.2902 95.6046 42.3702 95.8519 42.5682C96.1074 42.7559 96.2532 43.012 96.2892 43.3367C96.3251 43.6614 96.2395 43.9479 96.0322 44.1962C95.8332 44.4343 95.5621 44.5723 95.2189 44.6103ZM96.2807 45.4223L97.1346 53.1312L95.1865 53.347L94.3326 45.6381L96.2807 45.4223ZM109.198 47.6398L106.568 47.9311L106.867 50.6306L105.03 50.834L104.731 48.1345L102.101 48.4258L101.913 46.7282L104.543 46.4369L104.244 43.7374L106.081 43.534L106.38 46.2335L109.01 45.9422L109.198 47.6398ZM120.601 40.7003L120.775 42.2726L118.187 42.5593L119.088 50.6995L117.14 50.9153L116.239 42.7751L113.65 43.0618L113.476 41.4894L120.601 40.7003ZM129.521 41.7405L130.375 49.4493L128.413 49.6667L128.305 48.6926C128.092 49.0543 127.792 49.3552 127.405 49.5952C127.027 49.8249 126.601 49.966 126.128 50.0184C125.525 50.0852 124.978 50.019 124.486 49.8199C123.994 49.6115 123.586 49.2764 123.262 48.8146C122.947 48.3424 122.751 47.7631 122.675 47.0766L122.174 42.5543L124.122 42.3385L124.593 46.5825C124.66 47.1948 124.866 47.651 125.209 47.951C125.551 48.2418 125.986 48.3579 126.515 48.2993C127.053 48.2397 127.457 48.0306 127.728 47.672C127.997 47.3042 128.097 46.8141 128.03 46.2019L127.559 41.9578L129.521 41.7405ZM133.524 42.5085C133.729 42.0726 134.019 41.7166 134.392 41.4405C134.774 41.1634 135.225 40.996 135.745 40.9385L135.971 42.984L135.457 43.041C134.844 43.1088 134.396 43.304 134.113 43.6265C133.839 43.948 133.741 44.4659 133.82 45.1802L134.246 49.0207L132.297 49.2364L131.444 41.5276L133.392 41.3118L133.524 42.5085ZM142.487 48.1078L139.508 45.1136L139.871 48.3975L137.923 48.6133L136.783 38.3163L138.731 38.1005L139.38 43.9587L141.606 40.402L144.138 40.1215L141.171 44.3659L145.02 47.8273L142.487 48.1078ZM152.77 42.8981C152.801 43.1764 152.81 43.4289 152.798 43.6557L147.162 44.2799C147.27 44.8313 147.513 45.2458 147.891 45.5231C148.27 45.8005 148.709 45.9115 149.21 45.856C149.934 45.7759 150.414 45.4081 150.651 44.7526L152.752 44.5199C152.612 45.2867 152.253 45.9462 151.676 46.4985C151.097 47.0414 150.349 47.3638 149.431 47.4655C148.688 47.5477 148.003 47.4593 147.373 47.2004C146.751 46.9312 146.24 46.5136 145.84 45.9476C145.448 45.3806 145.209 44.7028 145.121 43.9143C145.033 43.1165 145.118 42.3982 145.376 41.7592C145.634 41.1203 146.037 40.6061 146.585 40.2167C147.134 39.8273 147.788 39.5904 148.549 39.5062C149.282 39.425 149.953 39.5103 150.563 39.762C151.183 40.0126 151.682 40.4127 152.063 40.9622C152.451 41.5014 152.687 42.1467 152.77 42.8981ZM150.691 42.565C150.626 42.0651 150.401 41.6862 150.015 41.4284C149.629 41.1613 149.181 41.056 148.671 41.1126C148.188 41.166 147.796 41.3596 147.495 41.6935C147.203 42.017 147.048 42.4426 147.031 42.9703L150.691 42.565ZM161.158 38.2363L157.643 50.1195L155.57 50.3492L156.814 46.3237L152.893 39.1518L155.078 38.9098L157.664 44.0745L159.085 38.4659L161.158 38.2363Z" fill="#111111"/>
</svg>
