<svg width="232" height="64" viewBox="0 0 232 64" fill="none" xmlns="http://www.w3.org/2000/svg">
<rect width="232" height="64" rx="12" fill="#111111"/>
<path d="M59.703 25.6156C59.7322 24.7112 59.9813 23.3789 60.8483 22.5036C61.6531 21.6911 62.6328 21.2951 63.243 21.1141C63.4786 21.0442 63.7046 21.2219 63.693 21.4673C63.6522 22.3331 63.4245 23.6245 62.8371 24.3163C62.2834 24.9685 61.3927 25.8333 60.088 25.9788C59.8744 26.0026 59.6961 25.8304 59.703 25.6156Z" fill="#F6F6F6"/>
<path d="M61.9371 42.1695C62.5636 42.4095 63.197 42.6522 63.7703 42.6522C64.9967 42.6522 68.5678 39.8226 68.6964 36.8838C68.7031 36.7329 68.6129 36.5981 68.4811 36.5243C67.5727 36.016 66.0893 34.7503 66.0377 32.909C65.9775 30.7632 67.0549 29.0588 67.8704 28.3538C68.0539 28.1951 68.1169 27.9153 67.9531 27.7364C67.2112 26.9262 65.7186 25.8117 64.3569 25.8391C63.3661 25.859 62.4735 26.228 61.7075 26.5447C61.1198 26.7877 60.6067 26.9998 60.181 26.9998C59.7778 26.9998 59.2938 26.789 58.7383 26.5471C57.9902 26.2213 57.1124 25.8391 56.1277 25.8391C54.3038 25.8391 50.7 27.3516 50.7 33.1904C50.7 36.2857 53.8954 42.7343 56.5917 42.6522C57.174 42.6522 57.7962 42.4111 58.4136 42.1719C59.0217 41.9363 59.625 41.7025 60.181 41.7025C60.7178 41.7025 61.3241 41.9347 61.9371 42.1695Z" fill="#F6F6F6"/>
<path d="M85.528 13.636C86.44 13.636 87.228 13.808 87.892 14.152C88.564 14.488 89.076 14.972 89.428 15.604C89.788 16.236 89.968 16.98 89.968 17.836C89.968 18.692 89.788 19.436 89.428 20.068C89.076 20.692 88.564 21.172 87.892 21.508C87.228 21.836 86.44 22 85.528 22H82.924V13.636H85.528ZM85.528 21.1C86.608 21.1 87.432 20.816 88 20.248C88.568 19.672 88.852 18.868 88.852 17.836C88.852 16.796 88.564 15.984 87.988 15.4C87.42 14.816 86.6 14.524 85.528 14.524H84.016V21.1H85.528ZM94.2764 22.108C93.6604 22.108 93.1004 21.968 92.5964 21.688C92.1004 21.408 91.7084 21.012 91.4204 20.5C91.1404 19.98 91.0004 19.38 91.0004 18.7C91.0004 18.028 91.1444 17.436 91.4324 16.924C91.7284 16.404 92.1284 16.008 92.6324 15.736C93.1364 15.456 93.7004 15.316 94.3244 15.316C94.9484 15.316 95.5124 15.456 96.0164 15.736C96.5204 16.008 96.9164 16.4 97.2044 16.912C97.5004 17.424 97.6484 18.02 97.6484 18.7C97.6484 19.38 97.4964 19.98 97.1924 20.5C96.8964 21.012 96.4924 21.408 95.9804 21.688C95.4684 21.968 94.9004 22.108 94.2764 22.108ZM94.2764 21.148C94.6684 21.148 95.0364 21.056 95.3804 20.872C95.7244 20.688 96.0004 20.412 96.2084 20.044C96.4244 19.676 96.5324 19.228 96.5324 18.7C96.5324 18.172 96.4284 17.724 96.2204 17.356C96.0124 16.988 95.7404 16.716 95.4044 16.54C95.0684 16.356 94.7044 16.264 94.3124 16.264C93.9124 16.264 93.5444 16.356 93.2084 16.54C92.8804 16.716 92.6164 16.988 92.4164 17.356C92.2164 17.724 92.1164 18.172 92.1164 18.7C92.1164 19.236 92.2124 19.688 92.4044 20.056C92.6044 20.424 92.8684 20.7 93.1964 20.884C93.5244 21.06 93.8844 21.148 94.2764 21.148ZM107.844 15.424L105.792 22H104.664L103.08 16.78L101.496 22H100.368L98.3042 15.424H99.4202L100.932 20.944L102.564 15.424H103.68L105.276 20.956L106.764 15.424H107.844ZM112.132 15.304C112.932 15.304 113.58 15.548 114.076 16.036C114.572 16.516 114.82 17.212 114.82 18.124V22H113.74V18.28C113.74 17.624 113.576 17.124 113.248 16.78C112.92 16.428 112.472 16.252 111.904 16.252C111.328 16.252 110.868 16.432 110.524 16.792C110.188 17.152 110.02 17.676 110.02 18.364V22H108.928V15.424H110.02V16.36C110.236 16.024 110.528 15.764 110.896 15.58C111.272 15.396 111.684 15.304 112.132 15.304ZM117.696 13.12V22H116.604V13.12H117.696ZM122.425 22.108C121.809 22.108 121.249 21.968 120.745 21.688C120.249 21.408 119.857 21.012 119.569 20.5C119.289 19.98 119.149 19.38 119.149 18.7C119.149 18.028 119.293 17.436 119.581 16.924C119.877 16.404 120.277 16.008 120.781 15.736C121.285 15.456 121.849 15.316 122.473 15.316C123.097 15.316 123.661 15.456 124.165 15.736C124.669 16.008 125.065 16.4 125.353 16.912C125.649 17.424 125.797 18.02 125.797 18.7C125.797 19.38 125.645 19.98 125.341 20.5C125.045 21.012 124.641 21.408 124.129 21.688C123.617 21.968 123.049 22.108 122.425 22.108ZM122.425 21.148C122.817 21.148 123.185 21.056 123.529 20.872C123.873 20.688 124.149 20.412 124.357 20.044C124.573 19.676 124.681 19.228 124.681 18.7C124.681 18.172 124.577 17.724 124.369 17.356C124.161 16.988 123.889 16.716 123.553 16.54C123.217 16.356 122.853 16.264 122.461 16.264C122.061 16.264 121.693 16.356 121.357 16.54C121.029 16.716 120.765 16.988 120.565 17.356C120.365 17.724 120.265 18.172 120.265 18.7C120.265 19.236 120.361 19.688 120.553 20.056C120.753 20.424 121.017 20.7 121.345 20.884C121.673 21.06 122.033 21.148 122.425 21.148ZM126.825 18.688C126.825 18.016 126.961 17.428 127.233 16.924C127.505 16.412 127.877 16.016 128.349 15.736C128.829 15.456 129.361 15.316 129.945 15.316C130.521 15.316 131.021 15.44 131.445 15.688C131.869 15.936 132.185 16.248 132.393 16.624V15.424H133.497V22H132.393V20.776C132.177 21.16 131.853 21.48 131.421 21.736C130.997 21.984 130.501 22.108 129.933 22.108C129.349 22.108 128.821 21.964 128.349 21.676C127.877 21.388 127.505 20.984 127.233 20.464C126.961 19.944 126.825 19.352 126.825 18.688ZM132.393 18.7C132.393 18.204 132.293 17.772 132.093 17.404C131.893 17.036 131.621 16.756 131.277 16.564C130.941 16.364 130.569 16.264 130.161 16.264C129.753 16.264 129.381 16.36 129.045 16.552C128.709 16.744 128.441 17.024 128.241 17.392C128.041 17.76 127.941 18.192 127.941 18.688C127.941 19.192 128.041 19.632 128.241 20.008C128.441 20.376 128.709 20.66 129.045 20.86C129.381 21.052 129.753 21.148 130.161 21.148C130.569 21.148 130.941 21.052 131.277 20.86C131.621 20.66 131.893 20.376 132.093 20.008C132.293 19.632 132.393 19.196 132.393 18.7ZM134.934 18.688C134.934 18.016 135.07 17.428 135.342 16.924C135.614 16.412 135.986 16.016 136.458 15.736C136.938 15.456 137.474 15.316 138.066 15.316C138.578 15.316 139.054 15.436 139.494 15.676C139.934 15.908 140.27 16.216 140.502 16.6V13.12H141.606V22H140.502V20.764C140.286 21.156 139.966 21.48 139.542 21.736C139.118 21.984 138.622 22.108 138.054 22.108C137.47 22.108 136.938 21.964 136.458 21.676C135.986 21.388 135.614 20.984 135.342 20.464C135.07 19.944 134.934 19.352 134.934 18.688ZM140.502 18.7C140.502 18.204 140.402 17.772 140.202 17.404C140.002 17.036 139.73 16.756 139.386 16.564C139.05 16.364 138.678 16.264 138.27 16.264C137.862 16.264 137.49 16.36 137.154 16.552C136.818 16.744 136.55 17.024 136.35 17.392C136.15 17.76 136.05 18.192 136.05 18.688C136.05 19.192 136.15 19.632 136.35 20.008C136.55 20.376 136.818 20.66 137.154 20.86C137.49 21.052 137.862 21.148 138.27 21.148C138.678 21.148 139.05 21.052 139.386 20.86C139.73 20.66 140.002 20.376 140.202 20.008C140.402 19.632 140.502 19.196 140.502 18.7ZM149.519 22.108C148.903 22.108 148.343 21.968 147.839 21.688C147.343 21.408 146.951 21.012 146.663 20.5C146.383 19.98 146.243 19.38 146.243 18.7C146.243 18.028 146.387 17.436 146.675 16.924C146.971 16.404 147.371 16.008 147.875 15.736C148.379 15.456 148.943 15.316 149.567 15.316C150.191 15.316 150.755 15.456 151.259 15.736C151.763 16.008 152.159 16.4 152.447 16.912C152.743 17.424 152.891 18.02 152.891 18.7C152.891 19.38 152.739 19.98 152.435 20.5C152.139 21.012 151.735 21.408 151.223 21.688C150.711 21.968 150.143 22.108 149.519 22.108ZM149.519 21.148C149.911 21.148 150.279 21.056 150.623 20.872C150.967 20.688 151.243 20.412 151.451 20.044C151.667 19.676 151.775 19.228 151.775 18.7C151.775 18.172 151.671 17.724 151.463 17.356C151.255 16.988 150.983 16.716 150.647 16.54C150.311 16.356 149.947 16.264 149.555 16.264C149.155 16.264 148.787 16.356 148.451 16.54C148.123 16.716 147.859 16.988 147.659 17.356C147.459 17.724 147.359 18.172 147.359 18.7C147.359 19.236 147.455 19.688 147.647 20.056C147.847 20.424 148.111 20.7 148.439 20.884C148.767 21.06 149.127 21.148 149.519 21.148ZM157.53 15.304C158.33 15.304 158.978 15.548 159.474 16.036C159.97 16.516 160.218 17.212 160.218 18.124V22H159.138V18.28C159.138 17.624 158.974 17.124 158.646 16.78C158.318 16.428 157.87 16.252 157.302 16.252C156.726 16.252 156.266 16.432 155.922 16.792C155.586 17.152 155.418 17.676 155.418 18.364V22H154.326V15.424H155.418V16.36C155.634 16.024 155.926 15.764 156.294 15.58C156.67 15.396 157.082 15.304 157.53 15.304ZM166.533 16.324V20.2C166.533 20.52 166.601 20.748 166.737 20.884C166.873 21.012 167.109 21.076 167.445 21.076H168.249V22H167.265C166.657 22 166.201 21.86 165.897 21.58C165.593 21.3 165.441 20.84 165.441 20.2V16.324H164.589V15.424H165.441V13.768H166.533V15.424H168.249V16.324H166.533ZM172.836 15.304C173.332 15.304 173.78 15.412 174.18 15.628C174.58 15.836 174.892 16.152 175.116 16.576C175.348 17 175.464 17.516 175.464 18.124V22H174.384V18.28C174.384 17.624 174.22 17.124 173.892 16.78C173.564 16.428 173.116 16.252 172.548 16.252C171.972 16.252 171.512 16.432 171.168 16.792C170.832 17.152 170.664 17.676 170.664 18.364V22H169.572V13.12H170.664V16.36C170.88 16.024 171.176 15.764 171.552 15.58C171.936 15.396 172.364 15.304 172.836 15.304ZM183.248 18.46C183.248 18.668 183.236 18.888 183.212 19.12H177.956C177.996 19.768 178.216 20.276 178.616 20.644C179.024 21.004 179.516 21.184 180.092 21.184C180.564 21.184 180.956 21.076 181.268 20.86C181.588 20.636 181.812 20.34 181.94 19.972H183.116C182.94 20.604 182.588 21.12 182.06 21.52C181.532 21.912 180.876 22.108 180.092 22.108C179.468 22.108 178.908 21.968 178.412 21.688C177.924 21.408 177.54 21.012 177.26 20.5C176.98 19.98 176.84 19.38 176.84 18.7C176.84 18.02 176.976 17.424 177.248 16.912C177.52 16.4 177.9 16.008 178.388 15.736C178.884 15.456 179.452 15.316 180.092 15.316C180.716 15.316 181.268 15.452 181.748 15.724C182.228 15.996 182.596 16.372 182.852 16.852C183.116 17.324 183.248 17.86 183.248 18.46ZM182.12 18.232C182.12 17.816 182.028 17.46 181.844 17.164C181.66 16.86 181.408 16.632 181.088 16.48C180.776 16.32 180.428 16.24 180.044 16.24C179.492 16.24 179.02 16.416 178.628 16.768C178.244 17.12 178.024 17.608 177.968 18.232H182.12Z" fill="#D1D1D1"/>
<path d="M89.952 43.872H85.504L84.768 46H82.416L86.432 34.816H89.04L93.056 46H90.688L89.952 43.872ZM89.344 42.08L87.728 37.408L86.112 42.08H89.344ZM96.7971 38.416C97.0851 38.0107 97.4798 37.6747 97.9811 37.408C98.4931 37.1307 99.0745 36.992 99.7251 36.992C100.482 36.992 101.165 37.1787 101.773 37.552C102.392 37.9253 102.877 38.4587 103.229 39.152C103.592 39.8347 103.773 40.6293 103.773 41.536C103.773 42.4427 103.592 43.248 103.229 43.952C102.877 44.6453 102.392 45.184 101.773 45.568C101.165 45.952 100.482 46.144 99.7251 46.144C99.0745 46.144 98.4985 46.0107 97.9971 45.744C97.5065 45.4773 97.1065 45.1413 96.7971 44.736V50.224H94.5571V37.136H96.7971V38.416ZM101.485 41.536C101.485 41.0027 101.373 40.544 101.149 40.16C100.936 39.7653 100.648 39.4667 100.285 39.264C99.9331 39.0613 99.5491 38.96 99.1331 38.96C98.7278 38.96 98.3438 39.0667 97.9811 39.28C97.6291 39.4827 97.3411 39.7813 97.1171 40.176C96.9038 40.5707 96.7971 41.0347 96.7971 41.568C96.7971 42.1013 96.9038 42.5653 97.1171 42.96C97.3411 43.3547 97.6291 43.6587 97.9811 43.872C98.3438 44.0747 98.7278 44.176 99.1331 44.176C99.5491 44.176 99.9331 44.0693 100.285 43.856C100.648 43.6427 100.936 43.3387 101.149 42.944C101.373 42.5493 101.485 42.08 101.485 41.536ZM107.641 38.416C107.929 38.0107 108.324 37.6747 108.825 37.408C109.337 37.1307 109.918 36.992 110.569 36.992C111.326 36.992 112.009 37.1787 112.617 37.552C113.236 37.9253 113.721 38.4587 114.073 39.152C114.436 39.8347 114.617 40.6293 114.617 41.536C114.617 42.4427 114.436 43.248 114.073 43.952C113.721 44.6453 113.236 45.184 112.617 45.568C112.009 45.952 111.326 46.144 110.569 46.144C109.918 46.144 109.342 46.0107 108.841 45.744C108.35 45.4773 107.95 45.1413 107.641 44.736V50.224H105.401V37.136H107.641V38.416ZM112.329 41.536C112.329 41.0027 112.217 40.544 111.993 40.16C111.78 39.7653 111.492 39.4667 111.129 39.264C110.777 39.0613 110.393 38.96 109.977 38.96C109.572 38.96 109.188 39.0667 108.825 39.28C108.473 39.4827 108.185 39.7813 107.961 40.176C107.748 40.5707 107.641 41.0347 107.641 41.568C107.641 42.1013 107.748 42.5653 107.961 42.96C108.185 43.3547 108.473 43.6587 108.825 43.872C109.188 44.0747 109.572 44.176 109.977 44.176C110.393 44.176 110.777 44.0693 111.129 43.856C111.492 43.6427 111.78 43.3387 111.993 42.944C112.217 42.5493 112.329 42.08 112.329 41.536ZM123.913 46.112C123.134 46.112 122.43 45.9787 121.801 45.712C121.182 45.4453 120.692 45.0613 120.329 44.56C119.966 44.0587 119.78 43.4667 119.769 42.784H122.169C122.201 43.2427 122.361 43.6053 122.649 43.872C122.948 44.1387 123.353 44.272 123.865 44.272C124.388 44.272 124.798 44.1493 125.097 43.904C125.396 43.648 125.545 43.3173 125.545 42.912C125.545 42.5813 125.444 42.3093 125.241 42.096C125.038 41.8827 124.782 41.7173 124.473 41.6C124.174 41.472 123.758 41.3333 123.225 41.184C122.5 40.9707 121.908 40.7627 121.449 40.56C121.001 40.3467 120.612 40.032 120.281 39.616C119.961 39.1893 119.801 38.624 119.801 37.92C119.801 37.2587 119.966 36.6827 120.297 36.192C120.628 35.7013 121.092 35.328 121.689 35.072C122.286 34.8053 122.969 34.672 123.737 34.672C124.889 34.672 125.822 34.9547 126.537 35.52C127.262 36.0747 127.662 36.8533 127.737 37.856H125.273C125.252 37.472 125.086 37.1573 124.777 36.912C124.478 36.656 124.078 36.528 123.577 36.528C123.14 36.528 122.788 36.64 122.521 36.864C122.265 37.088 122.137 37.4133 122.137 37.84C122.137 38.1387 122.233 38.3893 122.425 38.592C122.628 38.784 122.873 38.944 123.161 39.072C123.46 39.1893 123.876 39.328 124.409 39.488C125.134 39.7013 125.726 39.9147 126.185 40.128C126.644 40.3413 127.038 40.6613 127.369 41.088C127.7 41.5147 127.865 42.0747 127.865 42.768C127.865 43.3653 127.71 43.92 127.401 44.432C127.092 44.944 126.638 45.3547 126.041 45.664C125.444 45.9627 124.734 46.112 123.913 46.112ZM132.415 38.976V43.264C132.415 43.5627 132.484 43.7813 132.623 43.92C132.772 44.048 133.018 44.112 133.359 44.112H134.399V46H132.991C131.103 46 130.159 45.0827 130.159 43.248V38.976H129.103V37.136H130.159V34.944H132.415V37.136H134.399V38.976H132.415ZM139.946 46.144C139.093 46.144 138.325 45.9573 137.642 45.584C136.96 45.2 136.421 44.6613 136.026 43.968C135.642 43.2747 135.45 42.4747 135.45 41.568C135.45 40.6613 135.648 39.8613 136.042 39.168C136.448 38.4747 136.997 37.9413 137.69 37.568C138.384 37.184 139.157 36.992 140.01 36.992C140.864 36.992 141.637 37.184 142.33 37.568C143.024 37.9413 143.568 38.4747 143.962 39.168C144.368 39.8613 144.57 40.6613 144.57 41.568C144.57 42.4747 144.362 43.2747 143.946 43.968C143.541 44.6613 142.986 45.2 142.282 45.584C141.589 45.9573 140.81 46.144 139.946 46.144ZM139.946 44.192C140.352 44.192 140.73 44.096 141.082 43.904C141.445 43.7013 141.733 43.4027 141.946 43.008C142.16 42.6133 142.266 42.1333 142.266 41.568C142.266 40.7253 142.042 40.08 141.594 39.632C141.157 39.1733 140.618 38.944 139.978 38.944C139.338 38.944 138.8 39.1733 138.362 39.632C137.936 40.08 137.722 40.7253 137.722 41.568C137.722 42.4107 137.93 43.0613 138.346 43.52C138.773 43.968 139.306 44.192 139.946 44.192ZM148.453 38.512C148.741 38.0427 149.115 37.6747 149.573 37.408C150.043 37.1413 150.576 37.008 151.173 37.008V39.36H150.581C149.877 39.36 149.344 39.5253 148.981 39.856C148.629 40.1867 148.453 40.7627 148.453 41.584V46H146.213V37.136H148.453V38.512ZM160.922 41.376C160.922 41.696 160.901 41.984 160.858 42.24H154.378C154.431 42.88 154.655 43.3813 155.05 43.744C155.445 44.1067 155.93 44.288 156.506 44.288C157.338 44.288 157.93 43.9307 158.282 43.216H160.698C160.442 44.0693 159.951 44.7733 159.226 45.328C158.501 45.872 157.61 46.144 156.554 46.144C155.701 46.144 154.933 45.9573 154.25 45.584C153.578 45.2 153.05 44.6613 152.666 43.968C152.293 43.2747 152.106 42.4747 152.106 41.568C152.106 40.6507 152.293 39.8453 152.666 39.152C153.039 38.4587 153.562 37.9253 154.234 37.552C154.906 37.1787 155.679 36.992 156.554 36.992C157.397 36.992 158.149 37.1733 158.81 37.536C159.482 37.8987 159.999 38.416 160.362 39.088C160.735 39.7493 160.922 40.512 160.922 41.376ZM158.602 40.736C158.591 40.16 158.383 39.7013 157.978 39.36C157.573 39.008 157.077 38.832 156.49 38.832C155.935 38.832 155.466 39.0027 155.082 39.344C154.709 39.6747 154.479 40.1387 154.394 40.736H158.602Z" fill="#F6F6F6"/>
</svg>
