<svg width="232" height="64" viewBox="0 0 232 64" fill="none" xmlns="http://www.w3.org/2000/svg">
<rect width="232" height="64" rx="12" fill="#111111"/>
<path d="M48.482 19.3705C48.1767 19.6821 48 20.1672 48 20.7955V43.2053C48 43.8336 48.1767 44.3187 48.482 44.6303L48.5573 44.6987L61.437 32.146V31.8496L48.5573 19.297L48.482 19.3705Z" fill="url(#paint0_linear_192_2319)"/>
<path d="M65.7255 36.3324L61.437 32.146V31.8496L65.7306 27.6633L65.8268 27.7178L70.9116 30.5386C72.3628 31.3392 72.3628 32.6565 70.9116 33.4621L65.8268 36.2779L65.7255 36.3324Z" fill="url(#paint1_linear_192_2319)"/>
<path d="M65.8268 36.2779L61.437 31.9978L48.482 44.6303C48.9639 45.1243 49.7499 45.1838 50.6437 44.6898L65.8268 36.2779Z" fill="url(#paint2_linear_192_2319)"/>
<path d="M65.8268 27.7178L50.6437 19.3059C49.7499 18.8169 48.9639 18.8765 48.482 19.3705L61.437 31.9978L65.8268 27.7178Z" fill="url(#paint3_linear_192_2319)"/>
<path d="M89.26 16.06C89.028 15.572 88.692 15.196 88.252 14.932C87.812 14.66 87.3 14.524 86.716 14.524C86.132 14.524 85.604 14.66 85.132 14.932C84.668 15.196 84.3 15.58 84.028 16.084C83.764 16.58 83.632 17.156 83.632 17.812C83.632 18.468 83.764 19.044 84.028 19.54C84.3 20.036 84.668 20.42 85.132 20.692C85.604 20.956 86.132 21.088 86.716 21.088C87.532 21.088 88.204 20.844 88.732 20.356C89.26 19.868 89.568 19.208 89.656 18.376H86.32V17.488H90.82V18.328C90.756 19.016 90.54 19.648 90.172 20.224C89.804 20.792 89.32 21.244 88.72 21.58C88.12 21.908 87.452 22.072 86.716 22.072C85.94 22.072 85.232 21.892 84.592 21.532C83.952 21.164 83.444 20.656 83.068 20.008C82.7 19.36 82.516 18.628 82.516 17.812C82.516 16.996 82.7 16.264 83.068 15.616C83.444 14.96 83.952 14.452 84.592 14.092C85.232 13.724 85.94 13.54 86.716 13.54C87.604 13.54 88.388 13.76 89.068 14.2C89.756 14.64 90.256 15.26 90.568 16.06H89.26ZM98.2638 18.46C98.2638 18.668 98.2518 18.888 98.2278 19.12H92.9718C93.0118 19.768 93.2318 20.276 93.6318 20.644C94.0398 21.004 94.5318 21.184 95.1078 21.184C95.5798 21.184 95.9718 21.076 96.2838 20.86C96.6038 20.636 96.8278 20.34 96.9558 19.972H98.1318C97.9558 20.604 97.6038 21.12 97.0758 21.52C96.5478 21.912 95.8918 22.108 95.1078 22.108C94.4838 22.108 93.9238 21.968 93.4278 21.688C92.9398 21.408 92.5558 21.012 92.2758 20.5C91.9958 19.98 91.8558 19.38 91.8558 18.7C91.8558 18.02 91.9918 17.424 92.2638 16.912C92.5358 16.4 92.9158 16.008 93.4038 15.736C93.8998 15.456 94.4678 15.316 95.1078 15.316C95.7318 15.316 96.2838 15.452 96.7638 15.724C97.2438 15.996 97.6118 16.372 97.8678 16.852C98.1318 17.324 98.2638 17.86 98.2638 18.46ZM97.1358 18.232C97.1358 17.816 97.0438 17.46 96.8598 17.164C96.6758 16.86 96.4238 16.632 96.1038 16.48C95.7918 16.32 95.4438 16.24 95.0598 16.24C94.5078 16.24 94.0358 16.416 93.6438 16.768C93.2598 17.12 93.0398 17.608 92.9838 18.232H97.1358ZM101.037 16.324V20.2C101.037 20.52 101.105 20.748 101.241 20.884C101.377 21.012 101.613 21.076 101.949 21.076H102.753V22H101.769C101.161 22 100.705 21.86 100.401 21.58C100.097 21.3 99.9453 20.84 99.9453 20.2V16.324H99.0933V15.424H99.9453V13.768H101.037V15.424H102.753V16.324H101.037ZM107.84 14.356C107.632 14.356 107.456 14.284 107.312 14.14C107.168 13.996 107.096 13.82 107.096 13.612C107.096 13.404 107.168 13.228 107.312 13.084C107.456 12.94 107.632 12.868 107.84 12.868C108.04 12.868 108.208 12.94 108.344 13.084C108.488 13.228 108.56 13.404 108.56 13.612C108.56 13.82 108.488 13.996 108.344 14.14C108.208 14.284 108.04 14.356 107.84 14.356ZM108.368 15.424V22H107.276V15.424H108.368ZM111.561 16.324V20.2C111.561 20.52 111.629 20.748 111.765 20.884C111.901 21.012 112.137 21.076 112.473 21.076H113.277V22H112.293C111.685 22 111.229 21.86 110.925 21.58C110.621 21.3 110.469 20.84 110.469 20.2V16.324H109.617V15.424H110.469V13.768H111.561V15.424H113.277V16.324H111.561ZM120.667 22.108C120.051 22.108 119.491 21.968 118.987 21.688C118.491 21.408 118.099 21.012 117.811 20.5C117.531 19.98 117.391 19.38 117.391 18.7C117.391 18.028 117.535 17.436 117.823 16.924C118.119 16.404 118.519 16.008 119.023 15.736C119.527 15.456 120.091 15.316 120.715 15.316C121.339 15.316 121.903 15.456 122.407 15.736C122.911 16.008 123.307 16.4 123.595 16.912C123.891 17.424 124.039 18.02 124.039 18.7C124.039 19.38 123.887 19.98 123.583 20.5C123.287 21.012 122.883 21.408 122.371 21.688C121.859 21.968 121.291 22.108 120.667 22.108ZM120.667 21.148C121.059 21.148 121.427 21.056 121.771 20.872C122.115 20.688 122.391 20.412 122.599 20.044C122.815 19.676 122.923 19.228 122.923 18.7C122.923 18.172 122.819 17.724 122.611 17.356C122.403 16.988 122.131 16.716 121.795 16.54C121.459 16.356 121.095 16.264 120.703 16.264C120.303 16.264 119.935 16.356 119.599 16.54C119.271 16.716 119.007 16.988 118.807 17.356C118.607 17.724 118.507 18.172 118.507 18.7C118.507 19.236 118.603 19.688 118.795 20.056C118.995 20.424 119.259 20.7 119.587 20.884C119.915 21.06 120.275 21.148 120.667 21.148ZM128.679 15.304C129.479 15.304 130.127 15.548 130.623 16.036C131.119 16.516 131.367 17.212 131.367 18.124V22H130.287V18.28C130.287 17.624 130.123 17.124 129.795 16.78C129.467 16.428 129.019 16.252 128.451 16.252C127.875 16.252 127.415 16.432 127.071 16.792C126.735 17.152 126.567 17.676 126.567 18.364V22H125.475V15.424H126.567V16.36C126.783 16.024 127.075 15.764 127.443 15.58C127.819 15.396 128.231 15.304 128.679 15.304Z" fill="#D1D1D1"/>
<path d="M90.88 38.192C90.624 37.7227 90.272 37.3653 89.824 37.12C89.376 36.8747 88.8533 36.752 88.256 36.752C87.5947 36.752 87.008 36.9013 86.496 37.2C85.984 37.4987 85.584 37.9253 85.296 38.48C85.008 39.0347 84.864 39.6747 84.864 40.4C84.864 41.1467 85.008 41.7973 85.296 42.352C85.5947 42.9067 86.0053 43.3333 86.528 43.632C87.0507 43.9307 87.6587 44.08 88.352 44.08C89.2053 44.08 89.904 43.856 90.448 43.408C90.992 42.9493 91.3493 42.3147 91.52 41.504H87.68V39.792H93.728V41.744C93.5787 42.5227 93.2587 43.2427 92.768 43.904C92.2773 44.5653 91.6427 45.0987 90.864 45.504C90.096 45.8987 89.232 46.096 88.272 46.096C87.1947 46.096 86.2187 45.856 85.344 45.376C84.48 44.8853 83.7973 44.208 83.296 43.344C82.8053 42.48 82.56 41.4987 82.56 40.4C82.56 39.3013 82.8053 38.32 83.296 37.456C83.7973 36.5813 84.48 35.904 85.344 35.424C86.2187 34.9333 87.1893 34.688 88.256 34.688C89.5147 34.688 90.608 34.9973 91.536 35.616C92.464 36.224 93.104 37.0827 93.456 38.192H90.88ZM99.3213 46.144C98.4679 46.144 97.6999 45.9573 97.0173 45.584C96.3346 45.2 95.7959 44.6613 95.4013 43.968C95.0173 43.2747 94.8253 42.4747 94.8253 41.568C94.8253 40.6613 95.0226 39.8613 95.4173 39.168C95.8226 38.4747 96.3719 37.9413 97.0653 37.568C97.7586 37.184 98.5319 36.992 99.3853 36.992C100.239 36.992 101.012 37.184 101.705 37.568C102.399 37.9413 102.943 38.4747 103.337 39.168C103.743 39.8613 103.945 40.6613 103.945 41.568C103.945 42.4747 103.737 43.2747 103.321 43.968C102.916 44.6613 102.361 45.2 101.657 45.584C100.964 45.9573 100.185 46.144 99.3213 46.144ZM99.3213 44.192C99.7266 44.192 100.105 44.096 100.457 43.904C100.82 43.7013 101.108 43.4027 101.321 43.008C101.535 42.6133 101.641 42.1333 101.641 41.568C101.641 40.7253 101.417 40.08 100.969 39.632C100.532 39.1733 99.9933 38.944 99.3533 38.944C98.7133 38.944 98.1746 39.1733 97.7373 39.632C97.3106 40.08 97.0973 40.7253 97.0973 41.568C97.0973 42.4107 97.3053 43.0613 97.7213 43.52C98.1479 43.968 98.6813 44.192 99.3213 44.192ZM109.524 46.144C108.671 46.144 107.903 45.9573 107.22 45.584C106.538 45.2 105.999 44.6613 105.604 43.968C105.22 43.2747 105.028 42.4747 105.028 41.568C105.028 40.6613 105.226 39.8613 105.62 39.168C106.026 38.4747 106.575 37.9413 107.268 37.568C107.962 37.184 108.735 36.992 109.588 36.992C110.442 36.992 111.215 37.184 111.908 37.568C112.602 37.9413 113.146 38.4747 113.54 39.168C113.946 39.8613 114.148 40.6613 114.148 41.568C114.148 42.4747 113.94 43.2747 113.524 43.968C113.119 44.6613 112.564 45.2 111.86 45.584C111.167 45.9573 110.388 46.144 109.524 46.144ZM109.524 44.192C109.93 44.192 110.308 44.096 110.66 43.904C111.023 43.7013 111.311 43.4027 111.524 43.008C111.738 42.6133 111.844 42.1333 111.844 41.568C111.844 40.7253 111.62 40.08 111.172 39.632C110.735 39.1733 110.196 38.944 109.556 38.944C108.916 38.944 108.378 39.1733 107.94 39.632C107.514 40.08 107.3 40.7253 107.3 41.568C107.3 42.4107 107.508 43.0613 107.924 43.52C108.351 43.968 108.884 44.192 109.524 44.192ZM119.264 36.992C119.925 36.992 120.506 37.1253 121.008 37.392C121.509 37.648 121.904 37.984 122.192 38.4V37.136H124.448V46.064C124.448 46.8853 124.282 47.616 123.952 48.256C123.621 48.9067 123.125 49.4187 122.464 49.792C121.802 50.176 121.002 50.368 120.064 50.368C118.805 50.368 117.77 50.0747 116.96 49.488C116.16 48.9013 115.706 48.1013 115.6 47.088H117.824C117.941 47.4933 118.192 47.8133 118.576 48.048C118.97 48.2933 119.445 48.416 120 48.416C120.65 48.416 121.178 48.2187 121.584 47.824C121.989 47.44 122.192 46.8533 122.192 46.064V44.688C121.904 45.104 121.504 45.4507 120.992 45.728C120.49 46.0053 119.914 46.144 119.264 46.144C118.517 46.144 117.834 45.952 117.216 45.568C116.597 45.184 116.106 44.6453 115.743 43.952C115.391 43.248 115.215 42.4427 115.215 41.536C115.215 40.64 115.391 39.8453 115.743 39.152C116.106 38.4587 116.592 37.9253 117.2 37.552C117.818 37.1787 118.506 36.992 119.264 36.992ZM122.192 41.568C122.192 41.024 122.085 40.56 121.872 40.176C121.658 39.7813 121.37 39.4827 121.008 39.28C120.645 39.0667 120.256 38.96 119.84 38.96C119.424 38.96 119.04 39.0613 118.688 39.264C118.336 39.4667 118.048 39.7653 117.824 40.16C117.61 40.544 117.504 41.0027 117.504 41.536C117.504 42.0693 117.61 42.5387 117.824 42.944C118.048 43.3387 118.336 43.6427 118.688 43.856C119.05 44.0693 119.434 44.176 119.84 44.176C120.256 44.176 120.645 44.0747 121.008 43.872C121.37 43.6587 121.658 43.36 121.872 42.976C122.085 42.5813 122.192 42.112 122.192 41.568ZM128.875 34.16V46H126.635V34.16H128.875ZM139.328 41.376C139.328 41.696 139.307 41.984 139.264 42.24H132.784C132.838 42.88 133.062 43.3813 133.456 43.744C133.851 44.1067 134.336 44.288 134.912 44.288C135.744 44.288 136.336 43.9307 136.688 43.216H139.104C138.848 44.0693 138.358 44.7733 137.632 45.328C136.907 45.872 136.016 46.144 134.96 46.144C134.107 46.144 133.339 45.9573 132.656 45.584C131.984 45.2 131.456 44.6613 131.072 43.968C130.699 43.2747 130.512 42.4747 130.512 41.568C130.512 40.6507 130.699 39.8453 131.072 39.152C131.446 38.4587 131.968 37.9253 132.64 37.552C133.312 37.1787 134.086 36.992 134.96 36.992C135.803 36.992 136.555 37.1733 137.216 37.536C137.888 37.8987 138.406 38.416 138.768 39.088C139.142 39.7493 139.328 40.512 139.328 41.376ZM137.008 40.736C136.998 40.16 136.79 39.7013 136.384 39.36C135.979 39.008 135.483 38.832 134.896 38.832C134.342 38.832 133.872 39.0027 133.488 39.344C133.115 39.6747 132.886 40.1387 132.8 40.736H137.008ZM152.92 38.288C152.92 38.8853 152.776 39.4453 152.488 39.968C152.211 40.4907 151.768 40.912 151.16 41.232C150.563 41.552 149.805 41.712 148.888 41.712H147.016V46H144.776V34.832H148.888C149.752 34.832 150.488 34.9813 151.096 35.28C151.704 35.5787 152.157 35.9893 152.456 36.512C152.765 37.0347 152.92 37.6267 152.92 38.288ZM148.792 39.904C149.411 39.904 149.869 39.7653 150.168 39.488C150.467 39.2 150.616 38.8 150.616 38.288C150.616 37.2 150.008 36.656 148.792 36.656H147.016V39.904H148.792ZM156.75 34.16V46H154.51V34.16H156.75ZM158.387 41.536C158.387 40.64 158.563 39.8453 158.915 39.152C159.278 38.4587 159.763 37.9253 160.371 37.552C160.99 37.1787 161.678 36.992 162.435 36.992C163.097 36.992 163.673 37.1253 164.163 37.392C164.665 37.6587 165.065 37.9947 165.363 38.4V37.136H167.619V46H165.363V44.704C165.075 45.12 164.675 45.4667 164.163 45.744C163.662 46.0107 163.081 46.144 162.419 46.144C161.673 46.144 160.99 45.952 160.371 45.568C159.763 45.184 159.278 44.6453 158.915 43.952C158.563 43.248 158.387 42.4427 158.387 41.536ZM165.363 41.568C165.363 41.024 165.257 40.56 165.043 40.176C164.83 39.7813 164.542 39.4827 164.179 39.28C163.817 39.0667 163.427 38.96 163.011 38.96C162.595 38.96 162.211 39.0613 161.859 39.264C161.507 39.4667 161.219 39.7653 160.995 40.16C160.782 40.544 160.675 41.0027 160.675 41.536C160.675 42.0693 160.782 42.5387 160.995 42.944C161.219 43.3387 161.507 43.6427 161.859 43.856C162.222 44.0693 162.606 44.176 163.011 44.176C163.427 44.176 163.817 44.0747 164.179 43.872C164.542 43.6587 164.83 43.36 165.043 42.976C165.257 42.5813 165.363 42.112 165.363 41.568ZM178.287 37.136L172.799 50.192H170.415L172.335 45.776L168.783 37.136H171.295L173.583 43.328L175.903 37.136H178.287Z" fill="#F6F6F6"/>
<defs>
<linearGradient id="paint0_linear_192_2319" x1="60.2935" y1="43.4387" x2="43.2928" y2="26.0021" gradientUnits="userSpaceOnUse">
<stop stop-color="#00A0FF"/>
<stop offset="0.0066" stop-color="#00A1FF"/>
<stop offset="0.2601" stop-color="#00BEFF"/>
<stop offset="0.5122" stop-color="#00D2FF"/>
<stop offset="0.7604" stop-color="#00DFFF"/>
<stop offset="1" stop-color="#00E3FF"/>
</linearGradient>
<linearGradient id="paint1_linear_192_2319" x1="72.8013" y1="31.9964" x2="47.6531" y2="31.9964" gradientUnits="userSpaceOnUse">
<stop stop-color="#FFE000"/>
<stop offset="0.4087" stop-color="#FFBD00"/>
<stop offset="0.7754" stop-color="#FFA500"/>
<stop offset="1" stop-color="#FF9C00"/>
</linearGradient>
<linearGradient id="paint2_linear_192_2319" x1="63.4398" y1="29.6711" x2="40.3855" y2="6.02568" gradientUnits="userSpaceOnUse">
<stop stop-color="#FF3A44"/>
<stop offset="1" stop-color="#C31162"/>
</linearGradient>
<linearGradient id="paint3_linear_192_2319" x1="45.2209" y1="52.0859" x2="55.5157" y2="41.5273" gradientUnits="userSpaceOnUse">
<stop stop-color="#32A071"/>
<stop offset="0.0685" stop-color="#2DA771"/>
<stop offset="0.4762" stop-color="#15CF74"/>
<stop offset="0.8009" stop-color="#06E775"/>
<stop offset="1" stop-color="#00F076"/>
</linearGradient>
</defs>
</svg>
