<svg width="23" height="23" viewBox="0 0 23 23" fill="none" xmlns="http://www.w3.org/2000/svg">
<path d="M11.3841 9.98951L11.8554 9.40605L11.3841 9.98951ZM11.079 9.69587L11.6444 9.20304V9.20304L11.079 9.69587ZM20.921 9.69587L20.3556 9.20304V9.20304L20.921 9.69587ZM20.6159 9.98951L20.1446 9.40605L20.6159 9.98951ZM20.6159 2.10424L20.1446 2.6877L20.6159 2.10424ZM20.921 2.39788L20.3556 2.89071V2.89071L20.921 2.39788ZM11.3841 2.10424L11.8554 2.6877L11.3841 2.10424ZM11.079 2.39788L11.6444 2.89071V2.89071L11.079 2.39788ZM10.5 4.29688C10.0858 4.29688 9.75 4.63266 9.75 5.04688C9.75 5.46109 10.0858 5.79688 10.5 5.79688L10.5 4.29688ZM21.5 5.79688C21.9142 5.79688 22.25 5.46109 22.25 5.04688C22.25 4.63266 21.9142 4.29688 21.5 4.29688V5.79688ZM15.175 1.54688V2.29688H16.825V1.54688V0.796875H15.175V1.54688ZM16.825 10.5469V9.79688H15.175V10.5469V11.2969H16.825V10.5469ZM15.175 10.5469V9.79688C14.1234 9.79688 13.3992 9.7957 12.8492 9.73216C12.3141 9.67035 12.044 9.55841 11.8554 9.40605L11.3841 9.98951L10.9128 10.573C11.4143 10.978 12.006 11.1447 12.677 11.2222C13.3332 11.298 14.1594 11.2969 15.175 11.2969V10.5469ZM10.5 6.04688H9.75C9.75 7.0224 9.74864 7.82361 9.82814 8.46127C9.91006 9.11825 10.0874 9.6997 10.5137 10.1887L11.079 9.69587L11.6444 9.20304C11.4916 9.0278 11.3795 8.77967 11.3166 8.27567C11.2514 7.75235 11.25 7.06118 11.25 6.04688H10.5ZM11.3841 9.98951L11.8554 9.40605C11.7787 9.34414 11.7081 9.27617 11.6444 9.20304L11.079 9.69587L10.5137 10.1887C10.6352 10.328 10.7688 10.4566 10.9128 10.573L11.3841 9.98951ZM21.5 6.04688H20.75C20.75 7.06118 20.7486 7.75235 20.6834 8.27567C20.6205 8.77967 20.5084 9.0278 20.3556 9.20304L20.921 9.69587L21.4863 10.1887C21.9126 9.6997 22.0899 9.11825 22.1719 8.46127C22.2514 7.82361 22.25 7.0224 22.25 6.04688H21.5ZM16.825 10.5469V11.2969C17.8406 11.2969 18.6668 11.298 19.323 11.2222C19.994 11.1447 20.5857 10.978 21.0872 10.573L20.6159 9.98951L20.1446 9.40605C19.956 9.55841 19.6859 9.67035 19.1508 9.73216C18.6008 9.7957 17.8766 9.79688 16.825 9.79688V10.5469ZM20.921 9.69587L20.3556 9.20304C20.2919 9.27617 20.2213 9.34414 20.1446 9.40605L20.6159 9.98951L21.0872 10.573C21.2312 10.4566 21.3648 10.328 21.4863 10.1887L20.921 9.69587ZM16.825 1.54688V2.29688C17.8766 2.29688 18.6008 2.29805 19.1508 2.36159C19.6859 2.4234 19.956 2.53534 20.1446 2.6877L20.6159 2.10424L21.0872 1.52078C20.5857 1.11577 19.994 0.949029 19.323 0.871501C18.6668 0.795701 17.8406 0.796875 16.825 0.796875V1.54688ZM21.5 6.04688H22.25C22.25 5.07135 22.2514 4.27014 22.1719 3.63248C22.0899 2.9755 21.9126 2.39405 21.4863 1.90505L20.921 2.39788L20.3556 2.89071C20.5084 3.06596 20.6205 3.31408 20.6834 3.81808C20.7486 4.3414 20.75 5.03257 20.75 6.04688H21.5ZM20.6159 2.10424L20.1446 2.6877C20.2213 2.74961 20.2919 2.81758 20.3556 2.89071L20.921 2.39788L21.4863 1.90505C21.3648 1.7657 21.2312 1.63716 21.0872 1.52078L20.6159 2.10424ZM15.175 1.54688V0.796875C14.1594 0.796875 13.3332 0.795701 12.677 0.871501C12.006 0.949028 11.4143 1.11577 10.9128 1.52078L11.3841 2.10424L11.8554 2.6877C12.044 2.53534 12.3141 2.4234 12.8492 2.36159C13.3992 2.29805 14.1234 2.29688 15.175 2.29688V1.54688ZM10.5 6.04688H11.25C11.25 5.03257 11.2514 4.3414 11.3166 3.81808C11.3795 3.31408 11.4916 3.06596 11.6444 2.89071L11.079 2.39788L10.5137 1.90505C10.0874 2.39405 9.91006 2.9755 9.82814 3.63248C9.74864 4.27014 9.75 5.07135 9.75 6.04688H10.5ZM11.3841 2.10424L10.9128 1.52078C10.7688 1.63716 10.6352 1.7657 10.5137 1.90505L11.079 2.39788L11.6444 2.89071C11.7081 2.81758 11.7787 2.74961 11.8554 2.6877L11.3841 2.10424ZM10.5 5.04688L10.5 5.79688L21.5 5.79688V5.04688V4.29688L10.5 4.29688L10.5 5.04688Z" fill="#111111"/>
<path d="M1.5 15.2969C1.08579 15.2969 0.75 15.6327 0.75 16.0469C0.75 16.4611 1.08579 16.7969 1.5 16.7969L1.5 15.2969ZM12.5 16.7969C12.9142 16.7969 13.25 16.4611 13.25 16.0469C13.25 15.6327 12.9142 15.2969 12.5 15.2969V16.7969ZM2.3841 20.9895L2.85535 20.4061L2.3841 20.9895ZM2.07904 20.6959L2.64439 20.203L2.64439 20.203L2.07904 20.6959ZM11.921 20.6959L11.3556 20.203V20.203L11.921 20.6959ZM11.6159 20.9895L11.1446 20.4061L11.6159 20.9895ZM11.6159 13.1042L11.1446 13.6877L11.6159 13.1042ZM11.921 13.3979L11.3556 13.8907V13.8907L11.921 13.3979ZM2.3841 13.1042L2.85535 13.6877L2.3841 13.1042ZM2.07904 13.3979L2.64439 13.8907L2.64439 13.8907L2.07904 13.3979ZM1.5 16.0469L1.5 16.7969L12.5 16.7969V16.0469V15.2969L1.5 15.2969L1.5 16.0469ZM6.175 12.5469V13.2969H7.825V12.5469V11.7969H6.175V12.5469ZM7.825 21.5469V20.7969H6.175V21.5469V22.2969H7.825V21.5469ZM6.175 21.5469V20.7969C5.12339 20.7969 4.3992 20.7957 3.84919 20.7322C3.31414 20.6703 3.04398 20.5584 2.85535 20.4061L2.3841 20.9895L1.91285 21.573C2.41429 21.978 3.00598 22.1447 3.67705 22.2222C4.33317 22.298 5.15939 22.2969 6.175 22.2969V21.5469ZM1.5 17.0469H0.75C0.75 18.0224 0.748635 18.8236 0.828143 19.4613C0.910061 20.1183 1.08742 20.6997 1.51369 21.1887L2.07904 20.6959L2.64439 20.203C2.49162 20.0278 2.37946 19.7797 2.31662 19.2757C2.25136 18.7523 2.25 18.0612 2.25 17.0469H1.5ZM2.3841 20.9895L2.85535 20.4061C2.77869 20.3441 2.70814 20.2762 2.64439 20.203L2.07904 20.6959L1.51369 21.1887C1.63517 21.328 1.76876 21.4566 1.91285 21.573L2.3841 20.9895ZM12.5 17.0469H11.75C11.75 18.0612 11.7486 18.7523 11.6834 19.2757C11.6205 19.7797 11.5084 20.0278 11.3556 20.203L11.921 20.6959L12.4863 21.1887C12.9126 20.6997 13.0899 20.1183 13.1719 19.4613C13.2514 18.8236 13.25 18.0224 13.25 17.0469H12.5ZM7.825 21.5469V22.2969C8.84061 22.2969 9.66683 22.298 10.323 22.2222C10.994 22.1447 11.5857 21.978 12.0872 21.573L11.6159 20.9895L11.1446 20.4061C10.956 20.5584 10.6859 20.6703 10.1508 20.7322C9.6008 20.7957 8.87661 20.7969 7.825 20.7969V21.5469ZM11.921 20.6959L11.3556 20.203C11.2919 20.2762 11.2213 20.3441 11.1446 20.4061L11.6159 20.9895L12.0872 21.573C12.2312 21.4566 12.3648 21.328 12.4863 21.1887L11.921 20.6959ZM7.825 12.5469V13.2969C8.87661 13.2969 9.6008 13.298 10.1508 13.3616C10.6859 13.4234 10.956 13.5353 11.1446 13.6877L11.6159 13.1042L12.0872 12.5208C11.5857 12.1158 10.994 11.949 10.323 11.8715C9.66683 11.7957 8.84061 11.7969 7.825 11.7969V12.5469ZM12.5 17.0469H13.25C13.25 16.0713 13.2514 15.2701 13.1719 14.6325C13.0899 13.9755 12.9126 13.394 12.4863 12.9051L11.921 13.3979L11.3556 13.8907C11.5084 14.066 11.6205 14.3141 11.6834 14.8181C11.7486 15.3414 11.75 16.0326 11.75 17.0469H12.5ZM11.6159 13.1042L11.1446 13.6877C11.2213 13.7496 11.2919 13.8176 11.3556 13.8907L11.921 13.3979L12.4863 12.9051C12.3648 12.7657 12.2312 12.6372 12.0872 12.5208L11.6159 13.1042ZM6.175 12.5469V11.7969C5.15939 11.7969 4.33317 11.7957 3.67705 11.8715C3.00598 11.949 2.41429 12.1158 1.91285 12.5208L2.3841 13.1042L2.85535 13.6877C3.04398 13.5353 3.31414 13.4234 3.84919 13.3616C4.3992 13.298 5.12339 13.2969 6.175 13.2969V12.5469ZM1.5 17.0469H2.25C2.25 16.0326 2.25136 15.3414 2.31662 14.8181C2.37946 14.3141 2.49162 14.066 2.64439 13.8907L2.07904 13.3979L1.51369 12.9051C1.08742 13.394 0.910061 13.9755 0.828143 14.6325C0.748635 15.2701 0.75 16.0713 0.75 17.0469H1.5ZM2.3841 13.1042L1.91285 12.5208C1.76876 12.6372 1.63517 12.7657 1.51369 12.9051L2.07904 13.3979L2.64439 13.8907C2.70814 13.8176 2.77869 13.7496 2.85535 13.6877L2.3841 13.1042Z" fill="#111111"/>
<path d="M1.5 9.54688C1.5 6.22973 4.18286 3.54688 7.5 3.54688L6.64286 5.26116" stroke="#111111" stroke-width="1.5" stroke-linecap="round" stroke-linejoin="round"/>
<path d="M21.5 13.5469C21.5 16.864 18.8171 19.5469 15.5 19.5469L16.3571 17.8326" stroke="#111111" stroke-width="1.5" stroke-linecap="round" stroke-linejoin="round"/>
</svg>
