<svg width="16" height="16" viewBox="0 0 16 16" fill="none" xmlns="http://www.w3.org/2000/svg">
<path d="M13 3.66699L12.5868 10.3504C12.4813 12.058 12.4285 12.9117 12.0005 13.5256C11.7889 13.8291 11.5164 14.0852 11.2005 14.2777C10.5614 14.667 9.70599 14.667 7.99516 14.667C6.28208 14.667 5.42554 14.667 4.78604 14.2769C4.46987 14.0841 4.19733 13.8275 3.98579 13.5236C3.55792 12.9087 3.5063 12.0537 3.40307 10.3438L3 3.66699" stroke="#FF0000" stroke-width="1.5" stroke-linecap="round"/>
<path d="M2 3.66732H14M10.7038 3.66732L10.2487 2.72847C9.94638 2.10482 9.79522 1.793 9.53448 1.59852C9.47664 1.55538 9.4154 1.51701 9.35135 1.48379C9.06261 1.33398 8.71608 1.33398 8.02302 1.33398C7.31255 1.33398 6.95732 1.33398 6.66379 1.49006C6.59873 1.52466 6.53666 1.56458 6.4782 1.60943C6.21443 1.81178 6.06709 2.13502 5.7724 2.78149L5.36862 3.66732" stroke="#FF0000" stroke-width="1.5" stroke-linecap="round"/>
<path d="M6.33398 11L6.33398 7" stroke="#FF0000" stroke-width="1.5" stroke-linecap="round"/>
<path d="M9.66602 11L9.66602 7" stroke="#FF0000" stroke-width="1.5" stroke-linecap="round"/>
</svg>
