<svg width="25" height="24" viewBox="0 0 25 24" fill="none" xmlns="http://www.w3.org/2000/svg">
<path d="M2.5 10C2.5 6.68286 5.18286 4 8.5 4L7.64286 5.71429" stroke="#0EAD65" stroke-width="1.5" stroke-linecap="round" stroke-linejoin="round"/>
<path d="M22.5 14C22.5 17.3171 19.8171 20 16.5 20L17.3571 18.2857" stroke="#0EAD65" stroke-width="1.5" stroke-linecap="round" stroke-linejoin="round"/>
<path d="M17.75 2.5156C19.5803 1.76088 21.1915 2.01217 22.0651 2.17234C22.3138 2.21794 22.5 2.46181 22.5 2.74528V9.20426C22.5 9.54282 22.238 9.79534 21.9407 9.74278C21.0437 9.58416 19.4966 9.38826 17.75 10.1085C15.8721 10.8828 13.982 11.0285 12.9505 10.9958C12.6939 10.9877 12.5 10.7457 12.5 10.4568V3.99467C12.5 3.66171 12.7552 3.39978 13.0512 3.40549C14.1018 3.42576 15.9316 3.2654 17.75 2.5156Z" stroke="#0EAD65" stroke-width="1.5" stroke-linecap="round" stroke-linejoin="round"/>
<path d="M7.75 13.5156C9.58032 12.7609 11.1915 13.0122 12.0651 13.1723C12.3138 13.2179 12.5 13.4618 12.5 13.7453V20.2043C12.5 20.5428 12.238 20.7953 11.9407 20.7428C11.0437 20.5842 9.49663 20.3883 7.75 21.1085C5.87206 21.8828 3.98197 22.0285 2.95052 21.9958C2.69389 21.9877 2.5 21.7457 2.5 21.4568V14.9947C2.5 14.6617 2.75525 14.3998 3.05116 14.4055C4.10178 14.4258 5.93158 14.2654 7.75 13.5156Z" stroke="#0EAD65" stroke-width="1.5" stroke-linecap="round" stroke-linejoin="round"/>
<path d="M17.4998 6.5H17.5088" stroke="#0EAD65" stroke-width="2" stroke-linecap="round" stroke-linejoin="round"/>
<path d="M7.49981 17.5H7.50879" stroke="#0EAD65" stroke-width="2" stroke-linecap="round" stroke-linejoin="round"/>
</svg>
