<svg width="42" height="55" viewBox="0 0 42 55" fill="none" xmlns="http://www.w3.org/2000/svg">
<path d="M9.54605 14.5681C10.0484 14.1453 10.4805 13.7377 10.9564 13.3911C11.6163 12.9103 12.6657 12.8524 13.2565 13.2C14.4085 13.8779 15.0562 14.7185 14.7705 16.0835C14.6342 16.735 14.5387 17.4292 14.2367 18.0055C13.2504 19.8869 10.512 20.5526 8.61058 19.5555C6.93282 18.6753 6.06038 17.3306 5.5296 15.5458C5.21743 14.4959 5.01711 13.4897 5.2164 12.456C5.43095 11.341 5.62821 10.1884 6.49048 9.30823C6.9694 8.82036 7.31107 8.16275 7.85609 7.78364C8.84343 7.09452 9.87346 6.34137 11.0011 6.01307C12.264 5.64616 13.655 5.70716 14.9932 5.61772C15.2026 5.60349 15.4254 5.77425 15.706 5.88503C15.5809 4.07382 16.1717 2.70574 17.1773 1.74322C18.1799 0.783742 19.5069 -0.00496762 21.0067 0.0712619C21.6585 0.104803 22.3764 0.491019 22.9051 0.914855C23.5772 1.45456 24.0633 2.21887 24.6724 2.84497C26.0593 4.27199 26.9897 5.9887 27.674 7.81211C28.3055 9.49729 28.7356 11.2932 28.3818 13.0973C28.1398 14.3302 28.7722 14.9391 29.5928 15.5235C30.7052 16.3153 31.8522 17.0582 32.9636 17.852C34.1827 18.7221 35.4304 19.5636 36.5713 20.5292C38.0172 21.755 39.5587 22.9096 40.5562 24.5806C41.6208 26.3633 41.689 29.3098 40.4332 31.059C40.0956 31.5296 40.0559 31.9301 40.42 32.4972C41.1582 33.6478 41.4073 34.9722 41.2507 36.3402C41.023 38.3222 40.6498 40.2503 39.5414 41.9853C38.5409 43.5525 37.1295 44.5537 35.3796 44.9176C34.3373 45.1341 33.8574 45.6321 33.6031 46.5489C32.9615 48.8673 31.7474 50.7476 29.5287 51.8596C28.0767 52.5873 26.6684 53.4299 25.1605 54.0143C23.8671 54.5154 22.473 54.5265 21.1267 53.9594C20.8705 53.8517 20.5064 53.8913 20.2238 53.9726C17.6217 54.7186 14.9576 55.2472 12.4074 54.0661C10.2507 53.067 8.25265 51.7183 7.25412 49.3663C7.03957 48.8602 6.824 48.354 6.58708 47.858C6.52607 47.7299 6.40204 47.5836 6.27494 47.5409C3.61593 46.6444 2.19645 44.6462 1.49382 42.0707C1.19894 40.9912 1.0291 39.8661 0.924369 38.7501C0.820653 37.6453 1.48873 37.0659 2.61435 37.1178C2.74756 37.1239 2.88177 37.1279 3.11768 37.1371C2.97024 36.6218 2.87568 36.1349 2.69367 35.6826C1.94122 33.8104 1.86394 31.8183 1.76531 29.8587C1.71752 28.9063 2.02764 27.8737 2.43031 26.9935C2.57571 26.6774 3.50407 26.5209 4.0074 26.6235C4.5026 26.7252 4.99168 27.1825 5.33435 27.6054C5.59466 27.9255 5.62111 28.4347 5.80109 29.0212C6.06445 28.637 6.30544 28.3524 6.4722 28.0312C7.28159 26.4741 8.9807 25.8683 10.4368 26.6662C10.6381 26.776 10.8354 27.0189 10.8964 27.2384C11.4577 29.2529 11.5096 31.2542 10.753 33.2504C10.2863 34.4823 9.9233 35.7528 9.482 36.9938C9.29795 37.5111 8.98071 37.9827 8.81191 38.5041C8.44789 39.6283 8.60853 40.7605 8.98069 41.844C9.05085 42.0483 9.56435 42.2526 9.83585 42.2109C11.6722 41.9304 13.4812 42.0269 15.2443 42.5778C16.0893 42.8411 16.8743 43.2913 17.702 43.6156C17.9125 43.6979 18.3314 43.7172 18.4097 43.6003C19.8048 41.5289 21.8619 40.5684 24.2046 40.0613C24.5148 39.9942 24.8219 39.9129 25.1513 39.8336C25.4553 38.0518 26.0817 36.4083 27.3537 35.0565C27.428 34.9783 27.3517 34.6866 27.2663 34.5402C25.6973 31.8457 24.5249 28.9846 23.563 26.0228C22.6387 23.1759 21.5954 20.3676 20.6569 17.5258C20.0031 15.5448 19.8221 13.5364 20.6742 11.5453C20.8806 11.0625 20.9101 10.5554 20.4281 10.2576C20.1505 10.0858 19.7265 10.0238 19.3981 10.0807C18.6039 10.2199 17.1651 9.58367 16.7523 8.83052C16.4991 8.36908 16.2276 7.91781 15.9826 7.4523C15.645 6.81299 15.0034 6.71745 14.4278 6.7388C13.2981 6.7825 12.1491 6.85772 11.053 7.11182C9.38335 7.49805 8.2018 8.61402 7.22768 9.99937C6.50675 11.0239 6.35527 12.1419 6.48135 13.3209C6.65116 14.9177 6.98975 16.4453 8.2496 17.6233C9.18 18.4934 10.8944 19.1713 12.2498 18.408C13.0073 17.9811 13.4547 17.2971 13.5645 16.3864C13.6733 15.4889 13.0989 14.9757 12.5467 14.502C11.9915 14.0274 11.4841 14.3658 11.0072 14.8029C10.3453 15.4066 10.1663 15.3619 9.54605 14.5681ZM23.6108 12.5881C24.0745 14.1747 24.5422 15.6058 24.8961 17.0633C25.0547 17.7189 25.0415 18.4334 24.9896 19.1124C24.9734 19.3227 24.5748 19.5047 24.3521 19.6998C24.2717 19.4823 24.1843 19.2679 24.1131 19.0483C24.0735 18.9243 24.047 18.7912 24.0379 18.6611C23.8986 16.6761 23.077 14.9075 22.2493 13.1492C22.0744 12.7772 21.6758 12.5109 21.3809 12.1968C21.2294 12.6135 20.9122 13.0496 20.9579 13.4439C21.081 14.5071 21.3545 15.5519 21.5761 16.6029C21.6738 17.0643 21.7378 17.542 21.9056 17.9781C22.8289 20.3747 23.7969 22.7531 24.7141 25.1518C25.5814 27.4204 26.3684 29.7205 27.2683 31.9758C27.5642 32.7168 28.0299 33.4211 28.5424 34.0391C29.2125 34.8451 30.2893 34.8583 31.2065 34.9457C32.988 35.1155 34.6942 34.7892 36.2622 33.7677C38.1057 32.5664 39.4336 31.0814 39.9421 28.8708C40.3966 26.8939 39.7021 25.2666 38.4565 23.9169C37.3217 22.687 35.9673 21.6401 34.62 20.6329C32.7714 19.2506 30.8364 17.9842 28.94 16.6649C27.5144 15.6729 25.9271 14.9014 24.8259 13.4734C24.5443 13.1075 24.0551 12.9022 23.6108 12.5881ZM32.5985 45.566C31.4983 45.3373 30.5242 45.1971 29.5887 44.9257C27.8743 44.4287 26.279 43.6603 25.5814 41.8836C25.2459 41.0278 24.6053 40.9353 23.8589 41.2108C23.6139 41.3012 23.3739 41.408 23.1349 41.5137C22.6021 41.7515 22.0825 42.0239 21.5375 42.2272C20.5593 42.591 20.1048 43.4672 19.5323 44.2193C18.488 45.5904 17.58 47.0184 18.3599 48.8551C18.606 49.4334 18.8205 50.0392 19.1581 50.5616C20.7494 53.0233 22.9702 53.7825 25.5478 52.632C26.887 52.0344 28.1448 51.2375 29.3925 50.4559C30.0249 50.0595 30.7286 49.6011 31.0906 48.9872C31.722 47.9139 32.1145 46.7013 32.5985 45.566ZM39.2191 33.1132C39.0778 33.2321 38.9537 33.3469 38.8195 33.4476C38.0111 34.0564 37.279 34.8451 36.375 35.2334C34.14 36.1929 31.8156 36.7803 29.3986 35.7599C28.7885 35.5027 28.2536 35.7568 27.9323 36.2416C27.4605 36.9531 27.0334 37.7113 26.707 38.499C26.0034 40.2015 26.829 42.2394 28.4489 43.0891C29.7768 43.7853 31.1373 44.1136 32.6656 44.0953C34.3973 44.074 35.9042 43.5597 37.2526 42.5829C38.5836 41.6194 39.1825 40.171 39.4957 38.5997C39.8577 36.7885 40.3742 34.9691 39.2191 33.1132ZM19.3005 52.8261C17.9989 51.3544 17.1997 49.8603 16.8519 48.1436C16.7055 47.421 16.6222 46.7217 17.0431 46.0183C17.217 45.7276 17.3075 45.0792 17.1489 44.9521C16.5174 44.448 15.7985 44.0282 15.0633 43.6806C13.4435 42.9163 11.7088 43.1501 10.0158 43.2832C8.32484 43.4164 7.37107 44.3453 7.40056 45.7266C7.43106 47.1557 7.95372 48.5207 8.84344 49.6682C10.1002 51.2904 11.7261 52.3799 13.6662 53.1229C15.5962 53.8639 17.337 53.3892 19.3005 52.8261ZM6.098 46.0397C6.18341 44.8556 6.29527 43.8036 7.27345 43.1196C7.81237 42.7425 7.85608 42.3502 7.67509 41.7129C7.38326 40.6894 7.18195 39.611 7.52868 38.5377C8.32079 36.0841 9.15863 33.6447 9.89176 31.1739C10.209 30.1057 10.268 28.9836 9.82263 27.8889C9.52368 27.153 8.94205 26.9772 8.42347 27.5738C7.53069 28.6024 6.94197 29.8109 6.6776 31.1414C6.48541 32.1059 6.44981 33.102 6.28508 34.0737C6.24848 34.2912 5.99734 34.5697 5.7889 34.6296C5.63332 34.6754 5.27844 34.4619 5.20523 34.2841C5.03949 33.8816 4.97033 33.4323 4.90017 32.9963C4.64901 31.4432 4.43447 29.8841 4.15281 28.3361C4.10909 28.0952 3.78982 27.9052 3.59764 27.6917C3.43494 27.9428 3.15936 28.1816 3.12987 28.4479C3.04039 29.2407 2.91839 30.065 3.04041 30.8405C3.47358 33.5868 3.78574 36.3758 5.2093 38.8599C5.45028 39.2807 5.38725 39.7146 4.95611 39.9627C4.47414 40.2411 4.15993 39.92 3.90674 39.5317C3.67693 39.178 3.47764 38.7948 3.19293 38.4919C3.04549 38.3354 2.7435 38.3242 2.51065 38.248C2.43744 38.4757 2.29405 38.7064 2.3032 38.93C2.3815 40.852 2.85637 42.6744 3.91285 44.2935C4.42635 45.0843 5.05982 45.813 6.098 46.0397ZM21.5599 9.33974C21.9279 9.73308 22.1852 10.0919 22.5187 10.351C23.7847 11.3329 25.074 12.2842 26.3593 13.2407C26.4996 13.3454 26.7416 13.509 26.8189 13.4602C26.9704 13.3636 27.1229 13.139 27.128 12.9642C27.1768 10.9883 27.1341 8.96265 26.0898 7.25308C25.0039 5.4754 23.6454 3.85731 22.3367 2.22499C21.6178 1.32751 20.3254 1.06631 19.5526 1.50336C18.4657 2.11726 17.5973 2.90192 17.1631 4.13683C16.8194 5.11765 17.217 6.22653 18.1444 6.67273C18.6853 6.93293 19.2781 7.19923 19.6726 7.62408C20.2807 8.27965 20.8776 8.13023 21.2843 7.61797C21.5721 7.25512 21.6839 6.5711 21.5639 6.1127C21.4246 5.58316 20.9437 5.14407 20.6112 4.66535C20.4271 4.39905 20.2441 4.13276 20.059 3.86444C20.5603 3.63473 20.9376 3.46093 21.1084 3.38267C22.5218 3.86647 22.9743 4.87474 23.1878 6.12592C23.44 7.59461 22.6255 8.46361 21.5599 9.33974Z" fill="#1BAC4B"/>
<path d="M32.4337 29.7428C31.3925 28.5556 31.3478 26.4842 32.4246 25.3276C33.2747 24.4148 34.9128 24.4219 35.7262 25.3814C36.5407 26.3429 37.2555 27.3674 36.8142 28.7335C36.4889 29.7428 35.9082 30.5518 34.7613 30.6748C33.8004 30.7774 32.9249 30.5569 32.4337 29.7428ZM33.8288 28.0952C33.9437 28.1023 34.507 28.2212 34.5457 28.1277C34.6911 27.7679 34.6687 27.339 34.7084 26.9355C34.4023 26.9314 34.0383 26.8206 33.8044 26.9487C33.4546 27.1408 33.2157 27.5026 33.8288 28.0952Z" fill="#1BAC4B"/>
</svg>
