<svg width="24" height="16" viewBox="0 0 24 16" fill="none" xmlns="http://www.w3.org/2000/svg">
<g clip-path="url(#clip0_1093_25738)">
<rect width="24" height="16" rx="2" fill="white"/>
<path fill-rule="evenodd" clip-rule="evenodd" d="M-4 -4H28V20H-4V-4Z" fill="#F7FCFF"/>
<path fill-rule="evenodd" clip-rule="evenodd" d="M-4 10.668V12.668H28V10.668H-4Z" fill="#E31D1C"/>
<path fill-rule="evenodd" clip-rule="evenodd" d="M-4 14.332V16.332H28V14.332H-4Z" fill="#E31D1C"/>
<path fill-rule="evenodd" clip-rule="evenodd" d="M-4 3.33203V5.33203H28V3.33203H-4Z" fill="#E31D1C"/>
<path fill-rule="evenodd" clip-rule="evenodd" d="M-4 7V9H28V7H-4Z" fill="#E31D1C"/>
<path fill-rule="evenodd" clip-rule="evenodd" d="M-4 -0.332031V1.66797H28V-0.332031H-4Z" fill="#E31D1C"/>
<rect x="-4" y="-4" width="20" height="13" fill="#2E42A5"/>
<path d="M-1.94824 5.96973H-1.23047L-1.79492 6.54297L-1.57617 7.44922L-2.27832 6.94043L-3.00488 7.44922L-2.75977 6.54297L-3.4043 5.96973H-2.5625L-2.2793 5.23047L-1.94824 5.96973ZM2.05176 5.96973H2.76953L2.20508 6.54297L2.42383 7.44922L1.72168 6.94043L0.995117 7.44922L1.24023 6.54297L0.595703 5.96973H1.4375L1.7207 5.23047L2.05176 5.96973ZM6.05176 5.96973H6.76953L6.20508 6.54297L6.42383 7.44922L5.72168 6.94043L4.99512 7.44922L5.24023 6.54297L4.5957 5.96973H5.4375L5.7207 5.23047L6.05176 5.96973ZM10.0518 5.96973H10.7695L10.2051 6.54297L10.4238 7.44922L9.72168 6.94043L8.99512 7.44922L9.24023 6.54297L8.5957 5.96973H9.4375L9.7207 5.23047L10.0518 5.96973ZM14.0518 5.96973H14.7695L14.2051 6.54297L14.4238 7.44922L13.7217 6.94043L12.9951 7.44922L13.2402 6.54297L12.5957 5.96973H13.4375L13.7207 5.23047L14.0518 5.96973ZM0.0517578 3.96973H0.769531L0.205078 4.54297L0.423828 5.44922L-0.27832 4.94043L-1.00488 5.44922L-0.759766 4.54297L-1.4043 3.96973H-0.5625L-0.279297 3.23047L0.0517578 3.96973ZM4.05176 3.96973H4.76953L4.20508 4.54297L4.42383 5.44922L3.72168 4.94043L2.99512 5.44922L3.24023 4.54297L2.5957 3.96973H3.4375L3.7207 3.23047L4.05176 3.96973ZM8.05176 3.96973H8.76953L8.20508 4.54297L8.42383 5.44922L7.72168 4.94043L6.99512 5.44922L7.24023 4.54297L6.5957 3.96973H7.4375L7.7207 3.23047L8.05176 3.96973ZM12.0518 3.96973H12.7695L12.2051 4.54297L12.4238 5.44922L11.7217 4.94043L10.9951 5.44922L11.2402 4.54297L10.5957 3.96973H11.4375L11.7207 3.23047L12.0518 3.96973ZM-1.94824 1.96973H-1.23047L-1.79492 2.54297L-1.57617 3.44922L-2.27832 2.94043L-3.00488 3.44922L-2.75977 2.54297L-3.4043 1.96973H-2.5625L-2.2793 1.23047L-1.94824 1.96973ZM2.05176 1.96973H2.76953L2.20508 2.54297L2.42383 3.44922L1.72168 2.94043L0.995117 3.44922L1.24023 2.54297L0.595703 1.96973H1.4375L1.7207 1.23047L2.05176 1.96973ZM6.05176 1.96973H6.76953L6.20508 2.54297L6.42383 3.44922L5.72168 2.94043L4.99512 3.44922L5.24023 2.54297L4.5957 1.96973H5.4375L5.7207 1.23047L6.05176 1.96973ZM10.0518 1.96973H10.7695L10.2051 2.54297L10.4238 3.44922L9.72168 2.94043L8.99512 3.44922L9.24023 2.54297L8.5957 1.96973H9.4375L9.7207 1.23047L10.0518 1.96973ZM14.0518 1.96973H14.7695L14.2051 2.54297L14.4238 3.44922L13.7217 2.94043L12.9951 3.44922L13.2402 2.54297L12.5957 1.96973H13.4375L13.7207 1.23047L14.0518 1.96973ZM0.0517578 -0.0302734H0.769531L0.205078 0.542969L0.423828 1.44922L-0.27832 0.94043L-1.00488 1.44922L-0.759766 0.542969L-1.4043 -0.0302734H-0.5625L-0.279297 -0.769531L0.0517578 -0.0302734ZM4.05176 -0.0302734H4.76953L4.20508 0.542969L4.42383 1.44922L3.72168 0.94043L2.99512 1.44922L3.24023 0.542969L2.5957 -0.0302734H3.4375L3.7207 -0.769531L4.05176 -0.0302734ZM8.05176 -0.0302734H8.76953L8.20508 0.542969L8.42383 1.44922L7.72168 0.94043L6.99512 1.44922L7.24023 0.542969L6.5957 -0.0302734H7.4375L7.7207 -0.769531L8.05176 -0.0302734ZM12.0518 -0.0302734H12.7695L12.2051 0.542969L12.4238 1.44922L11.7217 0.94043L10.9951 1.44922L11.2402 0.542969L10.5957 -0.0302734H11.4375L11.7207 -0.769531L12.0518 -0.0302734ZM-1.94824 -2.03027H-1.23047L-1.79492 -1.45703L-1.57617 -0.550781L-2.27832 -1.05957L-3.00488 -0.550781L-2.75977 -1.45703L-3.4043 -2.03027H-2.5625L-2.2793 -2.76953L-1.94824 -2.03027ZM2.05176 -2.03027H2.76953L2.20508 -1.45703L2.42383 -0.550781L1.72168 -1.05957L0.995117 -0.550781L1.24023 -1.45703L0.595703 -2.03027H1.4375L1.7207 -2.76953L2.05176 -2.03027ZM6.05176 -2.03027H6.76953L6.20508 -1.45703L6.42383 -0.550781L5.72168 -1.05957L4.99512 -0.550781L5.24023 -1.45703L4.5957 -2.03027H5.4375L5.7207 -2.76953L6.05176 -2.03027ZM10.0518 -2.03027H10.7695L10.2051 -1.45703L10.4238 -0.550781L9.72168 -1.05957L8.99512 -0.550781L9.24023 -1.45703L8.5957 -2.03027H9.4375L9.7207 -2.76953L10.0518 -2.03027ZM14.0518 -2.03027H14.7695L14.2051 -1.45703L14.4238 -0.550781L13.7217 -1.05957L12.9951 -0.550781L13.2402 -1.45703L12.5957 -2.03027H13.4375L13.7207 -2.76953L14.0518 -2.03027Z" fill="#F7FCFF"/>
</g>
<defs>
<clipPath id="clip0_1093_25738">
<rect width="24" height="16" rx="2" fill="white"/>
</clipPath>
</defs>
</svg>
