<svg width="41" height="41" viewBox="0 0 41 41" fill="none" xmlns="http://www.w3.org/2000/svg">
<rect x="0.5" y="0.366211" width="40" height="40" rx="20" fill="#0EAD65"/>
<path d="M12.9 20.3661C12.9 16.7834 12.9 14.9921 14.013 13.8791C15.126 12.7661 16.9174 12.7661 20.5 12.7661C24.0827 12.7661 25.874 12.7661 26.9871 13.8791C28.1 14.9921 28.1 16.7834 28.1 20.3661C28.1 23.9488 28.1 25.7401 26.9871 26.8532C25.874 27.9661 24.0827 27.9661 20.5 27.9661C16.9174 27.9661 15.126 27.9661 14.013 26.8532C12.9 25.7401 12.9 23.9488 12.9 20.3661Z" stroke="#EFFEF7" stroke-width="1.2" stroke-linejoin="round"/>
<path d="M24.4412 17.187H22.0853C21.2503 17.187 20.5716 17.8607 20.5654 18.6957L20.4972 27.9074M18.9656 21.9673H22.8078" stroke="#EFFEF7" stroke-width="1.2" stroke-linecap="round" stroke-linejoin="round"/>
</svg>
