<svg width="41" height="41" viewBox="0 0 41 41" fill="none" xmlns="http://www.w3.org/2000/svg">
<rect x="0.5" y="0.366211" width="40" height="40" rx="20" fill="#0EAD65"/>
<path d="M12.9003 20.3661C12.9003 16.7834 12.9003 14.9921 14.0133 13.8791C15.1263 12.7661 16.9176 12.7661 20.5003 12.7661C24.0829 12.7661 25.8743 12.7661 26.9873 13.8791C28.1003 14.9921 28.1003 16.7834 28.1003 20.3661C28.1003 23.9488 28.1003 25.7401 26.9873 26.8532C25.8743 27.9661 24.0829 27.9661 20.5003 27.9661C16.9176 27.9661 15.1263 27.9661 14.0133 26.8532C12.9003 25.7401 12.9003 23.9488 12.9003 20.3661Z" stroke="#EFFEF7" stroke-width="1.2" stroke-linejoin="round"/>
<path d="M24.1003 20.3661C24.1003 22.3544 22.4885 23.9661 20.5003 23.9661C18.512 23.9661 16.9003 22.3544 16.9003 20.3661C16.9003 18.3779 18.512 16.7661 20.5003 16.7661C22.4885 16.7661 24.1003 18.3779 24.1003 20.3661Z" stroke="#EFFEF7" stroke-width="1.2"/>
<path d="M24.9067 15.9663H24.8995" stroke="#EFFEF7" stroke-width="1.6" stroke-linecap="round" stroke-linejoin="round"/>
</svg>
