<svg width="41" height="41" viewBox="0 0 41 41" fill="none" xmlns="http://www.w3.org/2000/svg">
<rect x="0.5" y="0.366211" width="40" height="40" rx="20" fill="#0EAD65"/>
<path d="M14.5001 18.3662H14.1001C13.3459 18.3662 12.9688 18.3662 12.7344 18.6005C12.5001 18.8349 12.5001 19.212 12.5001 19.9662V26.7662C12.5001 27.5205 12.5001 27.8976 12.7344 28.1319C12.9688 28.3662 13.3459 28.3662 14.1001 28.3662H14.5001C15.2544 28.3662 15.6315 28.3662 15.8658 28.1319C16.1001 27.8976 16.1001 27.5205 16.1001 26.7662V19.9662C16.1001 19.212 16.1001 18.8349 15.8658 18.6005C15.6315 18.3662 15.2544 18.3662 14.5001 18.3662Z" stroke="#EFFEF7" stroke-width="1.2"/>
<path d="M16.1001 14.1662C16.1001 15.1603 15.2942 15.9662 14.3001 15.9662C13.306 15.9662 12.5001 15.1603 12.5001 14.1662C12.5001 13.1721 13.306 12.3662 14.3001 12.3662C15.2942 12.3662 16.1001 13.1721 16.1001 14.1662Z" stroke="#EFFEF7" stroke-width="1.2"/>
<path d="M20.7609 18.3662H20.1001C19.3459 18.3662 18.9688 18.3662 18.7344 18.6005C18.5001 18.8349 18.5001 19.212 18.5001 19.9662V26.7662C18.5001 27.5205 18.5001 27.8976 18.7344 28.1319C18.9688 28.3662 19.3459 28.3662 20.1001 28.3662H20.5001C21.2544 28.3662 21.6315 28.3662 21.8658 28.1319C22.1001 27.8976 22.1001 27.5205 22.1001 26.7662L22.1002 23.9663C22.1002 22.6409 22.5226 21.5663 23.7704 21.5663C24.3943 21.5663 24.9001 22.1036 24.9001 22.7663V26.3663C24.9001 27.1205 24.9001 27.4977 25.1344 27.732C25.3687 27.9663 25.7459 27.9663 26.5001 27.9663H26.8991C27.6532 27.9663 28.0302 27.9663 28.2645 27.7321C28.4988 27.4978 28.4989 27.1208 28.4991 26.3667L28.5002 21.9664C28.5002 19.9782 26.6092 18.3664 24.7376 18.3664C23.672 18.3664 22.7215 18.8887 22.1002 19.7054C22.1001 19.2013 22.1001 18.9493 21.9907 18.7622C21.9213 18.6437 21.8226 18.545 21.7041 18.4757C21.517 18.3662 21.265 18.3662 20.7609 18.3662Z" stroke="#EFFEF7" stroke-width="1.2" stroke-linejoin="round"/>
</svg>
