<svg width="41" height="41" viewBox="0 0 41 41" fill="none" xmlns="http://www.w3.org/2000/svg">
<rect x="0.5" y="0.366211" width="40" height="40" rx="20" fill="#0EAD65"/>
<path d="M12.8999 20.3661C12.8999 16.7834 12.8999 14.9921 14.0129 13.8791C15.1259 12.7661 16.9172 12.7661 20.4999 12.7661C24.0825 12.7661 25.8739 12.7661 26.9869 13.8791C28.0999 14.9921 28.0999 16.7834 28.0999 20.3661C28.0999 23.9488 28.0999 25.7401 26.9869 26.8532C25.8739 27.9661 24.0825 27.9661 20.4999 27.9661C16.9172 27.9661 15.1259 27.9661 14.0129 26.8532C12.8999 25.7401 12.8999 23.9488 12.8999 20.3661Z" stroke="#EFFEF7" stroke-width="1.2" stroke-linejoin="round"/>
<path d="M19.3286 19.5721C18.6726 19.4794 17.1772 19.6328 16.444 20.9887C15.7107 22.3444 16.4497 23.7555 16.9109 24.2916C17.3663 24.7931 18.8137 25.7429 20.349 24.8156C20.7296 24.5858 21.2037 24.4143 21.7415 22.6183L21.6789 15.5513C21.5752 16.3295 22.4348 18.1547 24.8823 18.3707" stroke="#EFFEF7" stroke-width="1.2" stroke-linecap="round" stroke-linejoin="round"/>
</svg>
