<svg width="41" height="41" viewBox="0 0 41 41" fill="none" xmlns="http://www.w3.org/2000/svg">
<rect x="0.5" y="0.366211" width="40" height="40" rx="20" fill="#0EAD65"/>
<path d="M12.8997 20.3661C12.8997 16.7834 12.8997 14.9921 14.0127 13.8791C15.1257 12.7661 16.917 12.7661 20.4996 12.7661C24.0824 12.7661 25.8736 12.7661 26.9867 13.8791C28.0996 14.9921 28.0996 16.7834 28.0996 20.3661C28.0996 23.9488 28.0996 25.7401 26.9867 26.8532C25.8736 27.9661 24.0824 27.9661 20.4996 27.9661C16.917 27.9661 15.1257 27.9661 14.0127 26.8532C12.8997 25.7401 12.8997 23.9488 12.8997 20.3661Z" stroke="#EFFEF7" stroke-width="1.2" stroke-linecap="round" stroke-linejoin="round"/>
<path d="M16.4997 24.3662L19.8546 21.0114M19.8546 21.0114L16.4997 16.3662H18.7219L21.1449 19.721M19.8546 21.0114L22.2774 24.3662H24.4997L21.1449 19.721M24.4997 16.3662L21.1449 19.721" stroke="#EFFEF7" stroke-width="1.2" stroke-linecap="round" stroke-linejoin="round"/>
</svg>
